<?xml version="1.0" encoding="UTF-8" standalone="no"?>
<!DOCTYPE svg PUBLIC "-//W3C//DTD SVG 1.1//EN" "http://www.w3.org/Graphics/SVG/1.1/DTD/svg11.dtd">
<svg width="100%" height="100%" viewBox="0 0 1599 1338" version="1.1" xmlns="http://www.w3.org/2000/svg" xmlns:xlink="http://www.w3.org/1999/xlink" xml:space="preserve" style="fill-rule:evenodd;clip-rule:evenodd;stroke-linejoin:round;stroke-miterlimit:1.41421;">
    <g transform="matrix(1,0,0,1,33,58)">
        <g transform="matrix(4.16667,0,0,4.16667,0,0)">
            <path d="M107.521,10.445L107.521,10.607L107.663,10.625L107.521,10.445Z" style="fill:rgb(117,86,74);fill-rule:nonzero;"/>
        </g>
        <g transform="matrix(4.16667,0,0,4.16667,0,0)">
            <path d="M134.138,40.587C134.138,38.129 133.837,35.743 133.283,33.455C133.796,35.997 134.076,38.622 134.12,41.305C134.125,41.066 134.138,40.828 134.138,40.587Z" style="fill:rgb(117,86,74);fill-rule:nonzero;"/>
        </g>
        <g transform="matrix(4.16667,0,0,4.16667,0,0)">
            <path d="M11.702,143.63C11.843,143.461 11.991,143.298 12.139,143.134C11.991,143.299 11.844,143.46 11.702,143.63Z" style="fill:rgb(231,196,150);fill-rule:nonzero;"/>
        </g>
        <g transform="matrix(4.16667,0,0,4.16667,0,0)">
            <path d="M10.821,144.781C10.94,144.61 11.07,144.444 11.197,144.277C11.07,144.445 10.941,144.61 10.821,144.781Z" style="fill:rgb(231,196,150);fill-rule:nonzero;"/>
        </g>
        <g transform="matrix(4.16667,0,0,4.16667,0,0)">
            <path d="M13.724,141.59C13.896,141.446 14.068,141.307 14.242,141.174C14.067,141.308 13.896,141.445 13.724,141.59Z" style="fill:rgb(231,196,150);fill-rule:nonzero;"/>
        </g>
        <g transform="matrix(4.16667,0,0,4.16667,0,0)">
            <path d="M10.063,145.978C10.155,145.816 10.262,145.656 10.361,145.495C10.261,145.657 10.155,145.816 10.063,145.978Z" style="fill:rgb(231,196,150);fill-rule:nonzero;"/>
        </g>
        <g transform="matrix(4.16667,0,0,4.16667,0,0)">
            <path d="M14.815,140.76C14.993,140.638 15.171,140.521 15.35,140.413C15.171,140.521 14.994,140.638 14.815,140.76Z" style="fill:rgb(231,196,150);fill-rule:nonzero;"/>
        </g>
        <g transform="matrix(4.16667,0,0,4.16667,0,0)">
            <path d="M12.678,142.557C12.836,142.397 12.999,142.244 13.162,142.091C12.998,142.244 12.837,142.396 12.678,142.557Z" style="fill:rgb(231,196,150);fill-rule:nonzero;"/>
        </g>
        <g transform="matrix(4.16667,0,0,4.16667,0,0)">
            <path d="M9.453,147.192C9.511,147.058 9.586,146.924 9.651,146.789C9.586,146.924 9.511,147.058 9.453,147.192Z" style="fill:rgb(231,196,150);fill-rule:nonzero;"/>
        </g>
        <g transform="matrix(4.16667,0,0,4.16667,0,0)">
            <path d="M15.58,140.264L15.35,140.413L15.597,140.277L15.58,140.264Z" style="fill:rgb(251,209,154);fill-rule:nonzero;"/>
        </g>
        <g transform="matrix(4.16667,0,0,4.16667,0,0)">
            <path d="M9.019,148.391C9.13,147.997 9.278,147.596 9.453,147.192C9.278,147.596 9.13,147.997 9.019,148.391Z" style="fill:rgb(251,209,154);fill-rule:nonzero;"/>
        </g>
        <g transform="matrix(4.16667,0,0,4.16667,0,0)">
            <path d="M11.197,144.277C11.361,144.059 11.526,143.841 11.702,143.63C11.526,143.842 11.362,144.058 11.197,144.277Z" style="fill:rgb(251,209,154);fill-rule:nonzero;"/>
        </g>
        <g transform="matrix(4.16667,0,0,4.16667,0,0)">
            <path d="M12.139,143.134C12.315,142.938 12.494,142.744 12.678,142.557C12.493,142.745 12.316,142.937 12.139,143.134Z" style="fill:rgb(251,209,154);fill-rule:nonzero;"/>
        </g>
        <g transform="matrix(4.16667,0,0,4.16667,0,0)">
            <path d="M13.162,142.091C13.347,141.919 13.534,141.751 13.724,141.59C13.534,141.751 13.348,141.918 13.162,142.091Z" style="fill:rgb(251,209,154);fill-rule:nonzero;"/>
        </g>
        <g transform="matrix(4.16667,0,0,4.16667,0,0)">
            <path d="M9.651,146.789C9.78,146.519 9.91,146.248 10.063,145.978C9.909,146.248 9.78,146.518 9.651,146.789Z" style="fill:rgb(251,209,154);fill-rule:nonzero;"/>
        </g>
        <g transform="matrix(4.16667,0,0,4.16667,0,0)">
            <path d="M14.242,141.174C14.432,141.028 14.623,140.891 14.815,140.76C14.623,140.891 14.433,141.028 14.242,141.174Z" style="fill:rgb(251,209,154);fill-rule:nonzero;"/>
        </g>
        <g transform="matrix(4.16667,0,0,4.16667,0,0)">
            <path d="M10.361,145.495C10.51,145.256 10.657,145.016 10.821,144.781C10.657,145.016 10.51,145.255 10.361,145.495Z" style="fill:rgb(251,209,154);fill-rule:nonzero;"/>
        </g>
        <g transform="matrix(4.16667,0,0,4.16667,0,0)">
            <path d="M15.597,140.277L15.35,140.413C15.171,140.521 14.993,140.638 14.815,140.76C14.623,140.891 14.432,141.028 14.242,141.174C14.068,141.307 13.896,141.446 13.724,141.59C13.534,141.751 13.347,141.919 13.162,142.091C12.999,142.244 12.836,142.397 12.678,142.557C12.494,142.744 12.315,142.938 12.139,143.134C11.991,143.298 11.843,143.461 11.702,143.63C11.526,143.841 11.361,144.059 11.197,144.277C11.07,144.444 10.94,144.61 10.821,144.781C10.657,145.016 10.51,145.256 10.361,145.495C10.262,145.656 10.155,145.816 10.063,145.978C9.91,146.248 9.78,146.519 9.651,146.789C9.586,146.924 9.511,147.058 9.453,147.192C9.278,147.596 9.13,147.997 9.019,148.391L0.221,179.615C-0.696,182.872 1.321,185.538 4.706,185.538L27.902,185.538C27.623,181.173 25.1,146.271 15.597,140.277Z" style="fill:rgb(127,163,213);fill-rule:nonzero;"/>
        </g>
        <g transform="matrix(4.16667,0,0,4.16667,0,0)">
            <path d="M170.863,144.272C170.991,144.442 171.123,144.61 171.244,144.783C171.123,144.609 170.992,144.442 170.863,144.272Z" style="fill:rgb(231,196,150);fill-rule:nonzero;"/>
        </g>
        <g transform="matrix(4.16667,0,0,4.16667,0,0)">
            <path d="M172.408,146.781C172.474,146.918 172.552,147.056 172.611,147.193C172.552,147.056 172.474,146.918 172.408,146.781Z" style="fill:rgb(231,196,150);fill-rule:nonzero;"/>
        </g>
        <g transform="matrix(4.16667,0,0,4.16667,0,0)">
            <path d="M171.698,145.488C171.799,145.652 171.908,145.814 172.002,145.98C171.908,145.814 171.799,145.652 171.698,145.488Z" style="fill:rgb(231,196,150);fill-rule:nonzero;"/>
        </g>
        <g transform="matrix(4.16667,0,0,4.16667,0,0)">
            <path d="M167.821,141.174C167.996,141.307 168.168,141.446 168.34,141.591C168.168,141.446 167.996,141.308 167.821,141.174Z" style="fill:rgb(231,196,150);fill-rule:nonzero;"/>
        </g>
        <g transform="matrix(4.16667,0,0,4.16667,0,0)">
            <path d="M182.004,181.915C181.948,182.269 181.852,182.605 181.719,182.921C181.852,182.605 181.948,182.269 182.004,181.915Z" style="fill:rgb(231,196,150);fill-rule:nonzero;"/>
        </g>
        <g transform="matrix(4.16667,0,0,4.16667,0,0)">
            <path d="M168.9,142.09C169.064,142.243 169.227,142.397 169.387,142.558C169.227,142.397 169.065,142.244 168.9,142.09Z" style="fill:rgb(231,196,150);fill-rule:nonzero;"/>
        </g>
        <g transform="matrix(4.16667,0,0,4.16667,0,0)">
            <path d="M169.922,143.131C170.071,143.297 170.22,143.461 170.363,143.632C170.22,143.46 170.071,143.297 169.922,143.131Z" style="fill:rgb(231,196,150);fill-rule:nonzero;"/>
        </g>
        <g transform="matrix(4.16667,0,0,4.16667,0,0)">
            <path d="M166.713,140.413C166.892,140.521 167.07,140.638 167.248,140.76C167.07,140.638 166.893,140.521 166.713,140.413Z" style="fill:rgb(231,196,150);fill-rule:nonzero;"/>
        </g>
        <g transform="matrix(4.16667,0,0,4.16667,0,0)">
            <path d="M177.358,185.538C179.473,185.538 181.054,184.497 181.719,182.921C181.054,184.497 179.473,185.538 177.358,185.538Z" style="fill:rgb(231,196,150);fill-rule:nonzero;"/>
        </g>
        <g transform="matrix(4.16667,0,0,4.16667,0,0)">
            <path d="M168.34,141.591C168.529,141.751 168.716,141.918 168.9,142.09C168.715,141.917 168.53,141.751 168.34,141.591Z" style="fill:rgb(231,196,150);fill-rule:nonzero;"/>
        </g>
        <g transform="matrix(4.16667,0,0,4.16667,0,0)">
            <path d="M172.002,145.98C172.153,146.246 172.281,146.514 172.408,146.781C172.28,146.513 172.153,146.246 172.002,145.98Z" style="fill:rgb(231,196,150);fill-rule:nonzero;"/>
        </g>
        <g transform="matrix(4.16667,0,0,4.16667,0,0)">
            <path d="M172.611,147.193C172.786,147.597 172.934,147.998 173.044,148.391C172.934,147.997 172.786,147.597 172.611,147.193Z" style="fill:rgb(231,196,150);fill-rule:nonzero;"/>
        </g>
        <g transform="matrix(4.16667,0,0,4.16667,0,0)">
            <path d="M166.484,140.264L166.466,140.277L166.713,140.413L166.484,140.264Z" style="fill:rgb(231,196,150);fill-rule:nonzero;"/>
        </g>
        <g transform="matrix(4.16667,0,0,4.16667,0,0)">
            <path d="M171.244,144.783C171.405,145.015 171.551,145.251 171.698,145.488C171.551,145.251 171.406,145.016 171.244,144.783Z" style="fill:rgb(231,196,150);fill-rule:nonzero;"/>
        </g>
        <g transform="matrix(4.16667,0,0,4.16667,0,0)">
            <path d="M167.248,140.76C167.44,140.891 167.631,141.028 167.821,141.174C167.631,141.028 167.441,140.891 167.248,140.76Z" style="fill:rgb(231,196,150);fill-rule:nonzero;"/>
        </g>
        <g transform="matrix(4.16667,0,0,4.16667,0,0)">
            <path d="M169.387,142.558C169.57,142.744 169.747,142.936 169.922,143.131C169.746,142.936 169.57,142.745 169.387,142.558Z" style="fill:rgb(231,196,150);fill-rule:nonzero;"/>
        </g>
        <g transform="matrix(4.16667,0,0,4.16667,0,0)">
            <path d="M170.363,143.632C170.537,143.841 170.7,144.056 170.863,144.272C170.7,144.056 170.537,143.842 170.363,143.632Z" style="fill:rgb(231,196,150);fill-rule:nonzero;"/>
        </g>
        <g transform="matrix(4.16667,0,0,4.16667,0,0)">
            <path d="M62.414,119.672C50.529,124.883 16.28,139.902 16.28,139.902C16.053,140.006 15.825,140.148 15.597,140.277C25.1,146.271 27.623,181.173 27.902,185.538L91.068,185.538L91.068,136.643L76.735,146.384L62.414,119.672Z" style="fill:rgb(165,192,228);fill-rule:nonzero;"/>
        </g>
        <g transform="matrix(4.16667,0,0,4.16667,0,0)">
            <path d="M66.42,108.691L66.42,114.539L91.068,130.809L91.068,108.69L66.42,108.691Z" style="fill:rgb(231,196,150);fill-rule:nonzero;"/>
        </g>
        <g transform="matrix(4.16667,0,0,4.16667,0,0)">
            <path d="M66.42,114.539L65.568,113.976L62.414,119.672L76.735,146.384L91.068,136.643L91.068,130.809L66.42,114.539Z" style="fill:rgb(127,163,213);fill-rule:nonzero;"/>
        </g>
        <g transform="matrix(4.16667,0,0,4.16667,0,0)">
            <path d="M170.435,143.63C170.293,143.461 170.146,143.298 169.998,143.134C170.146,143.299 170.293,143.46 170.435,143.63Z" style="fill:rgb(231,196,150);fill-rule:nonzero;"/>
        </g>
        <g transform="matrix(4.16667,0,0,4.16667,0,0)">
            <path d="M171.315,144.781C171.196,144.61 171.066,144.444 170.94,144.277C171.067,144.445 171.196,144.61 171.315,144.781Z" style="fill:rgb(231,196,150);fill-rule:nonzero;"/>
        </g>
        <g transform="matrix(4.16667,0,0,4.16667,0,0)">
            <path d="M168.413,141.59C168.241,141.446 168.069,141.307 167.895,141.174C168.069,141.308 168.241,141.445 168.413,141.59Z" style="fill:rgb(231,196,150);fill-rule:nonzero;"/>
        </g>
        <g transform="matrix(4.16667,0,0,4.16667,0,0)">
            <path d="M172.074,145.978C171.982,145.816 171.875,145.656 171.775,145.495C171.875,145.657 171.982,145.816 172.074,145.978Z" style="fill:rgb(231,196,150);fill-rule:nonzero;"/>
        </g>
        <g transform="matrix(4.16667,0,0,4.16667,0,0)">
            <path d="M167.321,140.76C167.144,140.638 166.965,140.521 166.787,140.413C166.966,140.521 167.143,140.638 167.321,140.76Z" style="fill:rgb(231,196,150);fill-rule:nonzero;"/>
        </g>
        <g transform="matrix(4.16667,0,0,4.16667,0,0)">
            <path d="M169.458,142.557C169.3,142.397 169.138,142.244 168.975,142.091C169.139,142.244 169.299,142.396 169.458,142.557Z" style="fill:rgb(231,196,150);fill-rule:nonzero;"/>
        </g>
        <g transform="matrix(4.16667,0,0,4.16667,0,0)">
            <path d="M166.557,140.264L166.787,140.413L166.54,140.277L166.557,140.264Z" style="fill:rgb(251,209,154);fill-rule:nonzero;"/>
        </g>
        <g transform="matrix(4.16667,0,0,4.16667,0,0)">
            <path d="M170.94,144.277C170.775,144.059 170.61,143.841 170.435,143.63C170.611,143.842 170.775,144.058 170.94,144.277Z" style="fill:rgb(251,209,154);fill-rule:nonzero;"/>
        </g>
        <g transform="matrix(4.16667,0,0,4.16667,0,0)">
            <path d="M169.998,143.134C169.821,142.938 169.643,142.744 169.458,142.557C169.644,142.745 169.821,142.937 169.998,143.134Z" style="fill:rgb(251,209,154);fill-rule:nonzero;"/>
        </g>
        <g transform="matrix(4.16667,0,0,4.16667,0,0)">
            <path d="M168.975,142.091C168.79,141.919 168.603,141.751 168.413,141.59C168.603,141.751 168.789,141.918 168.975,142.091Z" style="fill:rgb(251,209,154);fill-rule:nonzero;"/>
        </g>
        <g transform="matrix(4.16667,0,0,4.16667,0,0)">
            <path d="M172.486,146.789C172.356,146.519 172.227,146.248 172.074,145.978C172.228,146.248 172.356,146.518 172.486,146.789Z" style="fill:rgb(251,209,154);fill-rule:nonzero;"/>
        </g>
        <g transform="matrix(4.16667,0,0,4.16667,0,0)">
            <path d="M167.895,141.174C167.705,141.028 167.514,140.891 167.321,140.76C167.514,140.891 167.704,141.028 167.895,141.174Z" style="fill:rgb(251,209,154);fill-rule:nonzero;"/>
        </g>
        <g transform="matrix(4.16667,0,0,4.16667,0,0)">
            <path d="M171.775,145.495C171.627,145.256 171.479,145.016 171.315,144.781C171.479,145.016 171.626,145.255 171.775,145.495Z" style="fill:rgb(251,209,154);fill-rule:nonzero;"/>
        </g>
        <g transform="matrix(4.16667,0,0,4.16667,0,0)">
            <path d="M166.54,140.277L166.787,140.413C166.965,140.521 167.144,140.638 167.321,140.76C167.514,140.891 167.705,141.028 167.895,141.174C168.069,141.307 168.241,141.446 168.413,141.59C168.603,141.751 168.79,141.919 168.975,142.091C169.138,142.244 169.3,142.397 169.458,142.557C169.643,142.744 169.821,142.938 169.998,143.134C170.146,143.298 170.293,143.461 170.435,143.63C170.61,143.841 170.775,144.059 170.94,144.277C171.066,144.444 171.196,144.61 171.315,144.781C171.479,145.016 171.627,145.256 171.775,145.495C171.875,145.656 171.982,145.816 172.074,145.978C172.227,146.248 172.356,146.519 172.486,146.789C172.55,146.924 172.626,147.058 172.684,147.192C172.858,147.596 173.007,147.997 173.118,148.391L181.916,179.615C182.833,182.872 180.815,185.538 177.431,185.538L154.234,185.538C154.514,181.173 157.037,146.271 166.54,140.277Z" style="fill:rgb(110,152,208);fill-rule:nonzero;"/>
        </g>
        <g transform="matrix(4.16667,0,0,4.16667,0,0)">
            <path d="M119.723,119.672C131.608,124.883 165.857,139.902 165.857,139.902C166.083,140.006 166.312,140.148 166.54,140.277C157.037,146.271 154.514,181.173 154.234,185.538L91.105,185.538L91.068,185.538L91.068,136.643L105.402,146.384L119.723,119.672Z" style="fill:rgb(140,183,226);fill-rule:nonzero;"/>
        </g>
        <g transform="matrix(4.16667,0,0,4.16667,0,0)">
            <path d="M115.716,108.691L115.716,114.539L91.068,130.809L91.068,108.69L115.716,108.691Z" style="fill:rgb(231,196,150);fill-rule:nonzero;"/>
        </g>
        <g transform="matrix(4.16667,0,0,4.16667,0,0)">
            <path d="M115.716,114.539L116.569,113.976L119.723,119.672L105.402,146.384L91.068,136.643L91.068,130.809L115.716,114.539Z" style="fill:rgb(110,152,208);fill-rule:nonzero;"/>
        </g>
        <g transform="matrix(4.16667,0,0,4.16667,0,0)">
            <rect x="115.081" y="169.851" width="27.142" height="6.375" style="fill:rgb(110,152,208);fill-rule:nonzero;"/>
        </g>
        <g transform="matrix(4.16667,0,0,4.16667,0,0)">
            <path d="M116.527,169.851L128.651,169.851L128.651,157.726L116.527,169.851Z" style="fill:rgb(213,61,60);fill-rule:nonzero;"/>
        </g>
        <g transform="matrix(4.16667,0,0,4.16667,0,0)">
            <path d="M128.651,169.851L140.777,169.851L128.651,157.726L128.651,169.851Z" style="fill:rgb(194,43,43);fill-rule:nonzero;"/>
        </g>
        <g transform="matrix(4.16667,0,0,4.16667,0,0)">
            <path d="M86.202,138.202L72.991,142.373L72.991,126.208L86.202,130.38L86.202,138.202Z" style="fill:rgb(213,61,60);fill-rule:nonzero;"/>
        </g>
        <g transform="matrix(4.16667,0,0,4.16667,0,0)">
            <path d="M95.935,130.38L109.146,126.208L109.146,142.373L95.935,138.202L95.935,130.38Z" style="fill:rgb(194,43,43);fill-rule:nonzero;"/>
        </g>
        <g transform="matrix(4.16667,0,0,4.16667,0,0)">
            <rect x="86.202" y="129.424" width="9.733" height="9.734" style="fill:rgb(213,61,60);fill-rule:nonzero;"/>
        </g>
        <g transform="matrix(4.16667,0,0,4.16667,0,0)">
            <path d="M134.112,43.096C134.125,42.697 134.138,42.297 134.138,41.893C134.138,24.726 122.192,10.81 107.455,10.81C107.276,10.81 107.101,10.822 106.923,10.826C100.697,4.668 92.72,0.953 84.01,0.953L83.919,0.956L83.824,0.953C83.534,0.953 83.251,0.977 82.962,0.985C82.662,0.995 82.359,0.999 82.06,1.018C77.15,1.302 72.561,2.76 68.558,5.114C68.207,5.314 67.862,5.527 67.518,5.74L67.377,5.826C56.287,12.748 48.589,26.366 48.037,42.2C48.012,42.805 47.999,43.412 47.999,44.023C47.999,67.81 64.121,87.093 84.01,87.093C85.094,87.093 86.164,87.025 87.224,86.913C88.491,87.025 89.772,87.093 91.068,87.093C96.896,87.093 102.451,85.929 107.521,83.831C123.144,77.367 134.138,61.982 134.138,44.023C134.138,43.783 134.124,43.545 134.12,43.305L134.112,43.096Z" style="fill:rgb(117,86,74);fill-rule:nonzero;"/>
        </g>
        <g transform="matrix(4.16667,0,0,4.16667,0,0)">
            <path d="M134.125,62.225C133.99,58.947 131.297,56.329 127.986,56.329L127.986,50.176C127.986,46.778 125.231,44.023 121.833,44.023L118.021,44.023L118.021,43.976C112.222,43.976 107.521,39.276 107.521,33.476C107.521,39.276 102.821,43.976 97.021,43.976L97.021,44.023L60.304,44.023C56.906,44.023 54.151,46.778 54.151,50.176L54.151,56.329C50.84,56.329 48.147,58.947 48.011,62.225L47.999,62.225L47.999,74.787C47.999,78.185 50.753,80.94 54.151,80.94C54.404,80.94 54.652,80.92 54.897,80.89C58.332,104.231 73.22,121.793 91.068,121.793C108.916,121.793 123.805,104.231 127.24,80.89C127.485,80.92 127.733,80.94 127.986,80.94C131.383,80.94 134.138,78.185 134.138,74.787L134.138,73.755L134.138,62.482L134.138,62.225L134.125,62.225Z" style="fill:rgb(251,209,154);fill-rule:nonzero;"/>
        </g>
        <g transform="matrix(4.16667,0,0,4.16667,0,0)">
            <path d="M132.556,60.931L132.556,56.521C132.556,56.101 132.016,55.981 131.611,55.891C131.206,55.802 129.81,55.522 127.336,55.172C124.904,54.827 118.292,54.35 111.938,54.35C105.583,54.35 99.342,55.785 96.783,56.942C94.128,58.142 91.068,58.231 91.068,58.231C91.068,58.231 88.008,58.142 85.354,56.942C82.795,55.785 76.553,54.35 70.199,54.35C63.845,54.35 57.232,54.827 54.801,55.172C52.326,55.522 50.931,55.802 50.526,55.891C50.122,55.981 49.581,56.101 49.581,56.521L49.581,60.931C49.581,60.931 49.506,61.726 50.616,62.09C51.481,62.374 52.371,64.524 53.046,68.217C53.721,71.91 54.489,81.135 62.699,82.17C70.91,83.205 78.109,81.315 80.809,78.75C83.509,76.185 85.624,72.9 86.658,69.795C87.495,67.285 88.468,64.075 88.773,63.586C89.058,63.131 89.644,62.467 91.068,62.467C92.493,62.467 93.078,63.131 93.363,63.586C93.668,64.075 94.641,67.285 95.478,69.795C96.512,72.9 98.627,76.185 101.328,78.75C104.027,81.315 111.227,83.205 119.438,82.17C127.648,81.135 128.416,71.91 129.09,68.217C129.766,64.524 130.655,62.374 131.521,62.09C132.63,61.726 132.556,60.931 132.556,60.931Z" style="fill:rgb(77,78,78);fill-rule:nonzero;"/>
        </g>
        <g transform="matrix(4.16667,0,0,4.16667,0,0)">
            <path d="M56.798,66.115C56.798,66.115 55.804,59.094 62.749,58.136C69.693,57.177 79.275,57.594 82.025,60.094C84.774,62.593 83.566,67.553 82.649,69.864C81.733,72.175 80.297,76.466 76.287,78.216C72.276,79.965 63.804,80.59 60.812,78.466C57.82,76.341 56.941,68.429 56.798,66.115Z" style="fill:rgb(203,203,203);fill-rule:nonzero;"/>
        </g>
        <g transform="matrix(4.16667,0,0,4.16667,0,0)">
            <path d="M60.812,68.347C63.804,70.472 72.276,69.847 76.287,68.097C79.919,66.512 81.439,62.844 82.375,60.449C82.266,60.326 82.149,60.206 82.025,60.094C79.275,57.594 69.693,57.177 62.749,58.136C59.873,58.533 58.358,59.969 57.57,61.515C58.168,64.282 59.173,67.183 60.812,68.347Z" style="fill:rgb(230,230,230);fill-rule:nonzero;"/>
        </g>
        <g transform="matrix(4.16667,0,0,4.16667,0,0)">
            <path d="M125.339,66.115C125.339,66.115 126.333,59.094 119.388,58.136C112.443,57.177 102.861,57.594 100.112,60.094C97.362,62.593 98.57,67.553 99.487,69.864C100.404,72.175 101.839,76.466 105.85,78.216C109.86,79.965 118.333,80.59 121.325,78.466C124.317,76.341 125.195,68.429 125.339,66.115Z" style="fill:rgb(203,203,203);fill-rule:nonzero;"/>
        </g>
        <g transform="matrix(4.16667,0,0,4.16667,0,0)">
            <path d="M121.325,68.347C118.333,70.472 109.86,69.847 105.85,68.097C102.218,66.512 100.698,62.844 99.762,60.449C99.871,60.326 99.987,60.206 100.112,60.094C102.861,57.594 112.443,57.177 119.388,58.136C122.264,58.533 123.779,59.969 124.566,61.515C123.969,64.282 122.964,67.183 121.325,68.347Z" style="fill:rgb(230,230,230);fill-rule:nonzero;"/>
        </g>
        <g transform="matrix(4.16667,0,0,4.16667,0,0)">
            <path d="M46.867,110.372C46.403,110.66 45.975,110.972 45.578,111.298C47.454,111.639 49.329,111.98 51.205,112.321C51.476,110.37 50.017,108.425 46.867,110.372Z" style="fill:rgb(226,193,155);fill-rule:nonzero;"/>
        </g>
        <g transform="matrix(4.16667,0,0,4.16667,0,0)">
            <path d="M61.183,103.839L59.595,102.99L45.29,107.327L46.02,109.735L60.413,105.371L61.183,103.839Z" style="fill:rgb(243,243,244);fill-rule:nonzero;"/>
        </g>
        <g transform="matrix(4.16667,0,0,4.16667,0,0)">
            <path d="M60.413,105.371L46.02,109.735L46.75,112.141L58.852,108.472L60.413,105.371Z" style="fill:rgb(229,229,229);fill-rule:nonzero;"/>
        </g>
        <g transform="matrix(4.16667,0,0,4.16667,0,0)">
            <path d="M49.199,117.697C49.238,117.596 49.275,117.498 49.313,117.4C47.928,117.356 47.089,117.185 47.089,117.185L49.199,117.697Z" style="fill:rgb(226,193,155);fill-rule:nonzero;"/>
        </g>
        <g transform="matrix(4.16667,0,0,4.16667,0,0)">
            <path d="M37.59,125.291C37.04,125.897 36.437,126.414 35.767,126.761C34.987,127.164 34.271,127.385 33.62,127.479C33.54,127.633 33.478,127.785 33.406,127.937C33.201,128.455 33.003,128.945 32.819,129.424C29.962,138.877 43.222,145.301 40.499,157.123C40.566,156.785 40.878,155.277 41.864,151.249C43.008,146.58 43.293,140.911 43.437,137.623C43.58,134.336 45.104,128.476 45.104,128.476C45.104,128.476 45.419,127.639 45.905,126.354C42.338,125.664 39.594,125.38 39.594,125.38C39.594,125.38 38.706,125.219 37.59,125.291Z" style="fill:rgb(226,193,155);fill-rule:nonzero;"/>
        </g>
        <g transform="matrix(4.16667,0,0,4.16667,0,0)">
            <path d="M44.357,121.378L47.353,122.534C47.408,122.389 47.463,122.244 47.519,122.098C45.423,121.682 44.357,121.378 44.357,121.378Z" style="fill:rgb(226,193,155);fill-rule:nonzero;"/>
        </g>
        <g transform="matrix(4.16667,0,0,4.16667,0,0)">
            <path d="M47.519,122.098C48.742,122.34 50.314,122.62 52.235,122.902C57.443,123.664 57.57,119.726 57.57,119.726L49.199,117.697L47.089,117.185C47.089,117.185 47.928,117.356 49.313,117.4C50.313,117.432 51.595,117.398 53.06,117.185C56.554,116.678 56.3,113.247 56.3,113.247C54.602,112.939 52.903,112.63 51.205,112.321C49.329,111.98 47.454,111.639 45.578,111.298C45.043,111.201 44.509,111.103 43.974,111.006C46.136,110.075 48.117,109.193 49.154,108.658C52.203,107.085 50.488,104.465 50.488,104.465C50.488,104.465 38.863,107.514 35.576,108.086C34.5,108.273 33.589,108.533 32.828,108.795C31.263,109.336 30.383,109.896 30.383,109.896C30.383,109.896 21.712,117.471 18.187,120.52C14.661,123.57 15.9,126.142 15.9,126.142L17.929,156.757C15.246,163.874 10.63,185.566 10.63,185.566L37.815,185.566L40.499,157.123C43.222,145.301 29.962,138.877 32.819,129.424C32.965,128.938 33.169,128.441 33.406,127.937C33.478,127.785 33.54,127.633 33.62,127.479C34.461,125.866 36.192,125.383 37.59,125.291C38.706,125.219 39.594,125.38 39.594,125.38C39.594,125.38 42.338,125.664 45.905,126.354C46.473,126.463 47.06,126.582 47.661,126.713C52.044,127.666 53.251,124.808 53.251,124.808L47.353,122.534L44.357,121.378C44.357,121.378 45.423,121.682 47.519,122.098Z" style="fill:rgb(248,206,158);fill-rule:nonzero;"/>
        </g>
        <g transform="matrix(4.16667,0,0,4.16667,0,0)">
            <path d="M86.705,116.283C86.629,116.595 86.499,116.77 86.315,116.804C86.209,116.824 86.055,116.832 85.854,116.83C85.649,116.828 85.495,116.838 85.39,116.859C84.265,117.071 82.703,117.732 80.703,118.841C78.703,119.953 77.14,120.614 76.015,120.828C72.325,121.526 69.893,118.777 68.721,112.582C67.79,107.668 67.128,103.449 66.732,99.922L66.572,98.653C66.533,98.445 66.449,98.183 66.323,97.867C66.196,97.555 66.119,97.331 66.095,97.201C65.977,96.574 66.341,96.14 67.189,95.897C68.139,95.61 69.973,94.843 72.692,93.596C75.166,92.48 76.963,91.813 78.089,91.601C78.221,91.576 78.41,91.569 78.654,91.574C79.068,91.471 79.495,91.511 79.937,91.699C80.379,91.886 80.628,92.124 80.684,92.411C80.782,92.936 80.164,93.322 78.829,93.575C77.625,93.802 75.898,94.349 73.648,95.207C71.124,96.199 69.598,97.018 69.069,97.66C69.236,99.69 69.576,102.851 70.09,107.144C70.22,107.256 70.376,107.294 70.56,107.259C71.345,107.11 72.462,106.643 73.913,105.851C75.361,105.062 76.495,104.592 77.305,104.438C77.96,104.314 78.647,104.36 79.366,104.577L79.903,105.696C79.973,105.79 79.668,106.038 78.986,106.439C78.57,106.246 78.073,106.203 77.498,106.312C76.844,106.436 75.65,106.906 73.92,107.72C72.191,108.536 71.029,109.163 70.435,109.6C70.439,110.198 70.638,111.54 71.034,113.635C71.782,117.588 73.164,119.374 75.179,118.993C76.147,118.808 77.48,118.227 79.179,117.238C80.876,116.255 82.209,115.668 83.178,115.486C84.853,115.169 86.027,115.433 86.705,116.283Z" style="fill:rgb(117,86,74);fill-rule:nonzero;"/>
        </g>
        <g transform="matrix(4.16667,0,0,4.16667,0,0)">
            <path d="M101.76,106.456C94.965,108.114 91.473,108.962 91.281,108.997C89.865,109.265 89.088,109.035 88.95,108.303C88.931,108.208 88.921,108.058 88.92,107.85C88.918,107.643 88.921,107.502 88.934,107.427L89.373,107.196C89.589,107.156 89.918,107.119 90.359,107.084C90.799,107.051 91.129,107.012 91.344,106.972C91.849,106.876 92.607,106.684 93.62,106.393C94.634,106.101 95.404,105.906 95.933,105.807C96.197,105.755 96.591,105.707 97.116,105.657C97.642,105.606 98.023,105.56 98.264,105.514C98.575,105.456 98.99,105.283 99.508,105C100.027,104.715 100.43,104.545 100.718,104.491C100.885,104.459 101.063,104.576 101.249,104.837C101.436,105.101 101.548,105.33 101.584,105.52L101.76,106.456ZM100.8,101.38C100.819,101.477 100.828,101.632 100.831,101.842C100.834,102.053 100.842,102.194 100.855,102.266C100.562,102.421 100.401,102.501 100.379,102.505C100.307,102.518 100.138,102.482 99.873,102.395C99.607,102.309 99.451,102.27 99.403,102.28C98.71,102.162 96.936,102.374 94.082,102.913C92.953,103.126 92.053,103.36 91.38,103.611C91.173,103.701 90.783,103.935 90.209,104.317C89.633,104.699 89.312,104.896 89.24,104.911C89.071,104.942 88.848,104.805 88.565,104.498C88.284,104.192 88.128,103.954 88.095,103.785L87.917,102.849C89.646,102.398 91.367,101.961 93.074,101.539C95.159,100.995 96.899,100.592 98.289,100.329C98.793,100.234 99.314,100.264 99.855,100.423C100.394,100.581 100.709,100.903 100.8,101.38Z" style="fill:rgb(117,86,74);fill-rule:nonzero;"/>
        </g>
        <g transform="matrix(4.16667,0,0,4.16667,0,0)">
            <path d="M125.424,110.948C124.938,111.393 124.554,111.644 124.266,111.698C124.083,111.732 123.803,111.689 123.428,111.571C123.349,111.151 123.215,110.443 123.025,109.445C122.852,108.526 122.717,107.818 122.624,107.319C121.095,99.241 119.502,95.354 117.851,95.667C116.869,95.853 116.254,97.272 116.006,99.921C115.819,102.044 115.856,103.801 116.119,105.187L116.862,109.112C116.902,109.321 117.018,109.605 117.205,109.963C117.396,110.319 117.509,110.588 117.544,110.773C117.583,110.982 117.478,111.219 117.23,111.481C116.981,111.747 116.752,111.898 116.543,111.938C116.308,111.982 116.016,111.869 115.667,111.597C115.315,111.324 115.119,111.07 115.073,110.834L113.581,102.943C113.422,102.104 113.076,101.072 112.546,99.844C111.872,98.291 111.275,97.563 110.75,97.662C110.462,97.717 110.102,98.166 109.662,99.008C108.175,101.89 107.779,105.165 108.473,108.829C108.556,109.274 108.734,109.925 109.003,110.782C109.274,111.639 109.449,112.278 109.529,112.698C109.677,113.481 109.424,113.935 108.769,114.059C108.456,114.118 108.156,114.04 107.874,113.822C107.742,113.713 107.513,113.145 107.185,112.122C106.875,111.204 106.688,110.577 106.624,110.235L104.872,100.971C104.366,98.304 104.427,96.906 105.054,96.787C105.315,96.738 105.61,96.813 105.93,97.008C106.252,97.207 106.438,97.434 106.488,97.697C106.592,98.245 106.649,98.983 106.661,99.903C106.721,101.082 106.765,101.818 106.795,102.109L107.028,102.269C107.312,101.051 107.596,99.833 107.88,98.612C108.314,97.04 109.015,96.16 109.985,95.977C111.347,95.72 112.802,96.963 114.351,99.706C114.554,99.342 114.756,98.626 114.96,97.557C115.164,96.487 115.385,95.715 115.62,95.236C115.997,94.513 116.554,94.085 117.286,93.945C117.993,93.812 118.868,94.134 119.911,94.915C121.83,96.318 123.21,99.25 124.054,103.708L125.424,110.948Z" style="fill:rgb(117,86,74);fill-rule:nonzero;"/>
        </g>
        <g transform="matrix(4.16667,0,0,4.16667,0,0)">
            <path d="M141.406,103.42C141.526,104.053 141.148,105.005 140.278,106.273C139.406,107.543 138.648,108.334 138.002,108.649C137.139,109.111 136.409,109.4 135.807,109.513C133.896,109.875 132.301,109.457 131.015,108.26C129.841,107.203 129.065,105.693 128.692,103.727C128.312,101.708 128.317,99.368 128.709,96.715C129.196,93.416 130.238,91.616 131.835,91.313C132.594,91.169 133.673,91.353 135.07,91.86C136.469,92.368 137.31,92.948 137.596,93.6C137.933,94.376 138.175,95.156 138.323,95.942C138.868,98.822 138.71,100.343 137.845,100.507C137.636,100.546 137.372,100.514 137.054,100.411C136.735,100.309 136.556,100.155 136.517,99.943C136.497,99.839 136.524,99.691 136.598,99.502C136.67,99.312 136.714,99.189 136.732,99.132C136.771,98.772 136.674,97.974 136.441,96.746C135.892,93.841 134.962,92.514 133.654,92.761C132.215,93.033 131.286,94.58 130.873,97.403C130.578,99.579 130.606,101.585 130.955,103.422C131.223,104.838 131.668,105.976 132.291,106.839C133.127,107.958 134.171,108.398 135.43,108.161C136.188,108.016 137.004,107.454 137.874,106.467C138.656,105.581 139.194,104.702 139.488,103.826C139.543,103.543 139.632,103.142 139.75,102.63C139.847,102.419 140.012,102.291 140.248,102.246C140.405,102.218 140.63,102.359 140.919,102.672C141.208,102.987 141.372,103.236 141.406,103.42Z" style="fill:rgb(117,86,74);fill-rule:nonzero;"/>
        </g>
        <g transform="matrix(4.16667,0,0,4.16667,0,0)">
            <path d="M154.975,93.1C155.043,93.466 154.972,93.672 154.759,93.712C154.773,93.709 154.644,93.695 154.369,93.667C153.966,93.617 153.512,93.638 153.009,93.734C150.886,94.136 148.767,94.846 146.652,95.862C146.625,95.883 146.368,96.025 145.882,96.293C145.494,96.507 145.248,96.624 145.142,96.645C144.546,96.757 144.196,96.54 144.093,95.989C144.044,95.73 144.122,95.431 144.327,95.092C144.722,94.591 145.312,93.824 146.096,92.789C147.197,91.348 148.139,89.724 148.918,87.916C149.89,85.694 150.248,83.91 149.994,82.567C149.861,81.868 149.51,81.327 148.941,80.953C148.375,80.58 147.729,80.46 147.014,80.597C146.264,80.738 145.539,81.187 144.837,81.943C144.134,82.701 143.742,83.451 143.662,84.191C143.688,84.663 143.707,85.133 143.716,85.605C143.723,86.315 143.59,86.697 143.316,86.748C143.21,86.767 143.02,86.704 142.748,86.559C142.473,86.413 142.331,86.295 142.313,86.203C142.151,85.348 142.364,84.344 142.951,83.19C143.491,82.124 144.134,81.306 144.882,80.739C145.513,80.238 146.235,79.912 147.045,79.76C148.021,79.575 148.94,79.779 149.804,80.374C150.666,80.971 151.19,81.748 151.372,82.709C151.661,84.238 151.245,86.055 150.128,88.161C149.466,89.425 148.379,91.03 146.866,92.976C146.55,93.399 146.337,93.693 146.228,93.855C146.01,94.214 145.873,94.538 145.817,94.833C145.918,94.956 146.063,95 146.247,94.967L146.357,94.921L153.974,92.198C154.216,92.139 154.444,92.213 154.657,92.427C154.819,92.617 154.925,92.841 154.975,93.1Z" style="fill:rgb(117,86,74);fill-rule:nonzero;"/>
        </g>
    </g>
    <g transform="matrix(1,0,0,1,278,-82)">
        <g transform="matrix(4.16667,0,0,4.16667,-1921.01,-1116.05)">
            <path d="M647.682,352.476L647.682,386.68C647.682,397.169 656.185,405.675 666.678,405.675L715.213,405.675C725.701,405.675 734.205,397.169 734.205,386.68L734.205,352.476L647.682,352.476Z" style="fill:rgb(227,148,37);fill-rule:nonzero;"/>
        </g>
        <g transform="matrix(4.16667,0,0,4.16667,-1921.01,-1116.05)">
            <path d="M768.76,481.344L759.963,455.147C759.852,454.753 759.703,454.352 759.529,453.948C759.471,453.814 759.394,453.68 759.33,453.545C759.201,453.274 759.072,453.004 758.918,452.734C758.826,452.572 758.721,452.412 758.619,452.25C758.471,452.011 758.324,451.772 758.16,451.537C758.041,451.366 757.912,451.201 757.785,451.033C757.619,450.815 757.455,450.598 757.279,450.386C757.137,450.216 756.99,450.055 756.842,449.89C756.666,449.694 756.488,449.5 756.303,449.313C756.144,449.153 755.982,449 755.818,448.847C755.633,448.674 755.447,448.507 755.258,448.346C755.086,448.202 754.914,448.064 754.738,447.93C754.549,447.784 754.359,447.647 754.166,447.516C753.986,447.393 753.81,447.278 753.631,447.168L753.402,447.02L753.385,447.034C753.156,446.904 752.928,446.762 752.701,446.658L716.055,429.955L716.055,406.047L691.443,406.047L666.832,406.047L666.832,429.955L630.185,446.658C629.959,446.762 629.73,446.904 629.502,447.034L629.484,447.02L629.256,447.168C629.076,447.278 628.899,447.393 628.721,447.516C628.527,447.647 628.338,447.784 628.147,447.93C627.973,448.064 627.801,448.202 627.629,448.346C627.44,448.507 627.253,448.674 627.067,448.847C626.903,449 626.742,449.153 626.584,449.313C626.398,449.5 626.221,449.694 626.044,449.89C625.896,450.055 625.749,450.216 625.607,450.386C625.432,450.598 625.267,450.815 625.102,451.033C624.974,451.201 624.846,451.366 624.727,451.537C624.563,451.772 624.416,452.011 624.267,452.25C624.166,452.412 624.06,452.572 623.968,452.734C623.814,453.004 623.686,453.274 623.557,453.545C623.492,453.68 623.416,453.814 623.357,453.948C623.183,454.352 623.035,454.753 622.924,455.147L614.127,481.344C613.209,484.602 615.226,487.268 618.611,487.268L764.275,487.268C767.66,487.268 769.678,484.602 768.76,481.344Z" style="fill:rgb(226,193,155);fill-rule:nonzero;"/>
        </g>
        <g transform="matrix(4.16667,0,0,4.16667,-1921.01,-1116.05)">
            <path d="M731.52,364.211L731.508,363.953C731.416,361.753 730.17,359.855 728.361,358.842L728.361,358.058L728.361,351.905C728.361,348.506 725.606,345.752 722.207,345.752C721.656,345.752 720.519,345.752 720.518,345.752L717.748,345.752L717.748,345.726L712,345.726C707.922,345.726 704.616,342.42 704.616,338.342C704.616,350.042 695.133,359.524 683.436,359.524L680.663,359.524L666.447,359.524C663.65,359.524 661.384,361.791 661.384,364.587C661.384,367.385 663.65,369.651 666.447,369.651C660.241,369.651 654.916,365.896 652.609,360.534C651.889,361.496 651.434,362.67 651.381,363.953L651.367,364.211L651.367,376.516C651.367,379.881 654.07,382.612 657.424,382.664C660.837,404.369 674.767,420.625 691.443,420.625L691.444,420.625C708.121,420.625 722.051,404.369 725.463,382.664C728.816,382.612 731.52,379.881 731.52,376.516L731.52,365.924L731.52,364.211Z" style="fill:rgb(248,206,158);fill-rule:nonzero;"/>
        </g>
        <g transform="matrix(4.16667,0,0,4.16667,-1921.01,-1116.05)">
            <path d="M741.078,487.268L744.801,487.268C743.639,473.444 746.34,459.362 752.91,446.766L752.701,446.658L726.998,434.944C720.793,448.378 707.209,457.705 691.438,457.705L691.438,487.268L741.078,487.268Z" style="fill:rgb(229,229,229);fill-rule:nonzero;"/>
        </g>
        <g transform="matrix(4.16667,0,0,4.16667,-1921.01,-1116.05)">
            <path d="M752.914,446.769C753.07,446.854 753.227,446.944 753.385,447.034C753.227,446.944 753.07,446.854 752.914,446.769Z" style="fill:rgb(83,138,200);fill-rule:nonzero;"/>
        </g>
        <g transform="matrix(4.16667,0,0,4.16667,-1921.01,-1116.05)">
            <path d="M752.91,446.766L752.914,446.769L752.91,446.766Z" style="fill:rgb(74,125,191);fill-rule:nonzero;"/>
        </g>
        <g transform="matrix(4.16667,0,0,4.16667,-1921.01,-1116.05)">
            <path d="M744.801,487.268L764.275,487.268C764.539,487.268 764.793,487.246 765.039,487.214C766.111,487.078 767.012,486.651 767.68,486.02L767.73,485.975C767.816,485.892 767.895,485.802 767.973,485.711L768.059,485.612L768.246,485.353L768.342,485.21L768.486,484.953L768.576,484.774L768.684,484.52L768.758,484.305L768.832,484.051L768.887,483.806L768.932,483.556C768.943,483.465 768.951,483.371 768.959,483.278L768.977,483.034C768.979,482.93 768.975,482.825 768.973,482.719L768.965,482.49C768.955,482.369 768.938,482.245 768.92,482.121L768.893,481.925C768.859,481.734 768.814,481.54 768.76,481.344L767.291,476.973L759.963,455.147C759.852,454.753 759.703,454.352 759.529,453.948C759.471,453.814 759.395,453.68 759.33,453.545C759.201,453.274 759.072,453.004 758.918,452.734C758.826,452.572 758.721,452.412 758.619,452.25C758.471,452.011 758.324,451.772 758.16,451.537C758.041,451.366 757.912,451.201 757.785,451.033C757.619,450.815 757.455,450.598 757.279,450.386C757.137,450.216 756.99,450.055 756.842,449.89C756.666,449.694 756.488,449.5 756.303,449.313C756.145,449.153 755.982,449 755.818,448.847C755.633,448.674 755.447,448.507 755.258,448.346C755.086,448.202 754.914,448.064 754.738,447.93C754.549,447.784 754.359,447.647 754.166,447.516C753.986,447.393 753.811,447.278 753.631,447.168L753.402,447.02L753.385,447.034C753.227,446.944 753.07,446.854 752.914,446.769L752.91,446.766C746.34,459.362 743.639,473.444 744.801,487.268Z" style="fill:rgb(243,243,244);fill-rule:nonzero;"/>
        </g>
        <g transform="matrix(4.16667,0,0,4.16667,-1921.01,-1116.05)">
            <path d="M629.977,446.766C629.818,446.852 629.66,446.944 629.502,447.034L629.484,447.02L629.256,447.168C629.076,447.278 628.899,447.393 628.721,447.516C628.527,447.647 628.338,447.784 628.147,447.93C627.973,448.064 627.801,448.202 627.629,448.346C627.439,448.507 627.253,448.674 627.067,448.847C626.903,449 626.742,449.153 626.584,449.313C626.398,449.5 626.221,449.694 626.044,449.89C625.896,450.055 625.749,450.216 625.607,450.386C625.432,450.598 625.268,450.815 625.102,451.033C624.975,451.201 624.846,451.366 624.727,451.537C624.563,451.772 624.416,452.011 624.267,452.25C624.166,452.412 624.061,452.572 623.968,452.734C623.814,453.004 623.686,453.274 623.557,453.545C623.492,453.68 623.416,453.814 623.357,453.948C623.184,454.352 623.035,454.753 622.924,455.147L615.595,476.973L614.127,481.344C613.28,484.348 614.933,486.842 617.848,487.214C618.094,487.246 618.347,487.268 618.611,487.268L638.086,487.268C639.248,473.444 636.547,459.362 629.977,446.766Z" style="fill:rgb(229,229,229);fill-rule:nonzero;"/>
        </g>
        <g transform="matrix(4.16667,0,0,4.16667,-1921.01,-1116.05)">
            <path d="M630.186,446.658L629.977,446.766C636.547,459.362 639.248,473.444 638.086,487.268L655.348,487.268L636.893,443.6L630.186,446.658Z" style="fill:rgb(243,243,244);fill-rule:nonzero;"/>
        </g>
        <g transform="matrix(4.16667,0,0,4.16667,-1921.01,-1116.05)">
            <path d="M691.438,457.705C675.67,457.705 662.087,448.379 655.882,434.946L641.318,441.583L667.119,487.268L691.438,487.268L691.438,457.705Z" style="fill:rgb(165,192,228);fill-rule:nonzero;"/>
        </g>
        <g transform="matrix(4.16667,0,0,4.16667,-1921.01,-1116.05)">
            <path d="M636.893,443.6L655.348,487.268L667.119,487.268L641.318,441.583L636.893,443.6Z" style="fill:rgb(229,229,229);fill-rule:nonzero;"/>
        </g>
        <g transform="matrix(4.16667,0,0,4.16667,-1921.01,-1116.05)">
            <path d="M752.905,446.766C753.063,446.852 753.221,446.944 753.379,447.034L753.396,447.02L753.627,447.168C753.806,447.278 753.982,447.393 754.161,447.516C754.354,447.647 754.544,447.784 754.734,447.93C754.909,448.064 755.08,448.202 755.252,448.346C755.443,448.507 755.629,448.674 755.814,448.847C755.979,449 756.139,449.153 756.299,449.313C756.483,449.5 756.66,449.694 756.838,449.89C756.986,450.055 757.133,450.216 757.274,450.386C757.451,450.598 757.615,450.815 757.779,451.033C757.906,451.201 758.035,451.366 758.155,451.537C758.319,451.772 758.467,452.011 758.615,452.25C758.715,452.412 758.822,452.572 758.914,452.734C759.067,453.004 759.196,453.274 759.326,453.545C759.391,453.68 759.466,453.814 759.523,453.948C759.698,454.352 759.847,454.753 759.957,455.147L767.287,476.973L768.756,481.344C769.602,484.348 767.949,486.842 765.034,487.214C764.787,487.246 764.535,487.268 764.271,487.268L744.796,487.268C743.635,473.444 746.336,459.362 752.905,446.766Z" style="fill:rgb(229,229,229);fill-rule:nonzero;"/>
        </g>
        <g transform="matrix(4.16667,0,0,4.16667,-1921.01,-1116.05)">
            <path d="M752.697,446.658L752.905,446.766C746.336,459.362 743.635,473.444 744.796,487.268L741.074,487.268L727.533,487.268L745.988,443.6L752.697,446.658Z" style="fill:rgb(243,243,244);fill-rule:nonzero;"/>
        </g>
        <g transform="matrix(4.16667,0,0,4.16667,-1921.01,-1116.05)">
            <path d="M691.443,457.705C707.213,457.705 720.795,448.379 727,434.946L741.563,441.583L715.764,487.268L691.443,487.268L691.443,457.705Z" style="fill:rgb(155,189,228);fill-rule:nonzero;"/>
        </g>
        <g transform="matrix(4.16667,0,0,4.16667,-1921.01,-1116.05)">
            <path d="M745.988,443.6L727.533,487.268L715.764,487.268L741.563,441.583L745.988,443.6Z" style="fill:rgb(229,229,229);fill-rule:nonzero;"/>
        </g>
        <g transform="matrix(4.16667,0,0,4.16667,-1921.01,-1116.05)">
            <path d="M691.438,457.705L691.438,450.541C704.311,450.541 715.4,442.935 720.477,431.975L726.994,434.946C733.549,454.955 712.861,477.477 691.438,457.705Z" style="fill:rgb(110,152,208);fill-rule:nonzero;"/>
        </g>
        <g transform="matrix(4.16667,0,0,4.16667,-1921.01,-1116.05)">
            <path d="M691.438,457.705L691.438,450.541C678.566,450.541 667.477,442.935 662.4,431.975L655.882,434.946C649.328,454.956 670.016,477.477 691.438,457.705Z" style="fill:rgb(127,163,213);fill-rule:nonzero;"/>
        </g>
        <g transform="matrix(4.16667,0,0,4.16667,-1921.01,-1116.05)">
            <path d="M687.033,450.24C682.997,449.684 679.202,448.375 675.793,446.458L675.793,421.014L687.033,421.014L687.033,450.24Z" style="fill:rgb(234,222,207);fill-rule:nonzero;"/>
        </g>
        <g transform="matrix(4.16667,0,0,4.16667,-1921.01,-1116.05)">
            <path d="M681.413,475.41C678.308,475.41 675.793,472.894 675.793,469.789L675.793,465.313C679.345,465.078 683.146,463.799 687.033,461.202L687.033,469.789C687.033,472.894 684.517,475.41 681.413,475.41Z" style="fill:rgb(210,222,242);fill-rule:nonzero;"/>
        </g>
        <g transform="matrix(4.16667,0,0,4.16667,-1921.01,-1116.05)">
            <path d="M675.793,465.313L675.793,446.458C679.202,448.375 682.997,449.684 687.033,450.24L687.033,461.202C683.146,463.799 679.345,465.078 675.793,465.313Z" style="fill:rgb(194,210,236);fill-rule:nonzero;"/>
        </g>
        <g transform="matrix(4.16667,0,0,4.16667,-1921.01,-1116.05)">
            <path d="M687.107,421.014L687.033,421.014L675.793,421.014L675.67,421.014L675.597,421.014C674.376,421.014 673.386,420.024 673.386,418.803C673.386,417.581 674.376,416.592 675.597,416.592L677.491,416.592C680.929,418.68 684.657,420.02 688.568,420.463C688.178,420.806 687.667,421.014 687.107,421.014Z" style="fill:rgb(237,227,215);fill-rule:nonzero;"/>
        </g>
        <g transform="matrix(4.16667,0,0,4.16667,-1921.01,-1116.05)">
            <path d="M688.568,420.463C684.657,420.02 680.929,418.68 677.491,416.592L687.107,416.592C688.328,416.592 689.318,417.582 689.318,418.803C689.318,419.465 689.028,420.058 688.568,420.463Z" style="fill:rgb(243,230,216);fill-rule:nonzero;"/>
        </g>
        <g transform="matrix(4.16667,0,0,4.16667,-1921.01,-1116.05)">
            <path d="M677.876,457.245L677.876,469.516C677.876,471.469 679.459,473.053 681.413,473.053C683.366,473.053 684.949,471.469 684.949,469.516L684.949,457.245L677.876,457.245Z" style="fill:rgb(140,197,116);fill-rule:nonzero;"/>
        </g>
        <g transform="matrix(4.16667,0,0,4.16667,-1921.01,-1116.05)">
            <path d="M622.943,487.267C622.943,487.267 634.494,457.865 637.178,450.747C639.861,443.63 644.179,438.729 654.563,434.995C664.947,431.262 679.182,431.495 679.182,431.495C679.182,431.495 689.799,439.196 694,440.129C698.2,441.062 701.935,442.813 701.351,445.263C700.767,447.713 698.2,447.713 698.2,447.713C698.2,447.713 696.8,450.281 692.833,451.214C688.866,452.147 668.564,449.814 668.564,449.814C668.564,449.814 662.964,452.847 658.997,455.297C655.029,457.747 652.696,458.906 652.696,458.906L650.129,487.267L622.943,487.267Z" style="fill:rgb(248,206,158);fill-rule:nonzero;"/>
        </g>
        <g transform="matrix(4.16667,0,0,4.16667,-1921.01,-1116.05)">
            <path d="M734.205,350.896C734.205,327.003 714.836,307.634 690.943,307.634C667.051,307.634 647.682,327.003 647.682,350.896C647.682,357.116 649.004,363.023 651.367,368.368L651.367,364.211L651.381,363.953C651.434,362.67 651.889,361.496 652.609,360.534C654.916,365.896 660.241,369.651 666.447,369.651C663.65,369.651 661.384,367.385 661.384,364.587C661.384,361.791 663.65,359.524 666.447,359.524L683.436,359.524C695.133,359.524 704.616,350.042 704.616,338.342L704.624,338.492L704.616,338.642C704.616,345.912 710.509,351.806 717.779,351.806C717.877,351.806 717.972,351.793 718.068,351.791L718.068,351.806L728.356,351.806L728.361,351.905L728.361,358.842C730.17,359.855 731.416,361.753 731.508,363.953L731.52,364.211L731.52,365.924C733.254,361.243 734.205,356.181 734.205,350.896Z" style="fill:rgb(227,148,37);fill-rule:nonzero;"/>
        </g>
        <g transform="matrix(4.16667,0,0,4.16667,-1921.01,-1116.05)">
            <path d="M670.693,406.226C669.589,406.226 668.693,405.33 668.693,404.226C668.693,403.121 669.589,402.226 670.693,402.226C671.798,402.226 672.693,403.121 672.693,404.226C672.693,405.33 671.798,406.226 670.693,406.226Z" style="fill:rgb(242,240,234);fill-rule:nonzero;"/>
        </g>
        <g transform="matrix(4.16667,0,0,4.16667,-1921.01,-1116.05)">
            <path d="M675.793,412.726C674.895,412.726 674.168,411.998 674.168,411.101C674.168,410.203 674.895,409.476 675.793,409.476C676.69,409.476 677.418,410.203 677.418,411.101C677.418,411.998 676.69,412.726 675.793,412.726Z" style="fill:rgb(242,240,234);fill-rule:nonzero;"/>
        </g>
        <g transform="matrix(4.16667,0,0,4.16667,-1921.01,-1116.05)">
            <path d="M650.48,406.226C647.074,406.226 644.313,403.464 644.313,400.058C644.313,397.106 646.387,394.638 649.157,394.032C650.612,397.493 653.062,400.433 656.149,402.493C655.205,404.689 653.022,406.226 650.48,406.226Z" style="fill:rgb(244,245,246);fill-rule:nonzero;"/>
        </g>
        <g transform="matrix(4.16667,0,0,4.16667,-1921.01,-1116.05)">
            <path d="M656.149,402.493C653.062,400.433 650.612,397.493 649.157,394.032C649.584,393.939 650.026,393.89 650.48,393.89C653.887,393.89 656.648,396.652 656.648,400.058C656.648,400.923 656.47,401.746 656.149,402.493Z" style="fill:rgb(240,232,218);fill-rule:nonzero;"/>
        </g>
        <g transform="matrix(4.16667,0,0,4.16667,-1921.01,-1116.05)">
            <path d="M644.313,380.923C642.685,380.923 641.365,379.603 641.365,377.976C641.365,376.349 642.685,375.029 644.313,375.029C645.939,375.029 647.26,376.349 647.26,377.976C647.26,379.603 645.939,380.923 644.313,380.923Z" style="fill:rgb(244,245,246);fill-rule:nonzero;"/>
        </g>
        <g transform="matrix(4.16667,0,0,4.16667,-1921.01,-1116.05)">
            <path d="M625.352,376.427C624.152,376.427 623.18,375.454 623.18,374.255C623.18,373.055 624.152,372.082 625.352,372.082C626.551,372.082 627.524,373.055 627.524,374.255C627.524,375.454 626.551,376.427 625.352,376.427Z" style="fill:rgb(244,245,246);fill-rule:nonzero;"/>
        </g>
        <g transform="matrix(4.16667,0,0,4.16667,-1921.01,-1116.05)">
            <path d="M629.976,388.398C628.777,388.398 627.805,387.425 627.805,386.226C627.805,385.027 628.777,384.054 629.976,384.054C631.176,384.054 632.148,385.027 632.148,386.226C632.148,387.425 631.176,388.398 629.976,388.398Z" style="fill:rgb(244,245,246);fill-rule:nonzero;"/>
        </g>
    </g>
    <g transform="matrix(1,0,0,1,470,397)">
        <g transform="matrix(4.16667,0,0,4.16667,0,-2358.78)">
            <path d="M150.017,751.521C150.137,751.615 150.256,751.708 150.375,751.808C150.552,751.958 150.725,752.114 150.897,752.274C151.05,752.416 151.199,752.558 151.347,752.707C151.519,752.881 151.684,753.061 151.849,753.244C151.986,753.398 152.123,753.547 152.255,753.705C152.418,753.902 152.571,754.104 152.725,754.306C152.843,754.462 152.962,754.616 153.074,754.776C153.227,754.994 153.363,755.216 153.501,755.439C153.595,755.589 153.693,755.738 153.779,755.888C153.922,756.14 154.042,756.39 154.162,756.643C154.222,756.768 154.292,756.893 154.347,757.017C154.509,757.393 154.646,757.766 154.75,758.132L162.931,782.492C163.784,785.521 161.908,788 158.761,788L139.364,788C139.522,783.439 140.097,772.997 142.163,763.568C144.194,754.294 148.123,752.058 150.017,751.521Z" style="fill:rgb(229,229,229);fill-rule:nonzero;"/>
        </g>
        <g transform="matrix(4.16667,0,0,4.16667,0,-2358.78)">
            <path d="M147.998,750.238C148.209,750.335 148.421,750.467 148.633,750.587L148.649,750.576L148.863,750.713C149.029,750.815 149.194,750.922 149.36,751.036C149.539,751.158 149.716,751.286 149.893,751.421L150.017,751.521C148.123,752.058 144.194,754.294 142.163,763.568C140.097,772.997 139.522,783.439 139.364,788L137.191,788L109.508,788L130.259,743.002L147.998,750.238Z" style="fill:rgb(92,173,124);fill-rule:nonzero;"/>
        </g>
        <g transform="matrix(4.16667,0,0,4.16667,0,-2358.78)">
            <path d="M120.364,754.64C115.238,764.255 103.421,769.235 91.036,759.184L91.036,751.059L91.041,751.058C91.283,751.044 91.524,751.025 91.765,751.005C101.512,750.196 109.891,744.62 114.597,736.615C114.677,736.479 114.766,736.348 114.844,736.21C115.236,735.518 115.608,734.815 115.944,734.089L121.924,736.814C122.201,737.661 122.408,738.513 122.582,739.366C122.618,739.546 122.639,739.727 122.671,739.908C122.937,741.402 123.061,742.895 123.031,744.368C122.957,748.04 121.999,751.574 120.364,754.64Z" style="fill:rgb(214,214,214);fill-rule:nonzero;"/>
        </g>
        <g transform="matrix(4.16667,0,0,4.16667,0,-2358.78)">
            <path d="M91.036,759.184C103.421,769.235 115.238,764.255 120.364,754.64C122.042,751.6 123.001,748.05 123.031,744.368C123.061,742.895 122.937,741.402 122.671,739.908L130.259,743.002L109.508,788L91.036,788L91.035,788L91.035,759.183L91.036,759.184Z" style="fill:rgb(229,229,229);fill-rule:nonzero;"/>
        </g>
        <g transform="matrix(4.16667,0,0,4.16667,0,-2358.78)">
            <path d="M109.921,734.707L109.921,707.726L91.041,707.726L91.036,707.726L91.035,707.726L72.156,707.726L72.156,734.707L67.48,736.615C72.186,744.62 80.564,750.196 90.312,751.005C90.553,751.011 90.792,751.03 91.035,751.03L91.035,751.059L91.036,751.059L91.038,751.058L91.041,751.059L91.041,751.03C91.285,751.03 91.523,751.011 91.765,751.005C101.512,750.196 109.891,744.62 114.597,736.615L109.921,734.707Z" style="fill:rgb(226,193,155);fill-rule:nonzero;"/>
        </g>
        <g transform="matrix(4.16667,0,0,4.16667,0,-2358.78)">
            <path d="M32.06,751.521C31.94,751.615 31.821,751.708 31.702,751.808C31.525,751.958 31.352,752.114 31.18,752.274C31.027,752.416 30.877,752.558 30.73,752.707C30.558,752.881 30.393,753.061 30.228,753.244C30.09,753.398 29.954,753.547 29.822,753.705C29.658,753.902 29.505,754.104 29.352,754.306C29.234,754.462 29.114,754.616 29.003,754.776C28.85,754.994 28.713,755.216 28.575,755.439C28.482,755.589 28.383,755.738 28.297,755.888C28.155,756.14 28.035,756.39 27.915,756.643C27.855,756.768 27.784,756.893 27.73,757.017C27.568,757.393 27.43,757.766 27.327,758.132L19.146,782.492C18.293,785.521 20.169,788 23.316,788L42.712,788C42.554,783.439 41.98,772.997 39.914,763.568C37.883,754.294 33.954,752.058 32.06,751.521Z" style="fill:rgb(243,243,244);fill-rule:nonzero;"/>
        </g>
        <g transform="matrix(4.16667,0,0,4.16667,0,-2358.78)">
            <path d="M34.079,750.238C33.868,750.335 33.656,750.467 33.444,750.587L33.427,750.576L33.214,750.713C33.047,750.815 32.883,750.922 32.717,751.036C32.538,751.158 32.361,751.286 32.184,751.421L32.06,751.521C33.954,752.058 37.883,754.294 39.914,763.568C41.98,772.997 42.554,783.439 42.712,788L72.568,788L51.817,743.002L34.079,750.238Z" style="fill:rgb(141,201,170);fill-rule:nonzero;"/>
        </g>
        <g transform="matrix(4.16667,0,0,4.16667,0,-2358.78)">
            <path d="M152.512,747.501C152.668,747.586 152.825,747.676 152.982,747.766C152.825,747.676 152.668,747.586 152.512,747.501Z" style="fill:rgb(83,138,200);fill-rule:nonzero;"/>
        </g>
        <g transform="matrix(4.16667,0,0,4.16667,0,-2358.78)">
            <path d="M152.508,747.498L152.512,747.501L152.508,747.498Z" style="fill:rgb(74,125,191);fill-rule:nonzero;"/>
        </g>
        <g transform="matrix(4.16667,0,0,4.16667,0,-2358.78)">
            <path d="M54.259,669.328C54.343,667.308 55.487,665.566 57.148,664.636L57.148,663.915L57.148,662.841L57.165,662.825L62.805,662.825L68.444,657.185L68.444,662.841L74.101,657.185L74.101,662.841L79.757,657.185L79.757,662.825L85.397,662.825L85.397,662.841L85.413,662.825L91.053,662.825L91.053,662.841L91.069,662.825L102.349,662.825L102.349,662.841L102.366,662.825L108.006,662.825L108.006,662.841L108.022,662.825L119.302,662.825L119.302,662.841L119.318,662.825L124.934,662.825L124.934,664.636C126.596,665.566 127.74,667.308 127.823,669.328L127.834,669.565L127.834,674.605C129.765,669.929 130.835,664.809 130.835,659.436C130.835,637.458 113.019,619.642 91.041,619.642C84.994,619.642 79.266,620.997 74.133,623.411C73.345,619.166 68.913,603.414 46.521,603.414C20.646,603.414 2.021,633.726 17.771,672.976C33.521,712.226 31.021,714.976 31.021,714.976L31.146,714.976C31.146,714.976 59.021,700.226 43.136,662.841C29.854,631.582 56.82,616.626 68.992,626.31C58.296,633.444 51.247,645.615 51.247,659.436C51.247,664.809 52.318,669.929 54.248,674.605L54.248,669.565L54.259,669.328Z" style="fill:rgb(122,86,73);fill-rule:nonzero;"/>
        </g>
        <g transform="matrix(4.16667,0,0,4.16667,0,-2358.78)">
            <path d="M127.834,669.565L127.823,669.328C127.74,667.308 126.596,665.566 124.934,664.636L124.934,663.915L124.934,662.825L119.318,662.825L119.302,662.841L119.302,662.825L108.022,662.825L108.006,662.841L108.006,662.825L102.366,662.825L102.349,662.841L102.349,662.825L91.069,662.825L91.053,662.841L91.053,662.825L85.413,662.825L85.397,662.841L85.397,662.825L79.757,662.825L79.757,657.185L74.101,662.841L74.101,657.185L68.444,662.841L68.444,657.185L62.805,662.825L57.165,662.825L57.148,663.915L57.148,664.636C55.487,665.566 54.343,667.308 54.259,669.328L54.248,669.565L54.248,680.862C54.248,683.952 56.73,686.458 59.808,686.506C62.941,706.434 75.731,721.358 91.041,721.358L91.042,721.358C106.352,721.358 119.142,706.434 122.274,686.506C125.353,686.458 127.834,683.952 127.834,680.862L127.834,674.605L127.834,669.565Z" style="fill:rgb(248,206,158);fill-rule:nonzero;"/>
        </g>
        <g transform="matrix(4.16667,0,0,4.16667,0,-2358.78)">
            <path d="M61.712,754.64C66.839,764.255 78.655,769.235 91.041,759.184L91.041,751.059L91.036,751.058C90.793,751.044 90.552,751.025 90.312,751.005C80.564,750.196 72.186,744.62 67.48,736.615C67.399,736.479 67.311,736.348 67.233,736.21C66.841,735.518 66.468,734.815 66.132,734.089L60.153,736.814C59.876,737.661 59.668,738.513 59.495,739.366C59.459,739.546 59.438,739.727 59.406,739.908C59.14,741.402 59.016,742.895 59.045,744.368C59.12,748.04 60.078,751.574 61.712,754.64Z" style="fill:rgb(229,229,229);fill-rule:nonzero;"/>
        </g>
        <g transform="matrix(4.16667,0,0,4.16667,0,-2358.78)">
            <path d="M91.041,759.184C78.655,769.235 66.839,764.255 61.712,754.64C60.035,751.6 59.076,748.05 59.045,744.368C59.016,742.895 59.14,741.402 59.406,739.908L51.817,743.002L72.568,788L91.041,788L91.041,759.183L91.041,759.184Z" style="fill:rgb(243,243,244);fill-rule:nonzero;"/>
        </g>
        <g transform="matrix(4.16667,0,0,4.16667,0,-2358.78)">
            <path d="M150.017,751.521C150.137,751.615 150.256,751.708 150.375,751.808C150.552,751.958 150.725,752.114 150.897,752.274C151.05,752.416 151.199,752.558 151.347,752.707C151.519,752.881 151.684,753.061 151.849,753.244C151.986,753.398 152.123,753.547 152.255,753.705C152.418,753.902 152.571,754.104 152.725,754.306C152.843,754.462 152.962,754.616 153.074,754.776C153.227,754.994 153.363,755.216 153.501,755.439C153.595,755.589 153.693,755.738 153.779,755.888C153.922,756.14 154.042,756.39 154.162,756.643C154.222,756.768 154.292,756.893 154.347,757.017C154.509,757.393 154.646,757.766 154.75,758.132L162.931,782.492C163.784,785.521 161.908,788 158.761,788L139.364,788C139.522,783.439 140.097,772.997 142.163,763.568C144.194,754.294 148.123,752.058 150.017,751.521Z" style="fill:rgb(229,229,229);fill-rule:nonzero;"/>
        </g>
        <g transform="matrix(4.16667,0,0,4.16667,0,-2358.78)">
            <path d="M147.998,750.238C148.209,750.335 148.421,750.467 148.633,750.587L148.649,750.576L148.863,750.713C149.029,750.815 149.194,750.922 149.36,751.036C149.539,751.158 149.716,751.286 149.893,751.421L150.017,751.521C148.123,752.058 144.194,754.294 142.163,763.568C140.097,772.997 139.522,783.439 139.364,788L137.191,788L109.508,788L130.259,743.002L147.998,750.238Z" style="fill:rgb(92,173,124);fill-rule:nonzero;"/>
        </g>
        <g transform="matrix(4.16667,0,0,4.16667,0,-2358.78)">
            <path d="M120.364,754.64C115.238,764.255 103.421,769.235 91.036,759.184L91.036,751.059L91.041,751.058C91.283,751.044 91.524,751.025 91.765,751.005C101.512,750.196 109.891,744.62 114.597,736.615C114.677,736.479 114.766,736.348 114.844,736.21C115.236,735.518 115.608,734.815 115.944,734.089L121.924,736.814C122.201,737.661 122.408,738.513 122.582,739.366C122.618,739.546 122.639,739.727 122.671,739.908C122.937,741.402 123.061,742.895 123.031,744.368C122.957,748.04 121.999,751.574 120.364,754.64Z" style="fill:rgb(214,214,214);fill-rule:nonzero;"/>
        </g>
        <g transform="matrix(4.16667,0,0,4.16667,0,-2358.78)">
            <path d="M91.036,759.184C103.421,769.235 115.238,764.255 120.364,754.64C122.042,751.6 123.001,748.05 123.031,744.368C123.061,742.895 122.937,741.402 122.671,739.908L130.259,743.002L109.508,788L91.036,788L91.035,788L91.035,759.183L91.036,759.184Z" style="fill:rgb(229,229,229);fill-rule:nonzero;"/>
        </g>
        <g transform="matrix(4.16667,0,0,4.16667,0,-2358.78)">
            <path d="M109.921,734.707L109.921,707.726L91.041,707.726L91.036,707.726L91.035,707.726L72.156,707.726L72.156,734.707L67.48,736.615C72.186,744.62 80.564,750.196 90.312,751.005C90.553,751.011 90.792,751.03 91.035,751.03L91.035,751.059L91.036,751.059L91.038,751.058L91.041,751.059L91.041,751.03C91.285,751.03 91.523,751.011 91.765,751.005C101.512,750.196 109.891,744.62 114.597,736.615L109.921,734.707Z" style="fill:rgb(226,193,155);fill-rule:nonzero;"/>
        </g>
        <g transform="matrix(4.16667,0,0,4.16667,0,-2358.78)">
            <path d="M32.06,751.521C31.94,751.615 31.821,751.708 31.702,751.808C31.525,751.958 31.352,752.114 31.18,752.274C31.027,752.416 30.877,752.558 30.73,752.707C30.558,752.881 30.393,753.061 30.228,753.244C30.09,753.398 29.954,753.547 29.822,753.705C29.658,753.902 29.505,754.104 29.352,754.306C29.234,754.462 29.114,754.616 29.003,754.776C28.85,754.994 28.713,755.216 28.575,755.439C28.482,755.589 28.383,755.738 28.297,755.888C28.155,756.14 28.035,756.39 27.915,756.643C27.855,756.768 27.784,756.893 27.73,757.017C27.568,757.393 27.43,757.766 27.327,758.132L19.146,782.492C18.293,785.521 20.169,788 23.316,788L42.712,788C42.554,783.439 41.98,772.997 39.914,763.568C37.883,754.294 33.954,752.058 32.06,751.521Z" style="fill:rgb(243,243,244);fill-rule:nonzero;"/>
        </g>
        <g transform="matrix(4.16667,0,0,4.16667,0,-2358.78)">
            <path d="M34.079,750.238C33.868,750.335 33.656,750.467 33.444,750.587L33.427,750.576L33.214,750.713C33.047,750.815 32.883,750.922 32.717,751.036C32.538,751.158 32.361,751.286 32.184,751.421L32.06,751.521C33.954,752.058 37.883,754.294 39.914,763.568C41.98,772.997 42.554,783.439 42.712,788L72.568,788L51.817,743.002L34.079,750.238Z" style="fill:rgb(141,201,170);fill-rule:nonzero;"/>
        </g>
        <g transform="matrix(4.16667,0,0,4.16667,0,-2358.78)">
            <path d="M152.512,747.501C152.668,747.586 152.825,747.676 152.982,747.766C152.825,747.676 152.668,747.586 152.512,747.501Z" style="fill:rgb(83,138,200);fill-rule:nonzero;"/>
        </g>
        <g transform="matrix(4.16667,0,0,4.16667,0,-2358.78)">
            <path d="M152.508,747.498L152.512,747.501L152.508,747.498Z" style="fill:rgb(74,125,191);fill-rule:nonzero;"/>
        </g>
        <g transform="matrix(4.16667,0,0,4.16667,0,-2358.78)">
            <path d="M54.259,669.328C54.343,667.308 55.487,665.566 57.148,664.636L57.148,663.915L57.148,662.841L57.165,662.825L62.805,662.825L68.444,657.185L68.444,662.841L74.101,657.185L74.101,662.841L79.757,657.185L79.757,662.825L85.397,662.825L85.397,662.841L85.413,662.825L91.053,662.825L91.053,662.841L91.069,662.825L102.349,662.825L102.349,662.841L102.366,662.825L108.006,662.825L108.006,662.841L108.022,662.825L119.302,662.825L119.302,662.841L119.318,662.825L124.934,662.825L124.934,664.636C126.596,665.566 127.74,667.308 127.823,669.328L127.834,669.565L127.834,674.605C129.765,669.929 130.835,664.809 130.835,659.436C130.835,637.458 113.019,619.642 91.041,619.642C84.994,619.642 79.266,620.997 74.133,623.411C73.345,619.166 68.913,603.414 46.521,603.414C20.646,603.414 2.021,633.726 17.771,672.976C33.521,712.226 31.021,714.976 31.021,714.976L31.146,714.976C31.146,714.976 59.021,700.226 43.136,662.841C29.854,631.582 56.82,616.626 68.992,626.31C58.296,633.444 51.247,645.615 51.247,659.436C51.247,664.809 52.318,669.929 54.248,674.605L54.248,669.565L54.259,669.328Z" style="fill:rgb(122,86,73);fill-rule:nonzero;"/>
        </g>
        <g transform="matrix(4.16667,0,0,4.16667,0,-2358.78)">
            <path d="M127.834,669.565L127.823,669.328C127.74,667.308 126.596,665.566 124.934,664.636L124.934,663.915L124.934,662.825L119.318,662.825L119.302,662.841L119.302,662.825L108.022,662.825L108.006,662.841L108.006,662.825L102.366,662.825L102.349,662.841L102.349,662.825L91.069,662.825L91.053,662.841L91.053,662.825L85.413,662.825L85.397,662.841L85.397,662.825L79.757,662.825L79.757,657.185L74.101,662.841L74.101,657.185L68.444,662.841L68.444,657.185L62.805,662.825L57.165,662.825L57.148,663.915L57.148,664.636C55.487,665.566 54.343,667.308 54.259,669.328L54.248,669.565L54.248,680.862C54.248,683.952 56.73,686.458 59.808,686.506C62.941,706.434 75.731,721.358 91.041,721.358L91.042,721.358C106.352,721.358 119.142,706.434 122.274,686.506C125.353,686.458 127.834,683.952 127.834,680.862L127.834,674.605L127.834,669.565Z" style="fill:rgb(248,206,158);fill-rule:nonzero;"/>
        </g>
        <g transform="matrix(4.16667,0,0,4.16667,0,-2358.78)">
            <path d="M61.712,754.64C66.839,764.255 78.655,769.235 91.041,759.184L91.041,751.059L91.036,751.058C90.793,751.044 90.552,751.025 90.312,751.005C80.564,750.196 72.186,744.62 67.48,736.615C67.399,736.479 67.311,736.348 67.233,736.21C66.841,735.518 66.468,734.815 66.132,734.089L60.153,736.814C59.876,737.661 59.668,738.513 59.495,739.366C59.459,739.546 59.438,739.727 59.406,739.908C59.14,741.402 59.016,742.895 59.045,744.368C59.12,748.04 60.078,751.574 61.712,754.64Z" style="fill:rgb(229,229,229);fill-rule:nonzero;"/>
        </g>
        <g transform="matrix(4.16667,0,0,4.16667,0,-2358.78)">
            <path d="M91.041,759.184C78.655,769.235 66.839,764.255 61.712,754.64C60.035,751.6 59.076,748.05 59.045,744.368C59.016,742.895 59.14,741.402 59.406,739.908L51.817,743.002L72.568,788L91.041,788L91.041,759.183L91.041,759.184Z" style="fill:rgb(243,243,244);fill-rule:nonzero;"/>
        </g>
    </g>
</svg>
