<?xml version="1.0" encoding="UTF-8" standalone="no"?>
<!DOCTYPE svg PUBLIC "-//W3C//DTD SVG 1.1//EN" "http://www.w3.org/Graphics/SVG/1.1/DTD/svg11.dtd">
<svg width="100%" height="100%" viewBox="0 0 7938 4963" version="1.1" xmlns="http://www.w3.org/2000/svg" xmlns:xlink="http://www.w3.org/1999/xlink" xml:space="preserve" style="fill-rule:evenodd;clip-rule:evenodd;stroke-linejoin:round;stroke-miterlimit:1.41421;">
    <g transform="matrix(4.16667,0,0,4.16667,76,24)">
        <path d="M445.54,849.209C385.453,859.488 325.324,871.412 265.223,884.984C265.271,891.127 265.32,897.269 265.368,903.411C308.916,919.17 352.617,935.172 396.485,951.424C459.763,935.98 523.025,922.443 586.18,910.81C586.427,904.879 586.673,898.949 586.918,893.021C539.648,878.004 492.524,863.402 445.54,849.209Z" style="fill:rgb(61,64,66);fill-rule:nonzero;"/>
        <path d="M396.485,951.424C352.617,935.172 308.916,919.17 265.368,903.411C265.32,897.269 265.271,891.127 265.223,884.984C308.909,900.193 352.742,915.666 396.735,931.409C396.651,938.081 396.568,944.752 396.485,951.424Z" style="fill:rgb(20,20,20);fill-rule:nonzero;"/>
        <path d="M586.918,893.021C586.673,898.949 586.427,904.879 586.18,910.81C523.025,922.443 459.763,935.98 396.485,951.424C396.568,944.752 396.651,938.081 396.735,931.409C460.178,916.715 523.603,903.922 586.918,893.021Z" style="fill:rgb(51,53,55);fill-rule:nonzero;"/>
        <path d="M436.033,662.907C411.199,664.468 386.355,666.286 361.505,668.362C368.661,744.025 375.894,819.404 383.207,894.498C386.895,895.226 390.587,895.955 394.278,896.689C415.381,892.769 436.486,889.051 457.585,885.532C450.32,811.594 443.137,737.385 436.033,662.907Z" style="fill:rgb(51,53,55);fill-rule:nonzero;"/>
        <path d="M394.278,896.689C390.587,895.955 386.895,895.226 383.207,894.498C375.894,819.404 368.661,744.025 361.505,668.362C365.088,668.072 368.671,667.788 372.255,667.509C379.515,744.193 386.855,820.587 394.278,896.689Z" style="fill:rgb(25,25,26);fill-rule:nonzero;"/>
        <path d="M634.088,430.952C444.074,416.332 252.202,416.245 60.201,430.827C58.103,434.248 56.005,437.675 53.907,441.106C66.008,573.188 78.251,704.359 90.655,834.624C93.172,834.721 95.691,834.819 98.21,834.919C294.584,790.376 491.797,762.852 687.511,752.243C669.354,646.04 651.555,538.944 634.088,430.952Z" style="fill:rgb(56,59,60);fill-rule:nonzero;"/>
        <path d="M98.21,834.919C95.691,834.819 93.172,834.721 90.655,834.624C78.251,704.359 66.008,573.188 53.907,441.106C56.005,437.675 58.103,434.248 60.201,430.827C72.711,566.487 85.374,701.185 98.21,834.919Z" style="fill:rgb(20,20,20);fill-rule:nonzero;"/>
        <path d="M119.72,806.598C112.544,691.742 105.457,576.398 98.45,460.565C215.408,449.365 332.297,443.782 448.674,443.782C505.683,443.782 562.56,445.121 619.279,447.796C539.473,442.634 459.328,440.048 379.027,440.048C281.368,440.048 183.463,443.87 85.495,451.535C183.463,443.87 281.368,440.048 379.027,440.048C459.328,440.048 539.473,442.634 619.279,447.796C634.659,544.152 650.298,639.8 666.214,734.744C650.298,639.8 634.659,544.152 619.279,447.796C631.516,541.732 643.953,635.121 656.596,727.964C478.319,739.92 298.754,766.099 119.72,806.598Z" style="fill:url(#_Linear1);"/>
        <path d="M119.72,806.598C108.175,689 96.771,570.646 85.495,451.535C183.463,443.87 281.368,440.048 379.027,440.048C459.328,440.048 539.473,442.634 619.279,447.796C562.56,445.121 505.683,443.782 448.674,443.782C332.297,443.782 215.408,449.365 98.45,460.565C105.457,576.398 112.544,691.742 119.72,806.598Z" style="fill:url(#_Linear2);"/>
        <path d="M447.729,784.543C447.65,783.724 447.57,782.9 447.491,782.08C447.57,782.901 447.65,783.722 447.729,784.543Z" style="fill:url(#_Radial3);"/>
        <path d="M384.247,793.141C384.201,792.669 384.156,792.197 384.11,791.726C383.807,788.57 383.503,785.415 383.2,782.259C404.359,779.233 425.535,776.401 446.685,773.768C446.954,776.539 447.222,779.31 447.491,782.08C447.57,782.9 447.65,783.724 447.729,784.543C426.574,787.212 405.412,790.078 384.247,793.141Z" style="fill:rgb(40,41,42);fill-rule:nonzero;"/>
        <path d="M384.11,791.726C383.806,788.571 383.503,785.416 383.2,782.259C383.503,785.415 383.807,788.57 384.11,791.726Z" style="fill:rgb(15,15,16);fill-rule:nonzero;"/>
        <path d="M383.2,782.259C383.2,782.258 383.2,782.258 383.199,782.258C404.366,779.231 425.528,776.4 446.684,773.768L446.685,773.768C425.535,776.401 404.359,779.233 383.2,782.259Z" style="fill:rgb(44,46,47);fill-rule:nonzero;"/>
        <path d="M426.646,762.524C423.96,763.226 422.304,765.789 422.946,768.251C423.589,770.717 426.289,772.143 428.975,771.442C431.663,770.74 433.319,768.175 432.675,765.712C432.033,763.25 429.333,761.821 426.646,762.524Z" style="fill:black;"/>
        <path d="M119.72,806.598C298.754,766.099 478.319,739.92 656.596,727.964C643.953,635.121 631.516,541.732 619.279,447.796C634.659,544.152 650.298,639.8 666.214,734.744C484.683,744.196 301.904,768.118 119.72,806.598Z" style="fill:url(#_Linear4);"/>
        <path d="M1470.35,849.209C1530.43,859.488 1590.56,871.412 1650.67,884.984C1650.62,891.127 1650.57,897.269 1650.52,903.411C1606.97,919.17 1563.27,935.172 1519.4,951.424C1456.12,935.98 1392.86,922.443 1329.71,910.81C1329.46,904.879 1329.21,898.949 1328.97,893.021C1376.24,878.004 1423.36,863.402 1470.35,849.209Z" style="fill:rgb(61,64,66);fill-rule:nonzero;"/>
        <path d="M521.133,745.364C515.972,716.399 513.013,701.593 506.729,666.242L265.361,672.596L281.126,776.342C361.17,763.22 441.224,752.896 521.133,745.364Z" style="fill:rgb(227,243,239);"/>
        <path d="M1519.4,951.424C1563.27,935.172 1606.97,919.17 1650.52,903.411C1650.57,897.269 1650.62,891.127 1650.67,884.984C1606.98,900.193 1563.15,915.666 1519.15,931.409C1519.24,938.081 1519.32,944.752 1519.4,951.424Z" style="fill:rgb(20,20,20);fill-rule:nonzero;"/>
        <path d="M1328.97,893.021C1329.21,898.949 1329.46,904.879 1329.71,910.81C1392.86,922.443 1456.12,935.98 1519.4,951.424C1519.32,944.752 1519.24,938.081 1519.15,931.409C1455.71,916.715 1392.29,903.922 1328.97,893.021Z" style="fill:rgb(51,53,55);fill-rule:nonzero;"/>
        <path d="M1479.85,662.907C1504.69,664.468 1529.53,666.286 1554.38,668.362C1547.23,744.025 1539.99,819.404 1532.68,894.498C1528.99,895.226 1525.3,895.955 1521.61,896.689C1500.51,892.769 1479.4,889.051 1458.3,885.532C1465.57,811.594 1472.75,737.385 1479.85,662.907Z" style="fill:rgb(51,53,55);fill-rule:nonzero;"/>
        <path d="M1521.61,896.689C1525.3,895.955 1528.99,895.226 1532.68,894.498C1539.99,819.404 1547.23,744.025 1554.38,668.362C1550.8,668.072 1547.22,667.788 1543.63,667.509C1536.37,744.193 1529.03,820.587 1521.61,896.689Z" style="fill:rgb(25,25,26);fill-rule:nonzero;"/>
        <path d="M1281.8,430.952C1471.81,416.332 1663.69,416.245 1855.69,430.827C1857.78,434.248 1859.88,437.675 1861.98,441.106C1849.88,573.188 1837.64,704.359 1825.23,834.624C1822.71,834.721 1820.2,834.819 1817.68,834.919C1621.3,790.376 1424.09,762.852 1228.38,752.243C1246.53,646.04 1264.33,538.944 1281.8,430.952Z" style="fill:rgb(56,59,60);fill-rule:nonzero;"/>
        <path d="M1817.68,834.919C1820.2,834.819 1822.71,834.721 1825.23,834.624C1837.64,704.359 1849.88,573.188 1861.98,441.106C1859.88,437.675 1857.78,434.248 1855.69,430.827C1843.18,566.487 1830.51,701.185 1817.68,834.919Z" style="fill:rgb(20,20,20);fill-rule:nonzero;"/>
        <path d="M1796.17,806.598C1724.93,790.484 1653.61,776.637 1582.32,765.051L1577.31,733.416L1608.41,659.173C1640.65,610.101 1666.73,542.319 1674.09,479.034C1675.31,477.201 1676.49,475.376 1677.62,473.56C1688.84,482.838 1700.38,506.044 1686.53,522.314C1685.58,523.423 1683.84,523.969 1682.02,523.969C1678.48,523.969 1674.66,521.917 1675.82,517.926C1676.42,514.13 1681.31,510.597 1684.21,510.597C1685.64,510.597 1686.58,511.461 1686.28,513.583C1687.01,510.76 1685.93,509.605 1684.12,509.605C1680.7,509.605 1674.68,513.736 1673.44,518.523C1671.26,525.324 1676.84,529.135 1681.86,529.134C1683.29,529.134 1684.68,528.822 1685.83,528.179C1710.14,514.576 1700.81,477.277 1685.03,460.633C1686.8,457.247 1688.41,453.899 1689.88,450.572C1732.37,453.161 1774.91,456.492 1817.44,460.565C1810.43,576.398 1803.34,691.742 1796.17,806.598ZM1632.8,693.616L1600.53,715.537L1603.82,726.31L1641.61,699.825L1634.86,692.213L1632.79,693.615L1632.8,693.616ZM1438.87,744.777C1378.91,737.574 1319.03,731.97 1259.29,727.964C1271.93,635.121 1284.37,541.732 1296.61,447.796C1281.23,544.152 1265.59,639.8 1249.67,734.744C1265.59,639.8 1281.23,544.152 1296.61,447.796C1315.69,446.562 1334.79,445.475 1353.91,444.535C1334.79,445.475 1315.69,446.562 1296.61,447.796C1316.36,446.865 1336.13,446.095 1355.92,445.488C1357.68,446.177 1359.45,446.517 1361.2,446.517C1362.86,446.517 1364.49,446.207 1366.04,445.594C1365.21,507.245 1395.7,585.564 1421.75,647.934L1380.21,640.529L1380.99,636.574L1371.34,633.356L1361.81,678.506L1373.01,677.303L1379.63,643.533L1422.25,649.658L1443.5,724.224L1438.87,744.777Z" style="fill:url(#_Linear5);"/>
        <path d="M1796.17,806.598C1803.34,691.742 1810.43,576.398 1817.44,460.565C1774.91,456.492 1732.37,453.161 1689.88,450.572C1690.96,448.133 1691.96,445.703 1692.89,443.296C1738.7,445.202 1784.54,447.948 1830.39,451.535C1819.12,570.646 1807.71,689 1796.17,806.598ZM1296.61,447.796C1315.69,446.562 1334.79,445.475 1353.91,444.535C1354.58,444.905 1355.25,445.222 1355.92,445.488C1336.13,446.095 1316.36,446.865 1296.61,447.796Z" style="fill:url(#_Linear6);"/>
        <path d="M1468.16,784.543C1468.49,781.123 1468.82,777.705 1469.15,774.284C1468.82,777.704 1468.49,781.125 1468.16,784.543Z" style="fill:url(#_Radial7);"/>
        <path d="M1531.64,793.141C1510.48,790.078 1489.31,787.212 1468.16,784.543C1468.49,781.125 1468.82,777.704 1469.15,774.284C1469.17,774.112 1469.19,773.94 1469.2,773.768C1490.35,776.401 1511.53,779.233 1532.69,782.258C1532.34,785.886 1531.99,789.514 1531.64,793.14" style="fill:rgb(40,41,42);fill-rule:nonzero;"/>
        <path d="M1531.64,793.141C1531.99,789.514 1532.34,785.886 1532.69,782.258L1532.69,782.259C1532.34,785.888 1531.99,789.515 1531.64,793.141Z" style="fill:rgb(15,15,16);fill-rule:nonzero;"/>
        <path d="M1532.69,782.259L1532.69,782.258C1511.53,779.233 1490.35,776.401 1469.2,773.768C1490.36,776.4 1511.52,779.231 1532.69,782.258L1532.69,782.259Z" style="fill:rgb(44,46,47);fill-rule:nonzero;"/>
        <path d="M1489.24,762.524C1491.93,763.226 1493.58,765.789 1492.94,768.251C1492.3,770.717 1489.6,772.143 1486.91,771.442C1484.23,770.74 1482.57,768.175 1483.21,765.712C1483.85,763.25 1486.55,761.821 1489.24,762.524Z" style="fill:black;"/>
        <path d="M1796.17,806.598C1725.1,791.588 1653.96,778.795 1582.82,768.21L1582.32,765.051C1653.61,776.637 1724.93,790.484 1796.17,806.598Z" style="fill:url(#_Linear8);"/>
        <path d="M1437.77,749.68C1374.97,742.979 1312.25,738.002 1249.67,734.744C1265.59,639.8 1281.23,544.152 1296.61,447.796C1284.37,541.732 1271.93,635.121 1259.29,727.964C1319.03,731.97 1378.91,737.574 1438.87,744.777L1437.77,749.68Z" style="fill:url(#_Linear9);"/>
        <path d="M612.455,783.645C603.388,782.973 595.389,785.659 589.482,791.681C578.365,803.013 578.037,822.903 588.664,841.177C599.295,859.453 617.015,870.124 637.29,870.512C651.12,870.76 664.329,866.172 675.142,857.73C666.132,831.016 656.81,803.396 633.657,790.519C626.291,786.422 619.086,784.132 612.455,783.645ZM831.25,835.054C819.808,834.209 811.995,839.188 808.009,849.877C800.559,869.856 807.725,904.165 818.486,928.631C822.865,926.184 827.079,923.352 831.076,920.131C843.308,910.269 857.677,873.192 851.378,851.137C848.698,841.747 842.535,836.397 833.062,835.234C832.448,835.158 831.843,835.099 831.25,835.054ZM889.958,977.183C869.634,975.681 849.817,969.324 834.256,958.868C828.366,954.91 822.066,946.095 816.494,934.474C800.844,942.326 783.162,945.839 765.114,944.505L764.856,944.486C739.384,942.539 716.666,931.104 700.888,912.287C689.474,898.674 682.76,880.208 676.562,861.931C665.224,870.389 651.534,874.966 637.215,874.707C615.439,874.321 596.424,862.863 585.038,843.284C573.448,823.36 574.03,801.441 586.487,788.742C598.116,776.889 616.512,776.182 635.696,786.853C659.802,800.262 669.485,827.854 678.594,854.833C682.965,850.89 686.869,846.265 690.166,841.04C707.657,813.313 705.953,771.096 685.716,730.866C664.356,688.4 628.283,659.268 593.816,656.649L594.135,652.464C630.037,655.194 667.457,685.228 689.464,728.98C699.291,748.514 705.101,769.04 706.266,788.336C707.529,809.262 703.189,828.261 693.715,843.277C689.872,849.369 685.253,854.692 680.048,859.145C686.261,877.52 692.882,896.21 704.103,909.591C730.611,941.202 777.749,949.067 814.72,930.622C812.003,924.485 809.503,917.693 807.364,910.509C799.901,885.454 798.705,862.818 804.077,848.412C808.969,835.296 819.178,829.308 833.573,831.069C844.718,832.438 852.271,838.979 855.413,849.983C862.326,874.191 846.775,912.862 833.71,923.396C829.46,926.821 824.957,929.857 820.25,932.485C825.418,943.34 831.238,951.786 836.596,955.387C875.521,981.543 942.015,981.158 972.731,941.487C995.573,911.987 975.453,881.521 955.994,852.059C946.589,837.818 937.707,824.37 933.682,811.237C926.724,788.549 933.583,761.887 951.157,743.315C966.48,727.124 986.93,720.72 1007.25,725.744C1038.66,733.509 1057.01,766.757 1073.21,796.093C1078.82,806.261 1084.12,815.865 1089.63,823.823C1102.38,842.26 1120.47,859.942 1138.02,871.123C1154.08,881.354 1177.8,891.216 1199.64,880.089C1218.53,870.467 1230,856.768 1233.74,839.372C1238.69,816.323 1229.17,787.014 1208.27,760.971C1174.04,718.321 1147.5,671.516 1184.77,618.273C1209.49,582.976 1246.83,567.205 1282.95,551.951C1300.12,544.702 1317.87,537.206 1334.19,527.683L1336.31,531.307C1319.75,540.966 1301.87,548.515 1284.58,555.818C1247.38,571.529 1212.23,586.372 1188.21,620.68C1152.53,671.657 1178.33,716.971 1211.54,758.344C1233.23,785.362 1243.06,815.983 1237.84,840.252C1233.83,858.943 1221.62,873.602 1201.55,883.827C1192.88,888.242 1183.79,889.759 1174.62,889.081C1140.42,886.555 1105.05,853.492 1086.18,826.208C1080.55,818.078 1075.2,808.384 1069.54,798.119C1053.76,769.537 1035.87,737.141 1006.25,729.818C987.427,725.164 968.46,731.137 954.206,746.199C937.905,763.423 931.27,789.065 937.692,810.009C941.542,822.562 950.262,835.766 959.494,849.744C978.823,879.012 1000.73,912.183 976.049,944.056C956.298,969.563 922.479,979.584 889.958,977.183Z" style="fill:rgb(130,132,137);fill-rule:nonzero;"/>
        <path d="M1582.82,768.221L1577.31,733.416L1443.5,724.224L1437.77,749.681C1486.09,754.838 1534.45,761.023 1582.82,768.221Z" style="fill:rgb(26,53,66);"/>
        <path d="M547.723,727.169L507.4,674.752L480.813,692.486L543.791,747.233L598.69,688.489L575.903,662.899L547.723,727.169Z" style="fill:rgb(227,243,239);"/>
        <path d="M292.003,774.578L303.229,681.544L303.272,681.541C302.909,681.472 302.547,681.41 302.184,681.339C300.746,681.062 299.307,680.778 297.867,680.486C296.884,680.288 295.9,680.082 294.917,679.876C293.146,679.503 291.376,679.122 289.604,678.727C288.859,678.561 288.114,678.389 287.369,678.217C285.615,677.817 283.857,677.403 282.102,676.979C281.503,676.835 280.905,676.693 280.307,676.545C278.139,676.012 275.969,675.461 273.797,674.892C273.293,674.759 272.79,674.624 272.285,674.488C269.979,673.877 267.671,673.25 265.361,672.596L281.126,776.342C284.752,775.748 288.377,775.16 292.003,774.578Z" style="fill:rgb(255,254,242);"/>
        <path d="M411.307,700.958L420.765,674.858L384.759,681.261L406.887,707.556L415.044,787.198L447.374,806.469L461.14,779.002L411.307,700.958Z" style="fill:rgb(157,41,32);"/>
        <path d="M302.537,738.032L317.882,673.703L287.366,664.209L284.47,747.608L364.672,753.285L370.213,719.473L302.537,738.032Z" style="fill:rgb(227,243,239);"/>
        <path d="M287.443,745.396L286.347,693.534L284.47,747.608L333.999,751.112L287.443,745.396Z" style="fill:rgb(255,254,242);"/>
        <path d="M312.111,697.896L299.063,741.044L349.232,725.226L302.537,738.032L312.111,697.896Z" style="fill:rgb(204,218,217);"/>
        <path d="M564.703,688.444L547.723,727.169L527.127,700.395L548.006,729.773L564.703,688.444Z" style="fill:rgb(255,254,242);"/>
        <path d="M474.322,337.365L495.322,337.551L529.052,366.92L524.198,421.097L474.322,337.365Z" style="fill:rgb(109,76,53);"/>
        <path d="M539.05,444.309C536.488,438.481 531.884,435.371 526.831,435.254C515.953,365.488 478.164,312.318 382.041,311.462C281.46,310.565 246.183,366.734 240.186,445.996L240.183,445.991C231.954,438.46 221.583,440.366 217.028,450.246C212.471,460.125 215.454,474.246 223.685,481.777C228.73,486.394 234.578,487.447 239.397,485.308C241.009,543.151 253.35,609.059 265.361,672.596C348.604,696.172 428.844,692.971 507.4,674.752C516.836,617.868 531.871,543.521 530.341,476.911C530.845,476.543 531.344,476.147 531.835,475.713C540.198,468.332 543.427,454.269 539.05,444.309Z" style="fill:rgb(236,195,161);"/>
        <path d="M325.585,391.318L368.835,378.784L366.49,392.947L311.874,418.474L325.585,391.318Z" style="fill:rgb(109,76,53);"/>
        <path d="M463.016,393.467L420.976,377.333L422.118,391.645L474.389,421.686L463.016,393.467Z" style="fill:rgb(109,76,53);"/>
        <path d="M430.965,510.067C428.639,518.277 421.054,524.26 412.109,524.18C408.589,524.148 405.293,523.181 402.462,521.517C403.709,521.681 404.982,521.771 406.272,521.783C416.241,521.872 425.169,517.284 430.965,510.067Z" style="fill:rgb(202,157,134);"/>
        <path d="M430.965,510.067C430.965,510.067 424.27,516.168 416.555,518.897C408.856,521.621 402.462,521.517 402.462,521.517C403.709,521.681 404.982,521.771 406.272,521.783C416.241,521.872 425.169,517.284 430.965,510.067Z" style="fill:rgb(254,215,179);"/>
        <path d="M411.165,665.561C413.15,662.221 414.695,658.38 414.223,654.518C413.427,647.978 410.318,649.482 409.675,654.827C409.243,658.412 410.086,662.116 411.165,665.561ZM363.266,633.361C365.616,648.139 368.306,664.908 379.985,676.288C388.34,684.428 398.553,679.549 405.523,672.702C406.491,671.753 407.402,670.755 408.253,669.713C408.099,669.366 407.953,669.022 407.812,668.679C405.678,663.451 401.5,647.17 411.021,645.374C424.645,642.802 416.687,665.766 413.093,670.412C414.455,673.124 416.278,675.616 418.764,677.493C428.308,684.703 437.997,670.956 441.823,664.77C448.192,654.472 450.709,645.019 452.205,633.55C455.19,646.687 442.907,686.632 421.643,682.541C418.725,681.983 416.224,680.388 414.174,678.465C412.68,677.061 411.397,675.395 410.313,673.637C409.751,674.225 409.176,674.79 408.588,675.34C404.298,679.338 398.697,683.146 392.412,683.903C378.972,685.522 370.796,671.387 367.61,661.619C364.49,652.065 362.536,643.276 363.266,633.361Z" style="fill:rgb(190,148,126);"/>
        <path d="M490.088,305.822C496.438,295.128 499.087,280.969 496.738,262.139C416.5,328.621 264.406,197.576 251.921,375.116L236.296,391.735L240.183,445.991L289.028,360.914C377.399,320.287 511.787,397.504 553.295,298.168C535.78,306.119 513.862,307.268 490.088,305.822Z" style="fill:rgb(109,76,53);"/>
        <path d="M343.254,348.514C324.159,349.754 305.768,353.22 289.028,360.914L240.186,445.983L240.186,445.996L240.183,445.991C231.954,438.46 221.583,440.366 217.028,450.246C212.471,460.125 215.454,474.246 223.685,481.777C228.73,486.394 234.578,487.447 239.397,485.308C241.009,543.151 253.35,609.059 265.361,672.596C278.051,676.189 290.671,679.155 303.229,681.544C279.826,543.494 269.859,410.5 343.254,348.514Z" style="fill:rgb(254,215,179);"/>
        <path d="M244.447,468.314C242.217,458.521 230.562,453.15 224.744,464.07C224.873,463.682 225.019,463.302 225.177,462.922C227.832,456.701 234.822,453.575 240.201,458.634C234.653,450.959 223.574,447.847 217.807,457.645C228.464,437.579 246.38,456.834 244.447,468.314Z" style="fill:rgb(202,157,134);"/>
        <path d="M283.966,524.434C263.717,560.537 266.678,587.034 282.884,604.646C261.89,586.414 256.075,557.655 278.885,517.645L278.897,517.443C292.891,523.144 306.392,527.853 319.428,531.625C307.792,529.548 295.967,527.074 283.972,524.242L283.966,524.434Z" style="fill:rgb(202,157,134);fill-rule:nonzero;"/>
        <path d="M470.029,529.428C487.153,522.56 503.22,513.266 518.419,501.798C526.985,536.033 515.786,563.748 494.074,584.446C513.435,564.724 523.543,539.085 516.887,508.075C502.486,517.416 486.808,524.439 470.029,529.428Z" style="fill:rgb(202,157,134);fill-rule:nonzero;"/>
        <path d="M516.887,508.075C512.563,510.881 508.12,513.47 503.567,515.867C495.549,520.088 487.185,523.682 478.509,526.695L478.521,526.69C470.984,532.109 462.712,536.802 453.967,540.749L449.516,534.411C449.306,534.452 449.095,534.49 448.886,534.529L451.736,541.725C424.641,553.458 393.37,558.154 365.887,555.228L365.074,548.094L364.225,555.022C350.425,553.388 337.641,549.817 326.888,544.225L330.507,535.234L324.871,543.166C318.124,539.407 312.253,534.81 307.516,529.366C299.744,527.816 291.897,526.112 283.972,524.242L283.966,524.434C261.885,563.798 267.41,591.739 287.604,609.195L287.603,609.194C294.853,606.133 302.279,603.585 309.797,601.558L315.678,611.027L312.317,600.9C359.248,588.984 409.162,596.598 439.499,618.074C452.398,613.27 464.554,607.207 475.293,599.936L475.3,599.945C506.254,578.981 525.452,547.981 516.887,508.075Z" style="fill:rgb(109,39,17);fill-rule:nonzero;"/>
        <path d="M417.308,552.453C399.942,555.989 382.246,556.97 365.887,555.228L365.074,548.094L364.225,555.022C351.697,553.539 340.011,550.454 329.917,545.714C319.1,557.034 311.153,572.008 308.368,588.482C307.57,593.201 307.237,597.808 307.333,602.245C308.154,602.011 308.975,601.779 309.797,601.558L315.678,611.027L312.317,600.9C348.832,591.629 387.152,594.185 416.651,605.891C418.734,600.672 420.307,595.193 421.265,589.534C423.591,575.767 421.967,562.984 417.308,552.453Z" style="fill:rgb(77,6,0);fill-rule:nonzero;"/>
        <path d="M419.497,565.42C413.626,564.142 407.357,563.315 401.002,562.896C411.3,567.25 420.166,572.704 426.095,578.924C413.613,571.184 396.956,564.101 380.69,562.893C358.667,561.26 331.142,589.2 328.629,597.279C324.586,610.283 361.037,604.737 393.137,611.729C425.236,618.719 449.848,611.258 453.894,598.256C457.937,585.252 451.593,572.412 419.497,565.42Z" style="fill:rgb(185,126,122);fill-rule:nonzero;"/>
        <path d="M312.317,600.9L315.678,611.027L309.797,601.558C302.279,603.585 294.853,606.133 287.603,609.194C292.377,613.322 297.971,616.867 304.217,619.834L304.219,619.816C338.992,636.343 393.906,635.061 439.499,618.074C409.162,596.598 359.248,588.984 312.317,600.9Z" style="fill:rgb(235,242,245);fill-rule:nonzero;"/>
        <path d="M312.237,530.296C310.668,529.997 309.091,529.679 307.516,529.366C312.253,534.81 318.124,539.407 324.871,543.166L330.507,535.234L326.888,544.225C337.641,549.817 350.425,553.388 364.225,555.022L365.074,548.094L365.887,555.228C393.37,558.154 424.641,553.458 451.736,541.725L448.886,534.529C408.11,542.303 361.847,539.788 312.237,530.296Z" style="fill:rgb(235,242,245);fill-rule:nonzero;"/>
        <path d="M449.516,534.411L453.967,540.749C462.712,536.802 470.984,532.109 478.521,526.69C469.207,529.924 459.525,532.476 449.516,534.411Z" style="fill:rgb(235,242,245);fill-rule:nonzero;"/>
        <path d="M358.7,761.622L361.081,716.903L391.883,699.595L396.312,788.002L358.7,761.622Z" style="fill:rgb(236,195,161);"/>
        <path d="M363.314,756.091L360.307,731.402L358.7,761.622L396.312,788.002L395.857,778.917L363.314,756.091Z" style="fill:rgb(254,215,179);"/>
        <path d="M362.355,722.497L363.268,705.879L375.955,692.915L378.4,717.141L362.355,722.497Z" style="fill:rgb(236,195,161);"/>
        <path d="M591.2,698.373L554.797,684.922L548.379,654.981L622.696,674.016L591.2,698.373Z" style="fill:rgb(236,195,161);"/>
        <path d="M587.808,693.134L566.599,689.284L591.2,698.373L622.696,674.016L615.056,672.058L587.808,693.134Z" style="fill:rgb(254,215,179);"/>
        <path d="M559.756,685.304L546.234,680.28L538.759,666.45L559.442,670.646L559.756,685.304Z" style="fill:rgb(236,195,161);"/>
        <path d="M353.849,415.391C381.809,414.504 401.992,436.564 398.918,464.651C395.845,492.741 370.676,516.237 342.714,517.123C314.752,518.008 294.568,495.949 297.641,467.86C300.715,439.771 325.883,416.276 353.849,415.391Z" style="fill:rgb(235,242,245);"/>
        <path d="M351.777,508.23C323.813,509.115 303.63,487.056 306.705,458.968C307.948,447.597 312.815,436.983 320.018,428.311C307.929,437.996 299.352,452.211 297.641,467.86C294.568,495.949 314.752,518.008 342.714,517.123C359.358,516.596 375.01,508.055 385.605,495.306C375.994,503.004 364.161,507.837 351.777,508.23Z" style="fill:rgb(211,217,221);"/>
        <path d="M378.522,495.444C370.319,495.705 364.397,489.233 365.297,480.99C366.199,472.749 373.584,465.856 381.789,465.597C388.347,465.389 393.434,469.487 394.757,475.347L394.779,475.177C396.161,462.553 387.088,452.638 374.521,453.036C361.953,453.435 350.64,463.995 349.258,476.619C347.876,489.246 356.948,499.159 369.518,498.762C373.917,498.621 378.159,497.236 381.877,494.954C380.784,495.231 379.662,495.408 378.522,495.444Z" style="fill:rgb(140,161,175);"/>
        <path d="M457.68,435.779C438.62,436.383 425.845,452.26 429.146,471.231C432.446,490.205 450.582,505.099 469.641,504.496C488.697,503.892 501.476,488.017 498.173,469.045C494.871,450.072 476.738,435.176 457.68,435.779Z" style="fill:rgb(235,242,245);"/>
        <path d="M498.173,469.045C495.925,456.13 486.805,445.112 475.2,439.577C483.778,445.643 490.172,454.901 492.003,465.422C495.305,484.396 482.527,500.27 463.468,500.874C457.382,501.067 451.393,499.673 445.948,497.073C452.843,501.952 461.148,504.764 469.641,504.496C488.697,503.892 501.476,488.017 498.173,469.045Z" style="fill:rgb(211,217,221);"/>
        <path d="M480.924,489.568C477.221,489.685 473.697,486.789 473.057,483.103C472.413,479.415 474.898,476.332 478.601,476.215C482.302,476.097 485.828,478.99 486.469,482.678C486.52,482.976 486.543,483.267 486.557,483.553C486.734,482.504 486.744,481.387 486.542,480.226C485.559,474.577 480.161,470.143 474.485,470.323C468.813,470.502 465.008,475.228 465.992,480.878C466.977,486.525 472.373,490.959 478.047,490.779C480.029,490.716 481.773,490.091 483.175,489.074C482.496,489.363 481.743,489.542 480.924,489.568Z" style="fill:rgb(140,161,175);"/>
        <path d="M500.841,472.782C499.701,466.235 496.794,460.175 492.694,455.068C495.382,459.303 497.3,464.028 498.173,469.045C501.476,488.017 488.697,503.892 469.641,504.496C457.158,504.891 445.075,498.639 437.294,488.948C444.777,500.73 458.288,508.681 472.307,508.237C491.364,507.632 504.143,491.757 500.841,472.782Z" style="fill:rgb(213,175,144);"/>
        <path d="M398.918,464.651C395.845,492.741 370.676,516.237 342.714,517.123C314.752,518.008 294.568,495.949 297.641,467.86C299.367,452.088 308.061,437.764 320.303,428.077C306.088,438.223 295.839,454.148 293.904,471.807C290.678,501.312 311.878,524.483 341.251,523.553C370.623,522.623 397.059,497.941 400.288,468.438C401.399,458.279 399.615,448.872 395.597,440.942C398.603,447.948 399.864,456.013 398.918,464.651Z" style="fill:rgb(213,175,144);"/>
        <path d="M334.534,497.841C337.107,497.76 339.26,499.78 339.341,502.354C339.423,504.927 337.401,507.079 334.829,507.161C332.255,507.242 330.103,505.222 330.021,502.649C329.939,500.075 331.96,497.923 334.534,497.841ZM340.821,489.982C342.311,489.934 343.557,491.104 343.604,492.594C343.651,494.084 342.481,495.328 340.992,495.375C339.502,495.423 338.257,494.255 338.21,492.764C338.163,491.275 339.331,490.029 340.821,489.982Z" style="fill:white;"/>
        <path d="M456.511,497.018C457.608,496.984 458.529,497.847 458.563,498.944C458.599,500.044 457.734,500.964 456.637,500.998C455.538,501.033 454.619,500.17 454.584,499.071C454.55,497.973 455.411,497.053 456.511,497.018ZM459.197,493.663C459.831,493.643 460.364,494.142 460.384,494.778C460.404,495.414 459.904,495.945 459.27,495.965C458.632,495.985 458.101,495.487 458.081,494.851C458.061,494.214 458.56,493.684 459.197,493.663Z" style="fill:white;"/>
        <path d="M555.366,598.471L532.226,670.394L620.782,688.62L637.937,635.3L555.366,598.471Z" style="fill:rgb(137,163,178);"/>
        <path d="M627.085,638.715L566.427,616.108L568.621,597.544L637.146,626.359L627.085,638.715Z" style="fill:rgb(236,195,161);"/>
        <path d="M568.621,597.544L566.427,616.108L627.085,638.715L572.999,612.607L568.621,597.544Z" style="fill:rgb(254,215,179);"/>
        <path d="M543.687,741.381L516.589,720.309C516.827,721.598 517.065,722.897 517.306,724.21L543.791,747.233L598.69,688.489L543.687,741.381Z" style="fill:rgb(204,218,217);"/>
        <path d="M1634.14,743.062L1715.03,719.009L1724.42,746.94L1627.13,756.2L1598.11,686.203L1609.81,662.295L1634.14,743.062Z" style="fill:rgb(236,195,161);"/>
        <path d="M1715.03,719.009L1634.14,743.062L1609.81,662.295L1633.05,747.085L1715.03,719.009Z" style="fill:rgb(254,215,179);"/>
        <path d="M1724.42,746.94L1627.13,756.2L1598.11,686.203L1628.32,754.146L1724.42,746.94Z" style="fill:rgb(213,175,144);"/>
        <path d="M1605.43,723.317L1633.89,698.086L1608.41,659.173L1594.41,683.681L1605.43,723.317Z" style="fill:rgb(228,230,232);"/>
        <path d="M1603.82,726.31L1641.61,699.825L1634.86,692.213L1600.53,715.537L1603.82,726.31Z" style="fill:rgb(204,218,217);"/>
        <path d="M1632.8,693.616L1632.79,693.615L1634.86,692.213L1632.8,693.616Z" style="fill:url(#_Linear10);"/>
        <path d="M1639.57,701.254L1632.8,693.616L1634.86,692.213L1641.61,699.825L1639.57,701.254Z" style="fill:rgb(233,240,232);fill-rule:nonzero;"/>
        <path d="M1696.4,753.39L1691.83,717.421L1713.86,699.179L1730.17,768.965L1696.4,753.39Z" style="fill:rgb(236,195,161);"/>
        <path d="M1693.65,721.691L1691.98,708.324L1700.21,696.162L1705.66,715.107L1693.65,721.691Z" style="fill:rgb(236,195,161);"/>
        <path d="M1713.86,699.179L1691.83,717.421L1696.4,753.39L1697.31,718.516L1713.86,699.179Z" style="fill:rgb(254,215,179);"/>
        <path d="M1608.41,659.173L1421.75,647.934L1443.5,724.224C1505.15,739.053 1514.34,740.474 1577.31,733.416L1608.41,659.173Z" style="fill:rgb(228,230,232);"/>
        <path d="M1573.33,649.366L1462.12,642.671L1475.08,688.122C1511.81,696.955 1517.28,697.803 1554.8,693.6L1573.33,649.366Z" style="fill:rgb(236,195,161);"/>
        <path d="M1508.81,687.275L1508.25,695.083C1508.76,695.15 1509.27,695.215 1509.78,695.275L1508.81,687.275Z" style="fill:rgb(190,148,126);"/>
        <path d="M1538.43,270.604C1550.21,230.629 1599.18,209.844 1647.79,224.178C1696.41,238.512 1726.26,282.537 1714.48,322.511C1702.69,362.486 1653.73,383.271 1605.11,368.937C1556.5,354.602 1526.64,310.577 1538.43,270.604Z" style="fill:rgb(242,210,184);fill-rule:nonzero;"/>
        <path d="M1694.39,353.274L1694.39,353.273C1703,345.825 1709.62,336.517 1713.45,325.693C1709.62,336.518 1703,345.825 1694.39,353.274ZM1713.45,325.685C1713.48,325.602 1713.51,325.514 1713.54,325.43C1713.51,325.516 1713.48,325.6 1713.45,325.685ZM1713.55,325.399C1713.57,325.354 1713.58,325.305 1713.6,325.26C1713.58,325.306 1713.57,325.353 1713.55,325.399ZM1713.61,325.232C1713.64,325.149 1713.67,325.068 1713.69,324.984C1713.67,325.067 1713.64,325.149 1713.61,325.232ZM1713.7,324.952C1713.72,324.907 1713.73,324.865 1713.75,324.819C1713.73,324.864 1713.72,324.908 1713.7,324.952ZM1713.76,324.782C1713.77,324.758 1713.78,324.734 1713.79,324.71C1713.78,324.734 1713.77,324.757 1713.76,324.782ZM1713.8,324.656C1713.82,324.618 1713.83,324.585 1713.84,324.546C1713.83,324.583 1713.82,324.62 1713.8,324.656ZM1713.86,324.494C1713.87,324.472 1713.87,324.447 1713.88,324.425C1713.87,324.448 1713.87,324.471 1713.86,324.494ZM1713.91,324.328C1713.92,324.307 1713.93,324.287 1713.93,324.265C1713.93,324.287 1713.92,324.307 1713.91,324.328ZM1713.96,324.198C1713.96,324.169 1713.97,324.14 1713.98,324.111C1713.97,324.14 1713.96,324.169 1713.96,324.198ZM1714.01,324.038C1714.01,324.021 1714.02,324.001 1714.02,323.984C1714.02,324.001 1714.01,324.021 1714.01,324.038ZM1714.06,323.875C1714.06,323.861 1714.07,323.839 1714.08,323.825C1714.07,323.842 1714.06,323.858 1714.06,323.875ZM1714.1,323.742C1714.11,323.721 1714.12,323.7 1714.12,323.678C1714.12,323.7 1714.11,323.721 1714.1,323.742ZM1714.15,323.585C1714.16,323.571 1714.16,323.55 1714.17,323.535C1714.16,323.552 1714.16,323.568 1714.15,323.585ZM1714.2,323.422C1714.21,323.41 1714.21,323.395 1714.21,323.383C1714.21,323.397 1714.21,323.408 1714.2,323.422ZM1714.25,323.281C1714.25,323.271 1714.25,323.262 1714.26,323.252C1714.25,323.261 1714.25,323.271 1714.25,323.281ZM1714.29,323.13C1714.3,323.115 1714.3,323.105 1714.3,323.09C1714.3,323.102 1714.3,323.117 1714.29,323.13ZM1714.34,322.967C1714.34,322.958 1714.35,322.952 1714.35,322.942C1714.35,322.95 1714.34,322.96 1714.34,322.967ZM1714.38,322.832C1714.39,322.82 1714.39,322.811 1714.39,322.799C1714.39,322.811 1714.39,322.82 1714.38,322.832ZM1714.43,322.673C1714.43,322.664 1714.44,322.653 1714.44,322.643C1714.44,322.654 1714.43,322.662 1714.43,322.673ZM1647.79,224.178C1647.03,223.953 1646.26,223.736 1645.5,223.528C1646.26,223.736 1647.03,223.953 1647.79,224.178Z" style="fill:url(#_Radial11);"/>
        <path d="M1694.39,353.273C1693.77,351.507 1693.11,349.761 1692.42,348.017C1698.43,341.006 1702.99,332.837 1705.69,323.693C1717.71,282.92 1688.02,238.239 1639.37,223.895C1631.39,221.542 1623.39,220.157 1615.54,219.657C1615.97,219.652 1616.4,219.649 1616.84,219.649C1626.18,219.649 1635.84,220.898 1645.5,223.528C1646.26,223.736 1647.03,223.953 1647.79,224.178C1689.24,236.398 1717.05,270.199 1717.05,304.671C1717.05,310.633 1716.22,316.616 1714.48,322.511C1714.47,322.554 1714.45,322.6 1714.44,322.643C1714.44,322.653 1714.43,322.664 1714.43,322.673C1714.42,322.714 1714.41,322.758 1714.39,322.799C1714.39,322.811 1714.39,322.82 1714.38,322.832C1714.37,322.868 1714.36,322.906 1714.35,322.942C1714.35,322.952 1714.34,322.958 1714.34,322.967C1714.33,323.01 1714.32,323.048 1714.3,323.09C1714.3,323.105 1714.3,323.115 1714.29,323.13C1714.28,323.17 1714.27,323.211 1714.26,323.252C1714.25,323.262 1714.25,323.271 1714.25,323.281C1714.24,323.315 1714.23,323.348 1714.21,323.383C1714.21,323.395 1714.21,323.41 1714.2,323.422C1714.19,323.459 1714.18,323.498 1714.17,323.535C1714.16,323.55 1714.16,323.571 1714.15,323.585C1714.14,323.616 1714.13,323.647 1714.12,323.678C1714.12,323.7 1714.11,323.721 1714.1,323.742C1714.09,323.769 1714.08,323.799 1714.08,323.825C1714.07,323.839 1714.06,323.861 1714.06,323.875C1714.05,323.912 1714.04,323.947 1714.02,323.984C1714.02,324.001 1714.01,324.021 1714.01,324.038C1714,324.063 1713.99,324.086 1713.98,324.111C1713.97,324.14 1713.96,324.169 1713.96,324.198C1713.95,324.22 1713.94,324.244 1713.93,324.265C1713.93,324.287 1713.92,324.307 1713.91,324.328C1713.9,324.361 1713.89,324.393 1713.88,324.425C1713.87,324.447 1713.87,324.472 1713.86,324.494C1713.85,324.511 1713.85,324.529 1713.84,324.546C1713.83,324.585 1713.82,324.618 1713.8,324.656C1713.8,324.673 1713.79,324.693 1713.79,324.71C1713.78,324.734 1713.77,324.758 1713.76,324.782C1713.76,324.794 1713.75,324.807 1713.75,324.819C1713.73,324.865 1713.72,324.907 1713.7,324.952C1713.7,324.963 1713.7,324.973 1713.69,324.984C1713.67,325.068 1713.64,325.149 1713.61,325.232C1713.61,325.241 1713.6,325.251 1713.6,325.26C1713.58,325.305 1713.57,325.354 1713.55,325.399C1713.55,325.41 1713.54,325.42 1713.54,325.43C1713.51,325.514 1713.48,325.602 1713.45,325.685C1713.45,325.687 1713.45,325.692 1713.45,325.693C1709.62,336.517 1703,345.825 1694.39,353.273Z" style="fill:rgb(245,222,203);fill-rule:nonzero;"/>
        <path d="M1664.09,453.705C1687.36,442.42 1720.18,508.958 1685.83,528.179C1680.67,531.07 1670.64,527.271 1673.44,518.523C1675.33,511.204 1688.41,505.421 1686.28,513.583C1687.2,507.168 1676.72,512.253 1675.82,517.926C1674.06,523.977 1683.76,525.572 1686.53,522.314C1705.33,500.227 1677.35,465.36 1666.88,469.904C1666.66,465.752 1669.47,464.011 1669.25,459.861L1664.09,453.705Z" style="fill:rgb(242,210,184);fill-rule:nonzero;"/>
        <path d="M1396.37,430.69C1396.37,430.69 1382.49,421.395 1373.84,425.189C1374.2,438.663 1341.04,475.066 1318.03,451.996C1314.63,448.591 1316.96,438.457 1323.47,441.156C1329.62,442.886 1334.55,454.765 1327.59,452.909C1336.39,456.296 1330.85,441.548 1322.96,438.531C1313.56,434.364 1308.81,444.547 1311.66,450.451C1330.6,489.73 1407.3,457.067 1396.37,430.69Z" style="fill:rgb(242,210,184);fill-rule:nonzero;"/>
        <path d="M1686.83,415.098C1684.36,408.781 1679.59,405.271 1674.22,404.925C1665.7,330.178 1627.8,271.917 1525.51,266.788C1418.48,261.42 1378.46,319.668 1368.6,403.78L1368.6,403.776C1360.17,395.399 1349.05,396.97 1343.76,407.29C1338.47,417.608 1341.03,432.769 1349.46,441.147C1354.63,446.284 1360.81,447.662 1366.04,445.594C1365.21,507.245 1395.7,585.564 1421.75,647.934C1457.44,659.929 1487.3,667.151 1514.52,669.594C1547.65,672.566 1577.44,670.369 1608.41,659.173C1645.74,602.338 1674.83,520.4 1676.13,449.426C1676.68,449.054 1677.23,448.654 1677.77,448.216C1687,440.724 1691.05,425.896 1686.83,415.098Z" style="fill:rgb(236,195,161);"/>
        <path d="M1478.16,475.813C1479.38,481.342 1484.17,485.599 1490.1,485.896C1492.43,486.013 1494.65,485.5 1496.59,484.511C1495.76,484.57 1494.92,484.581 1494.06,484.539C1487.45,484.208 1481.72,480.819 1478.16,475.813Z" style="fill:rgb(202,157,134);"/>
        <path d="M1478.16,475.813C1478.16,475.813 1482.36,480.114 1487.36,482.224C1492.36,484.329 1496.59,484.511 1496.59,484.511C1495.76,484.57 1494.92,484.581 1494.06,484.539C1487.45,484.208 1481.72,480.819 1478.16,475.813Z" style="fill:rgb(254,215,179);"/>
        <path d="M1418.3,408.104C1411.66,405.706 1406.66,400.045 1405.13,393.134C1409.04,398.639 1414.59,402.922 1421.11,405.25C1423.92,402.641 1427.06,400.393 1430.42,398.582C1424.56,392.006 1423.6,382.541 1427.67,375.018C1426.94,382.684 1428.87,390.539 1433.41,397.105C1436.31,395.818 1439.35,394.854 1442.45,394.254L1442.4,394.046C1440.22,384.768 1444.66,375.482 1452.65,371.142C1447.65,377.424 1444.95,385.454 1445.42,393.805C1447.49,393.565 1449.58,393.482 1451.69,393.589C1471.83,394.598 1485.04,411.639 1481.18,431.645C1477.31,451.649 1457.84,467.051 1437.7,466.04C1417.55,465.03 1404.34,447.99 1408.21,427.987C1409.65,420.51 1413.27,413.68 1418.3,408.104Z" style="fill:rgb(125,127,118);"/>
        <path d="M1448.69,400.51C1468.84,401.52 1482.04,418.563 1478.18,438.568C1474.32,458.572 1454.84,473.973 1434.7,472.963C1414.55,471.952 1401.34,454.913 1405.2,434.909C1409.07,414.904 1428.54,399.5 1448.69,400.51Z" style="fill:rgb(235,242,245);"/>
        <path d="M1405.2,434.909C1407.83,421.291 1417.7,409.814 1430.08,404.186C1420.89,410.435 1413.94,420.104 1411.8,431.197C1407.94,451.202 1421.14,468.243 1441.29,469.255C1447.73,469.576 1454.09,468.219 1459.9,465.575C1452.51,470.6 1443.67,473.413 1434.7,472.963C1414.55,471.952 1401.34,454.913 1405.2,434.909Z" style="fill:rgb(211,217,221);"/>
        <path d="M1424.8,463.007C1431.47,463.341 1437.92,458.237 1439.2,451.614C1440.48,444.986 1436.1,439.344 1429.43,439.01C1422.76,438.674 1416.31,443.775 1415.03,450.404C1414.93,450.937 1414.87,451.459 1414.84,451.978C1414.56,450.079 1414.58,448.064 1414.98,445.98C1416.94,435.824 1426.82,428.01 1437.05,428.523C1447.27,429.036 1453.97,437.681 1452.01,447.836C1450.04,457.987 1440.17,465.799 1429.95,465.287C1426.38,465.107 1423.25,463.924 1420.76,462.042C1421.97,462.586 1423.33,462.933 1424.8,463.007Z" style="fill:rgb(140,161,175);"/>
        <path d="M1419.7,452.188C1421.13,452.259 1422.23,453.482 1422.16,454.917C1422.09,456.353 1420.87,457.458 1419.44,457.386C1417.99,457.314 1416.89,456.092 1416.96,454.657C1417.04,453.222 1418.25,452.115 1419.7,452.188ZM1423.55,448.103C1424.38,448.145 1425.02,448.85 1424.98,449.682C1424.94,450.511 1424.23,451.152 1423.4,451.111C1422.57,451.068 1421.93,450.36 1421.97,449.531C1422.01,448.699 1422.72,448.06 1423.55,448.103Z" style="fill:white;"/>
        <path d="M1409.43,276.51C1437.1,251.489 1520.43,222.84 1553.41,270.47C1562.64,319.784 1382.77,350.058 1368.6,403.78C1361.45,375.541 1358.03,323.003 1409.43,276.51Z" style="fill:rgb(242,210,184);"/>
        <path d="M1409.43,276.51C1409.46,276.484 1409.49,276.46 1409.52,276.435C1409.49,276.459 1409.46,276.485 1409.43,276.51ZM1409.57,276.387C1409.58,276.379 1409.59,276.371 1409.6,276.362C1409.59,276.37 1409.58,276.38 1409.57,276.387ZM1409.66,276.304C1409.66,276.303 1409.66,276.302 1409.66,276.301C1409.66,276.302 1409.66,276.303 1409.66,276.304Z" style="fill:url(#_Radial12);"/>
        <path d="M1368.6,403.78C1366.4,395.093 1364.55,384.107 1364.55,371.705C1364.53,343.79 1373.84,308.701 1409.43,276.51C1409.46,276.485 1409.49,276.459 1409.52,276.435C1409.53,276.419 1409.55,276.403 1409.57,276.387C1409.58,276.38 1409.59,276.37 1409.6,276.362C1409.62,276.343 1409.64,276.323 1409.66,276.304C1409.66,276.303 1409.66,276.302 1409.66,276.301C1422.73,264.611 1447.86,252.176 1474.27,247.134C1450.41,254.121 1428.58,266.211 1416.97,276.71C1365.58,323.202 1361.45,375.541 1368.6,403.78Z" style="fill:rgb(251,236,223);fill-rule:nonzero;"/>
        <path d="M1646.67,278.941C1621.65,251.276 1528.07,226.17 1490.5,270.263C1521.85,385.592 1691.33,361.672 1673.93,479.272C1729.37,396.293 1693.17,330.343 1646.67,278.941Z" style="fill:rgb(242,210,184);"/>
        <path d="M1673.93,479.272C1673.96,479.231 1673.99,479.188 1674.02,479.147L1674.02,479.148L1673.93,479.272Z" style="fill:rgb(247,228,211);fill-rule:nonzero;"/>
        <path d="M1513.55,314.579C1503.39,302.416 1495.31,287.98 1490.5,270.263C1495.31,287.98 1503.39,302.416 1513.55,314.579ZM1490.5,270.263C1490.52,270.236 1490.54,270.21 1490.56,270.184C1490.54,270.211 1490.52,270.236 1490.5,270.263Z" style="fill:rgb(251,236,223);fill-rule:nonzero;"/>
        <path d="M1673.93,479.272C1674.78,473.53 1675.19,468.125 1675.18,463.025C1675.12,379.722 1566.28,377.722 1513.55,314.579C1503.39,302.416 1495.31,287.98 1490.5,270.263C1490.52,270.236 1490.54,270.211 1490.56,270.184C1493.18,267.128 1496.07,264.415 1499.18,262.003C1533.56,372.02 1690.24,364.114 1674.02,479.148C1673.99,479.188 1673.96,479.231 1673.93,479.272Z" style="fill:rgb(251,236,223);fill-rule:nonzero;"/>
        <path d="M1543.42,371.718C1538.9,364.28 1532.04,358.746 1524.13,355.799C1534.08,355.367 1543.49,361.3 1547.21,370.913C1550.75,370.295 1554.46,370.03 1558.29,370.146C1558.93,360.949 1556.19,352.021 1550.92,344.872C1559.55,349.979 1564.19,360.207 1561.93,370.36C1565.86,370.72 1569.72,371.471 1573.47,372.568C1579.53,366.126 1583.04,357.881 1583.69,349.354C1586.58,357.949 1584.28,367.589 1577.64,373.947C1601.37,382.693 1620.01,405.342 1622.35,431.08C1625.25,463.117 1601.82,487.802 1570.01,486.208C1538.19,484.612 1510.04,457.339 1507.13,425.302C1504.74,398.954 1520.17,377.592 1543.42,371.718Z" style="fill:rgb(125,127,118);"/>
        <path d="M1558.92,380.968C1529.36,379.486 1507.58,402.425 1510.28,432.196C1512.99,461.967 1539.15,487.311 1568.71,488.793C1598.27,490.275 1620.05,467.336 1617.35,437.565C1614.64,407.794 1588.48,382.452 1558.92,380.968Z" style="fill:rgb(235,242,245);"/>
        <path d="M1559.29,479.21C1588.86,480.693 1610.64,457.753 1607.93,427.982C1606.84,415.931 1601.9,404.608 1594.45,395.296C1607.05,405.776 1615.84,420.979 1617.35,437.565C1620.05,467.336 1598.27,490.275 1568.71,488.793C1551.11,487.911 1534.72,478.573 1523.77,464.881C1533.78,473.211 1546.2,478.555 1559.29,479.21Z" style="fill:rgb(211,217,221);"/>
        <path d="M1541.37,467.753C1553.95,468.385 1563.23,458.616 1562.08,445.934C1560.93,433.256 1549.78,422.468 1537.2,421.838C1527.13,421.333 1519.21,427.479 1517.01,436.44C1517,436.35 1516.99,436.267 1516.98,436.179C1515.22,416.757 1529.43,401.793 1548.71,402.76C1567.99,403.728 1585.06,420.26 1586.82,439.68C1588.59,459.104 1574.38,474.067 1555.1,473.101C1548.35,472.761 1541.87,470.51 1536.23,466.905C1537.9,467.36 1539.62,467.666 1541.37,467.753Z" style="fill:rgb(140,161,175);"/>
        <path d="M1530.79,451.005C1533.91,451.162 1536.31,453.817 1536.15,456.937C1536,460.056 1533.34,462.458 1530.22,462.301C1527.1,462.146 1524.7,459.489 1524.86,456.37C1525.01,453.25 1527.67,450.85 1530.79,451.005ZM1539.17,442.126C1540.98,442.217 1542.37,443.752 1542.28,445.558C1542.19,447.364 1540.65,448.755 1538.84,448.663C1537.04,448.573 1535.65,447.038 1535.74,445.231C1535.83,443.425 1537.36,442.037 1539.17,442.126Z" style="fill:white;"/>
        <path d="M1391.38,349.879C1402.65,346.487 1413.81,342.487 1424.56,337.409C1429.93,334.901 1435.21,332.129 1440.3,329.071C1445.4,326.026 1450.34,322.72 1455.02,319.105C1457.36,317.303 1459.63,315.42 1461.84,313.481C1462.39,312.996 1462.94,312.508 1463.48,312.013L1464.29,311.27C1464.56,311.021 1464.83,310.771 1465.08,310.537C1466.08,309.57 1467.03,308.552 1467.91,307.494C1469.65,305.378 1471.13,303.098 1472.05,300.81C1472.97,298.527 1473.25,296.249 1472.56,294.454C1471.9,292.647 1470.27,291.309 1468.18,290.447C1466.08,289.58 1463.59,289.148 1461.01,288.951C1459.81,288.862 1458.59,288.823 1457.36,288.823C1455.92,288.823 1454.46,288.876 1452.99,288.967C1451.62,289.053 1450.24,289.175 1448.87,289.324C1447.5,289.475 1446.13,289.666 1444.77,289.901C1439.31,290.846 1433.86,292.483 1428.71,294.942C1426.14,296.167 1423.64,297.576 1421.25,299.161C1418.85,300.745 1416.57,302.503 1414.42,304.401C1410.12,308.197 1406.34,312.542 1403.2,317.183C1401.62,319.501 1400.2,321.893 1398.95,324.333C1398.33,325.553 1397.75,326.785 1397.23,328.021C1396.71,329.254 1396.24,330.498 1395.86,331.723C1395.67,332.334 1395.5,332.945 1395.38,333.527C1395.32,333.817 1395.29,334.015 1395.28,334.224C1395.28,334.424 1395.29,334.599 1395.33,334.745C1395.41,335.035 1395.55,335.229 1395.85,335.416C1396.14,335.599 1396.6,335.73 1397.13,335.795C1397.44,335.83 1397.76,335.847 1398.1,335.847C1398.95,335.847 1399.89,335.745 1400.83,335.59C1402.16,335.371 1403.52,335.044 1404.88,334.666C1407.61,333.906 1410.37,332.955 1413.1,331.898C1415.83,330.841 1418.55,329.68 1421.24,328.452C1426.64,326.003 1431.97,323.31 1437.19,320.376C1439.8,318.914 1442.38,317.388 1444.89,315.767C1447.43,314.152 1449.91,312.454 1452.22,310.538C1451.16,311.583 1450.02,312.569 1448.84,313.522C1447.67,314.472 1446.48,315.394 1445.26,316.288C1442.81,318.07 1440.31,319.762 1437.76,321.392C1435.2,323.018 1432.6,324.565 1429.98,326.064C1427.34,327.556 1424.69,329.007 1421.99,330.362C1419.29,331.721 1416.56,333.016 1413.78,334.216C1411,335.413 1408.18,336.533 1405.28,337.443C1403.82,337.891 1402.35,338.293 1400.83,338.592C1399.62,338.822 1398.38,339.009 1397.08,339.009C1396.76,339.009 1396.43,338.997 1396.11,338.972C1395.28,338.897 1394.42,338.731 1393.61,338.298C1393.21,338.082 1392.83,337.792 1392.52,337.431C1392.21,337.075 1391.99,336.647 1391.84,336.204C1391.7,335.76 1391.65,335.304 1391.64,334.861C1391.64,334.425 1391.7,333.966 1391.76,333.602C1391.89,332.872 1392.06,332.167 1392.25,331.47C1393.02,328.694 1394.12,326.018 1395.39,323.386C1396.67,320.757 1398.14,318.181 1399.78,315.675C1403.06,310.671 1407.05,305.928 1411.7,301.749C1416.34,297.577 1421.64,293.973 1427.3,291.278C1432.96,288.572 1438.92,286.732 1444.82,285.745C1446.29,285.496 1447.77,285.294 1449.23,285.138C1450.69,284.983 1452.14,284.86 1453.59,284.771C1455.04,284.683 1456.49,284.631 1457.93,284.631C1459.38,284.631 1460.82,284.683 1462.26,284.804C1465.12,285.05 1467.99,285.541 1470.64,286.659C1471.96,287.222 1473.21,287.953 1474.28,288.928C1475.36,289.901 1476.21,291.135 1476.71,292.545C1477.21,293.955 1477.34,295.511 1477.17,297.037C1477,298.57 1476.56,300.075 1475.97,301.514C1474.76,304.394 1472.98,307.016 1470.94,309.412C1469.91,310.612 1468.81,311.754 1467.65,312.841C1467.34,313.118 1467.06,313.369 1466.78,313.624L1465.92,314.382C1465.34,314.887 1464.76,315.384 1464.18,315.878C1461.84,317.851 1459.42,319.733 1456.95,321.54C1452,325.148 1446.84,328.441 1441.52,331.389C1436.19,334.33 1430.73,336.952 1425.2,339.291C1414.1,343.91 1402.74,347.413 1391.38,349.879Z" style="fill:rgb(251,236,223);fill-rule:nonzero;"/>
        <path d="M1642.21,342.752C1631.5,340.314 1620.8,336.899 1610.38,332.43C1605.17,330.17 1600.04,327.641 1595.04,324.814C1590.04,321.978 1585.19,318.819 1580.56,315.365C1578.24,313.635 1575.98,311.834 1573.79,309.95C1573.24,309.477 1572.7,309.002 1572.16,308.519L1571.36,307.795C1571.09,307.553 1570.83,307.311 1570.54,307.045C1569.45,306.009 1568.42,304.92 1567.47,303.779C1565.56,301.495 1563.9,299 1562.79,296.269C1562.24,294.907 1561.84,293.482 1561.7,292.033C1561.55,290.589 1561.69,289.119 1562.17,287.796C1562.65,286.468 1563.48,285.312 1564.5,284.402C1565.52,283.492 1566.71,282.813 1567.97,282.292C1570.48,281.264 1573.19,280.826 1575.89,280.62C1577.06,280.535 1578.24,280.497 1579.41,280.497C1580.97,280.497 1582.53,280.563 1584.09,280.674C1585.46,280.769 1586.81,280.9 1588.19,281.061C1589.57,281.221 1590.97,281.426 1592.36,281.677C1597.91,282.665 1603.53,284.46 1608.84,287.07C1614.17,289.67 1619.14,293.123 1623.48,297.106C1627.83,301.096 1631.55,305.615 1634.61,310.373C1636.13,312.754 1637.49,315.201 1638.67,317.695C1639.85,320.192 1640.86,322.731 1641.56,325.361C1641.73,326.021 1641.89,326.685 1642,327.376C1642.06,327.723 1642.11,328.155 1642.1,328.567C1642.09,328.986 1642.04,329.416 1641.9,329.836C1641.76,330.251 1641.54,330.653 1641.25,330.986C1640.95,331.325 1640.59,331.594 1640.21,331.793C1639.44,332.196 1638.62,332.345 1637.85,332.407C1637.58,332.425 1637.32,332.434 1637.05,332.434C1635.79,332.434 1634.58,332.239 1633.39,332.004C1631.96,331.706 1630.57,331.314 1629.2,330.875C1626.47,329.99 1623.82,328.902 1621.21,327.748C1618.59,326.587 1616.03,325.339 1613.49,324.031C1610.95,322.722 1608.46,321.328 1605.99,319.893C1603.52,318.453 1601.08,316.969 1598.68,315.408C1596.29,313.843 1593.94,312.223 1591.65,310.517C1590.5,309.66 1589.38,308.778 1588.29,307.87C1587.19,306.958 1586.13,306.016 1585.13,305.02C1587.3,306.85 1589.62,308.478 1592,310.028C1594.36,311.584 1596.78,313.048 1599.23,314.454C1604.13,317.275 1609.14,319.869 1614.21,322.234C1616.75,323.419 1619.3,324.541 1621.87,325.565C1624.44,326.591 1627.03,327.516 1629.6,328.257C1630.89,328.628 1632.17,328.948 1633.42,329.167C1634.35,329.329 1635.27,329.438 1636.09,329.438C1636.38,329.438 1636.65,329.425 1636.91,329.397C1637.41,329.341 1637.85,329.221 1638.13,329.05C1638.41,328.88 1638.54,328.696 1638.62,328.424C1638.66,328.285 1638.68,328.121 1638.67,327.931C1638.66,327.734 1638.64,327.545 1638.58,327.27C1638.48,326.72 1638.33,326.144 1638.15,325.564C1637.8,324.404 1637.37,323.226 1636.89,322.055C1636.41,320.883 1635.88,319.715 1635.3,318.557C1634.15,316.241 1632.83,313.967 1631.36,311.762C1628.43,307.35 1624.91,303.211 1620.88,299.585C1618.87,297.772 1616.73,296.09 1614.49,294.571C1612.24,293.053 1609.9,291.698 1607.47,290.517C1602.64,288.146 1597.51,286.547 1592.36,285.602C1591.08,285.366 1589.79,285.173 1588.5,285.018C1587.2,284.865 1585.9,284.737 1584.61,284.642C1583.03,284.528 1581.47,284.46 1579.93,284.46C1578.95,284.46 1577.99,284.488 1577.04,284.548C1574.6,284.711 1572.24,285.095 1570.25,285.893C1568.26,286.688 1566.71,287.936 1566.07,289.634C1565.41,291.325 1565.65,293.479 1566.5,295.643C1567.35,297.812 1568.72,299.982 1570.35,301.993C1571.16,303.001 1572.05,303.973 1572.99,304.894C1573.22,305.119 1573.47,305.358 1573.72,305.596L1574.48,306.307C1574.99,306.777 1575.5,307.244 1576.02,307.707C1578.08,309.56 1580.21,311.359 1582.4,313.085C1586.79,316.541 1591.42,319.708 1596.21,322.635C1600.99,325.572 1605.94,328.24 1611,330.661C1621.09,335.556 1631.6,339.44 1642.21,342.752Z" style="fill:rgb(251,236,223);fill-rule:nonzero;"/>
        <path d="M1465.89,517.507C1464.75,516.88 1464.54,516.331 1465.77,515.954C1474.69,513.208 1483.23,501.874 1492.46,501.964C1497.5,502.013 1502.07,505.712 1505.85,505.689C1509.74,505.661 1513.57,500.243 1518.82,500.292C1527.5,500.378 1531.29,507.558 1547.27,514.613C1518.55,519.413 1491.25,520.699 1465.89,517.507Z" style="fill:rgb(221,157,152);"/>
        <path d="M1545.98,599.536C1545.74,599.81 1545.5,600.091 1545.25,600.356L1545.25,600.343C1527.77,618.988 1495.14,616.544 1473.38,593.371L1473.38,593.381C1472.03,591.952 1470.75,590.424 1469.5,588.837C1493.48,597.385 1520.69,600.932 1545.98,599.536Z" style="fill:rgb(221,157,152);fill-rule:nonzero;"/>
        <path d="M1614.69,500.427C1634.36,533.181 1632.36,557.712 1617.89,574.407C1636.76,557.009 1641.33,530.313 1619.19,494.023L1619.17,493.838C1606.42,499.48 1594.09,504.195 1582.17,508.038C1592.84,505.801 1603.69,503.192 1614.68,500.249L1614.69,500.427Z" style="fill:rgb(202,157,134);fill-rule:nonzero;"/>
        <path d="M1443.15,510.144C1427.16,504.276 1412.08,496.141 1397.75,485.979C1390.78,517.8 1401.88,543.065 1422.47,561.565C1404.07,543.902 1394.04,520.523 1399.33,491.728C1412.87,499.951 1427.53,506 1443.15,510.144Z" style="fill:rgb(202,157,134);fill-rule:nonzero;"/>
        <path d="M1399.33,491.728C1403.4,494.198 1407.57,496.465 1411.83,498.551C1419.35,502.229 1427.16,505.312 1435.25,507.854L1435.24,507.852C1442.34,512.641 1450.1,516.745 1458.28,520.145L1462.22,514.179C1462.41,514.209 1462.6,514.236 1462.8,514.269L1460.37,520.986C1485.69,531.07 1514.67,534.544 1539.95,531.088L1540.5,524.485L1541.48,530.854C1554.16,528.966 1565.86,525.321 1575.63,519.866L1572.04,511.669L1577.46,518.833C1583.58,515.181 1588.87,510.777 1593.09,505.625C1600.22,503.981 1607.42,502.194 1614.68,500.249L1614.69,500.427C1636.14,536.143 1631.81,562.073 1613.66,578.73C1606.88,576.104 1599.96,573.958 1592.97,572.296L1587.8,581.193L1590.63,571.758C1547,562.052 1501.15,570.446 1473.75,591.099C1461.72,587.018 1450.34,581.758 1440.23,575.343L1440.22,575.352C1411.09,556.857 1392.52,528.784 1399.33,491.728Z" style="fill:rgb(109,39,17);fill-rule:nonzero;"/>
        <path d="M1489.79,564.26C1490.83,569.457 1492.43,574.469 1494.5,579.225C1521.4,567.615 1556.68,564.205 1590.63,571.758L1587.8,581.193L1592.97,572.296C1593.74,572.478 1594.5,572.67 1595.26,572.864C1595.23,568.763 1594.8,564.525 1593.93,560.193C1590.91,545.067 1583.17,531.468 1572.87,521.322C1563.69,525.974 1553,529.141 1541.48,530.854L1540.5,524.485L1539.95,531.088C1524.9,533.146 1508.55,532.725 1492.42,529.941C1488.42,539.785 1487.27,551.625 1489.79,564.26Z" style="fill:rgb(77,6,0);fill-rule:nonzero;"/>
        <path d="M1490.76,541.965C1496.14,540.623 1501.9,539.688 1507.76,539.127C1498.38,543.426 1490.35,548.703 1485.05,554.607C1496.35,547.121 1511.52,540.129 1526.5,538.569C1546.77,536.458 1572.94,561.481 1575.48,568.867C1579.57,580.75 1545.78,576.636 1516.36,583.969C1486.93,591.299 1464.01,585.092 1459.93,573.207C1455.84,561.317 1461.34,549.295 1490.76,541.965Z" style="fill:rgb(185,126,122);fill-rule:nonzero;"/>
        <path d="M1590.63,571.758L1587.8,581.193L1592.97,572.296C1599.96,573.958 1606.88,576.104 1613.66,578.73C1609.37,582.673 1604.3,586.096 1598.62,589.006L1598.62,588.989C1566.99,605.192 1516.29,605.515 1473.75,591.099C1501.15,570.446 1547,562.052 1590.63,571.758Z" style="fill:rgb(235,242,245);fill-rule:nonzero;"/>
        <path d="M1588.76,506.613C1590.2,506.294 1591.65,505.956 1593.09,505.623C1588.87,510.777 1583.58,515.181 1577.46,518.833L1572.04,511.669L1575.63,519.866C1565.86,525.321 1554.16,528.966 1541.48,530.854L1540.5,524.485L1539.95,531.088C1514.67,534.544 1485.69,531.07 1460.37,520.986L1462.8,514.269C1500.63,520.324 1543.25,516.733 1588.76,506.613Z" style="fill:rgb(235,242,245);fill-rule:nonzero;"/>
        <path d="M1462.22,514.179L1458.28,520.145C1450.1,516.745 1442.34,512.641 1435.24,507.852C1443.92,510.58 1452.93,512.667 1462.22,514.179Z" style="fill:rgb(235,242,245);fill-rule:nonzero;"/>
        <path d="M1507.59,642.455C1509.26,639.882 1510.61,636.907 1510.36,633.848C1509.94,628.664 1507.44,629.752 1506.76,633.942C1506.3,636.755 1506.85,639.697 1507.59,642.455ZM1470.88,615.514C1472.25,627.237 1473.83,640.545 1482.67,649.894C1488.99,656.581 1497.19,653.067 1502.91,647.895C1503.7,647.18 1504.45,646.423 1505.16,645.63C1505.05,645.352 1504.94,645.077 1504.84,644.799C1503.33,640.611 1500.57,627.639 1508.13,626.534C1518.96,624.949 1511.93,642.788 1508.95,646.338C1509.93,648.521 1511.29,650.545 1513.19,652.104C1520.48,658.096 1528.56,647.576 1531.78,642.822C1537.13,634.913 1539.43,627.546 1540.98,618.551C1542.91,629.006 1531.92,660.09 1515.29,656.18C1513.01,655.641 1511.09,654.305 1509.54,652.72C1508.41,651.564 1507.45,650.211 1506.65,648.791C1506.19,649.234 1505.72,649.664 1505.24,650.078C1501.73,653.087 1497.19,655.908 1492.21,656.303C1481.56,657.141 1475.58,645.733 1473.38,637.927C1471.23,630.298 1469.98,623.307 1470.88,615.514Z" style="fill:rgb(190,148,126);"/>
        <path d="M1402.67,532.57C1403.34,534.313 1404.08,536.023 1404.89,537.702C1404.08,536.023 1403.34,534.313 1402.67,532.57ZM1409.29,545.618C1408.26,544.011 1407.3,542.369 1406.41,540.692C1407.3,542.37 1408.26,544.011 1409.29,545.618ZM1421.02,560.219C1401.36,541.846 1390.95,517.039 1397.75,485.979C1401.78,488.834 1405.87,491.512 1410.02,494.043C1409.72,490.725 1409.42,487.403 1409.18,484.057C1408.52,474.783 1408.15,465.592 1408.04,456.493C1404.83,450.307 1403.67,442.843 1405.2,434.909C1405.9,431.307 1407.13,427.872 1408.75,424.64C1409.17,417.369 1409.76,410.18 1410.52,403.081C1407.88,400.367 1405.97,396.943 1405.13,393.134C1406.78,395.456 1408.74,397.543 1410.92,399.375C1412.47,385.961 1414.61,372.877 1417.31,360.196C1392.44,373.359 1372.89,387.49 1368.6,403.78L1368.6,403.776C1360.17,395.399 1349.05,396.97 1343.76,407.29C1338.47,417.607 1341.03,432.769 1349.46,441.147C1354.63,446.284 1360.81,447.662 1366.04,445.594C1365.21,507.245 1395.7,585.564 1421.75,647.935C1435.06,652.406 1447.54,656.198 1459.39,659.345C1443.03,630.287 1429.92,596.777 1421.02,560.219ZM1412.73,550.588C1413.89,552.148 1415.12,553.67 1416.4,555.16C1415.12,553.671 1413.89,552.148 1412.73,550.588Z" style="fill:rgb(254,215,179);"/>
        <path d="M1372.16,427.729C1370.21,417.204 1358.04,410.976 1351.37,422.346C1351.52,421.938 1351.69,421.539 1351.88,421.142C1354.98,414.635 1362.56,411.615 1368.06,417.238C1362.49,408.822 1350.84,405.023 1344.27,415.2C1356.49,394.308 1374.72,415.591 1372.16,427.729Z" style="fill:rgb(202,157,134);"/>
        <path d="M1334.5,657.199L1324.88,573.358L1295.5,575.679L1325.16,668.796L1400.94,668.021L1418.34,647.876L1334.5,657.199Z" style="fill:rgb(236,195,161);"/>
        <path d="M1295.5,575.679L1325.16,668.796L1400.94,668.021L1326.59,666.899L1295.5,575.679Z" style="fill:rgb(213,175,144);"/>
        <path d="M1418.34,647.876L1334.5,657.199L1324.88,573.358L1331,660.631L1418.34,647.876Z" style="fill:rgb(254,215,179);"/>
        <path d="M1363.93,675.856L1375.97,639.771L1421.75,647.935L1430.5,669.356L1363.93,675.856Z" style="fill:rgb(228,230,232);"/>
        <path d="M1296.49,594.074L1332.66,580.016L1338.58,549.976L1264.59,570.242L1296.49,594.074Z" style="fill:rgb(236,195,161);"/>
        <path d="M1299.79,588.778L1320.94,584.575L1296.49,594.074L1264.59,570.242L1272.2,568.158L1299.79,588.778Z" style="fill:rgb(254,215,179);"/>
        <path d="M1327.71,580.483L1341.15,575.236L1348.39,561.283L1327.78,565.822L1327.71,580.483Z" style="fill:rgb(236,195,161);"/>
        <path d="M1353.67,562.375L1328.45,491.154L1246.99,530.37L1265.68,583.17L1353.67,562.375Z" style="fill:rgb(137,163,178);"/>
        <path d="M1266.22,533.751L1325.78,508.391L1322.74,489.946L1255.6,521.869L1266.22,533.751Z" style="fill:rgb(236,195,161);"/>
        <path d="M1267.17,528.317L1255.6,521.869L1266.22,533.751L1325.78,508.391L1267.17,528.317Z" style="fill:rgb(254,215,179);"/>
        <path d="M1447.66,750.76C1444.36,750.399 1441.06,750.033 1437.77,749.681C1441.06,750.033 1444.36,750.39 1447.66,750.751L1447.66,750.76Z" style="fill:rgb(115,116,118);fill-rule:nonzero;"/>
        <path d="M1447.66,750.751C1444.36,750.39 1441.06,750.033 1437.77,749.681L1443.5,724.224C1443.56,724.239 1443.63,724.255 1443.69,724.271C1443.71,724.275 1443.72,724.278 1443.74,724.281C1443.79,724.293 1443.84,724.305 1443.89,724.317C1443.95,724.331 1444,724.344 1444.06,724.359C1444.08,724.364 1444.11,724.37 1444.13,724.376C1447.22,725.118 1450.17,725.825 1453,726.5L1447.66,750.751Z" style="fill:rgb(93,113,122);fill-rule:nonzero;"/>
        <path d="M1453,726.5C1450.17,725.825 1447.22,725.118 1444.13,724.376C1447.22,725.118 1450.17,725.825 1453,726.5ZM1444.06,724.359C1444,724.344 1443.95,724.331 1443.89,724.317C1443.94,724.331 1444,724.345 1444.06,724.359ZM1443.74,724.281C1443.72,724.278 1443.71,724.275 1443.69,724.271C1443.71,724.274 1443.72,724.278 1443.74,724.281Z" style="fill:rgb(236,237,235);fill-rule:nonzero;"/>
        <path d="M1459.39,659.346C1452.41,657.49 1445.2,655.41 1437.74,653.095C1437.17,652.92 1436.6,652.747 1436.03,652.568C1435.06,652.264 1434.07,651.951 1433.09,651.639C1432.01,651.295 1430.92,650.945 1429.82,650.592C1429.07,650.348 1428.32,650.105 1427.56,649.857C1425.64,649.229 1423.71,648.592 1421.75,647.934L1375.97,639.771L1374.94,642.859L1422.25,649.658L1443.5,724.224C1446.82,725.022 1449.98,725.78 1453.01,726.502L1453.01,726.498L1459.39,659.346Z" style="fill:rgb(255,254,242);"/>
        <path d="M1476.39,719.994C1475.53,719.994 1474.65,719.968 1473.77,719.915C1465.61,719.424 1458.53,716.728 1454.29,712.984L1454.53,710.436C1459.75,714.637 1468,717.623 1477.43,718.19C1478.5,718.255 1479.57,718.287 1480.62,718.287C1484.08,718.287 1487.39,717.941 1490.44,717.303C1486.59,719.004 1481.71,719.994 1476.39,719.994Z" style="fill:rgb(243,243,244);fill-rule:nonzero;"/>
        <path d="M1454.29,712.984C1451.77,710.755 1450.25,708.154 1450.13,705.426C1451.13,707.218 1452.63,708.907 1454.53,710.436L1454.29,712.984Z" style="fill:rgb(255,255,249);fill-rule:nonzero;"/>
        <path d="M1537.46,723.673C1536.59,723.673 1535.72,723.647 1534.84,723.594C1528.5,723.211 1522.81,721.499 1518.6,718.998C1522.44,720.301 1526.78,721.165 1531.41,721.441C1532.49,721.506 1533.55,721.538 1534.6,721.538C1546.09,721.538 1555.87,717.738 1560.05,712.043C1558.91,718.772 1549.29,723.673 1537.46,723.673Z" style="fill:rgb(243,243,244);fill-rule:nonzero;"/>
        <path d="M1361.81,678.506L1371.34,633.356L1380.99,636.574L1373.01,677.303L1361.81,678.506Z" style="fill:rgb(204,218,217);"/>
        <path d="M1380.47,639.226L1370.78,635.998L1371.34,633.356L1380.99,636.574L1380.47,639.226Z" style="fill:rgb(233,240,232);fill-rule:nonzero;"/>
    </g>
    <defs>
        <linearGradient id="_Linear1" x1="0" y1="0" x2="1" y2="0" gradientUnits="userSpaceOnUse" gradientTransform="matrix(109.703,409.417,-409.417,109.703,306.56,392.302)"><stop offset="0%" style="stop-color:rgb(179,220,230);stop-opacity:1"/><stop offset="100%" style="stop-color:rgb(96,187,204);stop-opacity:1"/></linearGradient>
        <linearGradient id="_Linear2" x1="0" y1="0" x2="1" y2="0" gradientUnits="userSpaceOnUse" gradientTransform="matrix(109.703,409.417,-409.417,109.703,306.56,392.302)"><stop offset="0%" style="stop-color:rgb(153,185,194);stop-opacity:1"/><stop offset="100%" style="stop-color:rgb(88,159,175);stop-opacity:1"/></linearGradient>
        <radialGradient id="_Radial3" cx="0" cy="0" r="1" gradientUnits="userSpaceOnUse" gradientTransform="matrix(952.5,0,0,595.5,952.5,595.5)"><stop offset="0%" style="stop-color:rgb(160,182,190);stop-opacity:1"/><stop offset="100%" style="stop-color:rgb(135,169,179);stop-opacity:1"/></radialGradient>
        <linearGradient id="_Linear4" x1="0" y1="0" x2="1" y2="0" gradientUnits="userSpaceOnUse" gradientTransform="matrix(109.703,409.417,-409.417,109.703,306.56,392.302)"><stop offset="0%" style="stop-color:rgb(153,185,194);stop-opacity:1"/><stop offset="100%" style="stop-color:rgb(88,159,175);stop-opacity:1"/></linearGradient>
        <linearGradient id="_Linear5" x1="0" y1="0" x2="1" y2="0" gradientUnits="userSpaceOnUse" gradientTransform="matrix(-109.703,-409.417,-409.417,109.703,1609.33,392.302)"><stop offset="0%" style="stop-color:rgb(179,220,230);stop-opacity:1"/><stop offset="100%" style="stop-color:rgb(96,187,204);stop-opacity:1"/></linearGradient>
        <linearGradient id="_Linear6" x1="0" y1="0" x2="1" y2="0" gradientUnits="userSpaceOnUse" gradientTransform="matrix(-109.703,-409.417,-409.417,109.703,1609.33,392.302)"><stop offset="0%" style="stop-color:rgb(153,185,194);stop-opacity:1"/><stop offset="100%" style="stop-color:rgb(88,159,175);stop-opacity:1"/></linearGradient>
        <radialGradient id="_Radial7" cx="0" cy="0" r="1" gradientUnits="userSpaceOnUse" gradientTransform="matrix(952.5,0,0,595.5,952.5,595.5)"><stop offset="0%" style="stop-color:rgb(160,182,190);stop-opacity:1"/><stop offset="100%" style="stop-color:rgb(135,169,179);stop-opacity:1"/></radialGradient>
        <linearGradient id="_Linear8" x1="0" y1="0" x2="1" y2="0" gradientUnits="userSpaceOnUse" gradientTransform="matrix(-109.703,-409.417,-409.417,109.703,1609.33,392.302)"><stop offset="0%" style="stop-color:rgb(153,185,194);stop-opacity:1"/><stop offset="100%" style="stop-color:rgb(88,159,175);stop-opacity:1"/></linearGradient>
        <linearGradient id="_Linear9" x1="0" y1="0" x2="1" y2="0" gradientUnits="userSpaceOnUse" gradientTransform="matrix(-109.703,-409.417,-409.417,109.703,1609.33,392.302)"><stop offset="0%" style="stop-color:rgb(153,185,194);stop-opacity:1"/><stop offset="100%" style="stop-color:rgb(88,159,175);stop-opacity:1"/></linearGradient>
        <linearGradient id="_Linear10" x1="0" y1="0" x2="1" y2="0" gradientUnits="userSpaceOnUse" gradientTransform="matrix(-109.703,-409.417,-409.417,109.703,1609.33,392.302)"><stop offset="0%" style="stop-color:rgb(222,241,237);stop-opacity:1"/><stop offset="100%" style="stop-color:rgb(182,225,226);stop-opacity:1"/></linearGradient>
        <radialGradient id="_Radial11" cx="0" cy="0" r="1" gradientUnits="userSpaceOnUse" gradientTransform="matrix(952.5,0,0,595.5,952.5,595.5)"><stop offset="0%" style="stop-color:rgb(216,239,244);stop-opacity:1"/><stop offset="100%" style="stop-color:rgb(189,225,233);stop-opacity:1"/></radialGradient>
        <radialGradient id="_Radial12" cx="0" cy="0" r="1" gradientUnits="userSpaceOnUse" gradientTransform="matrix(952.5,0,0,595.5,952.5,595.5)"><stop offset="0%" style="stop-color:rgb(233,246,249);stop-opacity:1"/><stop offset="100%" style="stop-color:rgb(215,236,241);stop-opacity:1"/></radialGradient>
    </defs>
</svg>
