<?xml version="1.0" encoding="UTF-8" standalone="no"?>
<!DOCTYPE svg PUBLIC "-//W3C//DTD SVG 1.1//EN" "http://www.w3.org/Graphics/SVG/1.1/DTD/svg11.dtd">
<svg width="100%" height="100%" viewBox="0 0 4963 4963" version="1.1" xmlns="http://www.w3.org/2000/svg" xmlns:xlink="http://www.w3.org/1999/xlink" xml:space="preserve" style="fill-rule:evenodd;clip-rule:evenodd;stroke-linejoin:round;stroke-miterlimit:1.41421;">
    <g transform="matrix(4.16667,0,0,4.16667,0,0)">
        <path d="M1191,1191L0,1191L0,0L1191,0L1191,1191ZM738.359,941.968L738.359,1046.73C731.816,1049.61 727.633,1053.45 728.466,1056.32C729.226,1058.94 734.487,1061.22 740.984,1061.22C743.465,1061.22 746.125,1060.89 748.784,1060.12C758.409,1057.32 764.378,1049.82 763.325,1046.2C763.088,1045.38 762.448,1044.72 761.519,1044.21L761.519,943.068C795.66,942.631 832.266,932.943 869.637,908.432L836.631,758.959L866.693,673.054C899.735,615.478 924.571,537.21 928.576,465.285C929.833,463.127 931.032,460.996 932.19,458.864C945.485,468.572 960.083,493.979 945.554,513.282C944.463,514.731 942.229,515.476 939.945,515.476C936.135,515.476 932.185,513.401 933.166,509.057C933.597,504.63 939.12,500.209 942.363,500.209C943.855,500.209 944.865,501.144 944.675,503.445C945.288,500.354 944.131,499.093 942.246,499.093C938.426,499.093 931.618,504.276 930.517,509.894C928.609,517.404 934.569,521.317 940.058,521.317C941.924,521.317 943.735,520.865 945.164,519.948C971.675,502.944 958.612,461.482 939.671,443.769C960.424,397.416 957.803,357.156 942.938,321.963C952.906,312.234 960.097,300.204 963.386,286.438C963.387,286.435 963.386,286.439 963.387,286.436C963.413,286.328 963.438,286.219 963.464,286.112C963.466,286.103 963.467,286.099 963.469,286.09C963.475,286.062 963.482,286.034 963.488,286.005C963.49,285.997 963.492,285.992 963.494,285.983C963.501,285.949 963.51,285.914 963.518,285.879C964.748,280.543 965.34,275.184 965.337,269.858C965.319,229.355 930.926,190.808 881.573,179.43C872.091,177.244 862.673,176.202 853.507,176.202C821.086,176.202 791.907,189.257 774.924,210.911C764.821,211.611 754.962,213.314 745.781,216.22C737.708,213.792 729.105,212.712 720.288,212.712C679.994,212.712 635.224,235.263 616.197,254.605C616.194,254.609 616.191,254.611 616.188,254.615C616.177,254.626 616.168,254.635 616.157,254.646C616.142,254.661 616.127,254.677 616.111,254.693C581.453,290.054 571.655,326.653 571.66,356.724C571.663,374.244 574.993,389.55 578.672,401.104C574.609,397.526 570.16,395.799 565.955,395.799C559.722,395.799 554.021,399.588 550.881,406.758C545.616,418.76 549.53,435.699 559.615,444.583C563.671,448.155 568.107,449.873 572.305,449.873C574.507,449.873 576.643,449.4 578.625,448.475C581.881,518.111 621.619,604.434 655.259,673.054L607.825,668.131L608.388,663.627L597.249,660.751L596.826,663.775L596.827,663.776L594.018,683.894L557.565,690.527L540.151,596.711L507.195,601.626L547.941,704.337L591.649,700.857L590.034,712.425L602.572,710.19L602.881,707.716L664.293,698.773L684.985,757.678L658.935,917.777C659.443,918.031 659.952,918.284 660.463,918.536C683.548,929.904 709.888,938.916 738.359,941.968ZM898.786,708.543L861.628,737.201L866.073,749.136L906.921,716.679L898.786,708.543Z" style="fill:white;fill-rule:nonzero;"/>
        <path d="M1090.53,1081.78C1090.53,1112.32 947.623,1137.07 771.342,1137.07C595.056,1137.07 452.152,1112.32 452.152,1081.78C452.152,1051.24 595.056,1026.48 771.342,1026.48C947.623,1026.48 1090.53,1051.24 1090.53,1081.78Z" style="fill:url(#_Radial1);"/>
        <path d="M901.426,765.984L991.085,733.341L1003.59,764.227L894.414,781.289L856.899,704.261L868.479,676.482L901.426,765.984Z" style="fill:rgb(236,202,167);"/>
        <path d="M991.085,733.341L901.426,765.984L868.479,676.482L900.478,770.599L991.085,733.341Z" style="fill:rgb(255,223,187);"/>
        <path d="M1003.59,764.227L894.414,781.289L856.899,704.261L895.614,778.891L1003.59,764.227Z" style="fill:rgb(218,181,148);"/>
        <path d="M867.68,745.651L898.092,715.24L866.693,673.054L852.556,701.665L867.68,745.651Z" style="fill:rgb(233,229,228);"/>
        <path d="M866.073,749.136L906.921,716.679L898.786,708.543L861.628,737.201L866.073,749.136Z" style="fill:rgb(213,213,212);"/>
        <path d="M904.715,718.432L896.552,710.268L898.786,708.543L906.921,716.679L904.715,718.432Z" style="fill:rgb(236,235,230);fill-rule:nonzero;"/>
        <path d="M972.395,773.408L964.796,733.123L988.425,711.04L1011.58,788.693L972.395,773.408Z" style="fill:rgb(236,202,167);"/>
        <path d="M967.142,737.821L964.345,722.849L972.81,708.563L980.25,729.574L967.142,737.821Z" style="fill:rgb(236,202,167);"/>
        <path d="M988.425,711.04L964.796,733.123L972.395,773.408L971.062,733.987L988.425,711.04Z" style="fill:rgb(255,223,187);"/>
        <path d="M731.779,1044.4C702.44,1056.21 698.731,1069.5 699.411,1088.32C727.031,1093.07 760.646,1085.68 767.671,1060.08C770.19,1050.9 769.596,1045.6 762.685,1042.69C756.256,1039.97 740.405,1040.92 731.779,1044.4Z" style="fill:rgb(65,80,85);"/>
        <path d="M809.077,1044.4C838.416,1056.21 842.125,1069.5 841.446,1088.32C813.827,1093.07 780.211,1085.68 773.188,1060.08C770.665,1050.9 771.262,1045.6 778.173,1042.69C784.601,1039.97 800.451,1040.92 809.077,1044.4Z" style="fill:rgb(65,80,85);"/>
        <path d="M801.601,1046.65L801.601,885.209C793.729,886.992 786.038,888.238 778.441,888.948L778.441,1044.32C777.619,1044.82 777.05,1045.44 776.829,1046.2C775.776,1049.82 781.743,1057.32 791.37,1060.12C800.997,1062.91 810.638,1059.94 811.688,1056.32C812.53,1053.42 808.259,1049.53 801.601,1046.65Z" style="fill:rgb(236,202,167);"/>
        <path d="M761.519,1044.21L761.519,890.308C753.813,890.245 746.127,889.66 738.359,888.559L738.359,1046.73C731.816,1049.61 727.633,1053.45 728.466,1056.32C729.516,1059.94 739.159,1062.91 748.784,1060.12C758.409,1057.32 764.378,1049.82 763.325,1046.2C763.088,1045.38 762.448,1044.72 761.519,1044.21Z" style="fill:rgb(236,202,167);"/>
        <path d="M836.631,758.959L684.985,757.678L658.935,917.777C715.009,945.814 790.622,960.258 869.637,908.432L836.631,758.959Z" style="fill:rgb(110,117,124);"/>
        <path d="M660.463,918.536C659.952,918.284 659.443,918.031 658.935,917.777C659.441,918.031 659.954,918.285 660.463,918.536Z" style="fill:rgb(255,255,252);fill-rule:nonzero;"/>
        <path d="M670.016,923.014C666.776,921.57 663.589,920.075 660.463,918.536C659.954,918.285 659.441,918.031 658.935,917.777L684.985,757.678C688.781,758.352 692.402,758.993 695.869,759.601L670.016,923.014Z" style="fill:rgb(147,148,152);fill-rule:nonzero;"/>
        <path d="M866.693,673.054L655.259,673.054L684.985,757.678C755.575,770.223 766.042,771.205 836.631,758.959L866.693,673.054Z" style="fill:rgb(233,229,228);"/>
        <path d="M826.427,664.371L700.461,664.371L718.171,714.788C760.227,722.262 766.461,722.847 808.517,715.551L826.427,664.371Z" style="fill:rgb(236,202,167);"/>
        <path d="M718.854,750.76C709.619,750.76 701.439,748.199 696.402,744.261L696.502,741.368C702.681,745.754 712.195,748.564 722.868,748.564C728.109,748.564 733.071,747.887 737.495,746.678C732.571,749.215 726.032,750.76 718.854,750.76Z" style="fill:rgb(244,242,241);fill-rule:nonzero;"/>
        <path d="M788.03,750.76C780.852,750.76 774.314,749.215 769.39,746.678C773.814,747.887 778.775,748.564 784.017,748.564C798.573,748.564 810.975,743.337 815.698,736.012C814.813,744.24 802.767,750.76 788.03,750.76Z" style="fill:rgb(244,242,241);fill-rule:nonzero;"/>
        <path d="M756.192,711.538L756.08,720.389C756.665,720.431 757.247,720.47 757.825,720.504L756.192,711.538Z" style="fill:rgb(199,156,127);"/>
        <path d="M557.565,690.527L540.151,596.711L507.195,601.626L547.941,704.337L633.351,697.537L651.398,673.453L557.565,690.527Z" style="fill:rgb(236,202,167);"/>
        <path d="M507.195,601.626L547.941,704.337L633.351,697.537L549.399,702.087L507.195,601.626Z" style="fill:rgb(218,181,148);"/>
        <path d="M651.398,673.453L557.565,690.527L540.151,596.711L553.888,694.672L651.398,673.453Z" style="fill:rgb(255,223,187);"/>
        <path d="M592.219,709.269L602.972,667.627L655.259,673.054L667.31,698.333L592.219,709.269Z" style="fill:rgb(233,229,228);"/>
        <path d="M762.643,943.049L759.989,859.863L770.644,942.722C767.964,942.887 765.295,942.999 762.643,943.049ZM702.034,934.76C698.51,933.744 695.034,932.648 691.606,931.484L714.268,821.94L702.034,934.76ZM840.968,924.497L818.237,823.604L849.937,920.043C846.94,921.616 843.95,923.102 840.968,924.497Z" style="fill:rgb(147,148,152);fill-rule:nonzero;"/>
        <path d="M684.985,757.678L664.293,698.773L664.293,698.772L684.985,757.678Z" style="fill:white;fill-rule:nonzero;"/>
        <path d="M695.869,759.601C692.399,758.992 688.784,758.352 684.985,757.678L664.293,698.772L667.31,698.333L655.259,673.054C655.712,673.177 656.164,673.298 656.615,673.42C671.421,677.399 685.333,680.725 698.516,683.388L696.502,741.368C694.254,739.771 692.447,737.966 691.187,736.012C691.516,739.083 693.401,741.916 696.402,744.261L695.869,759.601Z" style="fill:rgb(244,242,241);fill-rule:nonzero;"/>
        <path d="M696.402,744.261C693.401,741.916 691.516,739.083 691.187,736.012C692.447,737.966 694.254,739.771 696.502,741.368L696.402,744.261Z" style="fill:rgb(250,249,249);fill-rule:nonzero;"/>
        <path d="M664.293,698.773L657.532,679.526L607.503,670.707L607.825,668.131L655.259,673.054L667.31,698.333L664.293,698.772L664.293,698.773Z" style="fill:rgb(244,242,241);fill-rule:nonzero;"/>
        <path d="M590.034,712.425L597.249,660.751L608.388,663.627L602.572,710.19L590.034,712.425Z" style="fill:rgb(213,213,212);"/>
        <path d="M596.827,663.776L596.826,663.775L597.249,660.751L596.827,663.776Z" style="fill:rgb(255,255,249);fill-rule:nonzero;"/>
        <path d="M608.009,666.661L596.827,663.776L597.249,660.751L608.388,663.627L608.009,666.661Z" style="fill:rgb(236,235,230);fill-rule:nonzero;"/>
        <path d="M546.388,550.862L562.285,546.937L572.496,532.3L548.625,534.368L546.388,550.862Z" style="fill:rgb(236,202,167);"/>
        <path d="M548.73,540.26L218.583,540.26C211.388,540.26 205.552,546.095 205.552,553.292L205.552,1023.39C205.552,1030.59 211.388,1036.42 218.583,1036.42L548.73,1036.42C555.927,1036.42 561.762,1030.59 561.762,1023.39L561.762,553.292C561.762,546.095 555.927,540.26 548.73,540.26Z" style="fill:rgb(146,99,71);fill-rule:nonzero;"/>
        <rect x="225.008" y="563.9" width="317.297" height="448.89" style="fill:rgb(233,229,228);fill-rule:nonzero;"/>
        <path d="M383.658,495.359C365.802,495.359 351.329,509.833 351.329,527.687C351.329,545.542 365.802,560.017 383.658,560.017C401.513,560.017 415.985,545.542 415.985,527.687C415.985,509.833 401.513,495.359 383.658,495.359Z" style="fill:rgb(181,170,168);fill-rule:nonzero;"/>
        <path d="M486.163,571.989L486.163,564.233C486.163,545.373 470.874,530.082 452.011,530.082L315.303,530.082C296.441,530.082 281.153,545.373 281.153,564.233L281.153,571.989L486.163,571.989Z" style="fill:rgb(181,170,168);fill-rule:nonzero;"/>
        <path d="M383.658,509.727C373.739,509.727 365.697,517.769 365.697,527.687C365.697,537.607 373.739,545.648 383.658,545.648C393.577,545.648 401.618,537.607 401.618,527.687C401.618,517.769 393.577,509.727 383.658,509.727Z" style="fill:rgb(164,151,149);fill-rule:nonzero;"/>
        <path d="M305.653,642.47L305.653,673.782L250.18,673.782L250.18,618.312L295.074,618.312L297.521,613.962L245.83,613.962L245.83,678.134L310.004,678.134L310.004,639.358L305.653,642.47Z" style="fill:rgb(132,118,116);fill-rule:nonzero;"/>
        <path d="M308.664,602.724L273.85,656.012L260.206,637.494L251.493,648.626L274.407,664.816L323.027,624.103L308.664,602.724Z" style="fill:rgb(132,160,184);fill-rule:nonzero;"/>
        <rect x="378.18" y="673.782" width="12.497" height="4.352" style="fill:rgb(132,118,116);fill-rule:nonzero;"/>
        <rect x="403.174" y="673.782" width="12.495" height="4.352" style="fill:rgb(132,118,116);fill-rule:nonzero;"/>
        <rect x="503.146" y="673.782" width="12.496" height="4.352" style="fill:rgb(132,118,116);fill-rule:nonzero;"/>
        <rect x="353.185" y="673.782" width="12.498" height="4.352" style="fill:rgb(132,118,116);fill-rule:nonzero;"/>
        <rect x="478.154" y="673.782" width="12.496" height="4.352" style="fill:rgb(132,118,116);fill-rule:nonzero;"/>
        <rect x="453.161" y="673.782" width="12.496" height="4.352" style="fill:rgb(132,118,116);fill-rule:nonzero;"/>
        <rect x="428.167" y="673.782" width="12.496" height="4.352" style="fill:rgb(132,118,116);fill-rule:nonzero;"/>
        <path d="M305.653,744.169L305.653,775.48L250.18,775.48L250.18,720.009L295.074,720.009L297.521,715.66L245.83,715.66L245.83,779.833L310.004,779.833L310.004,741.056L305.653,744.169Z" style="fill:rgb(132,118,116);fill-rule:nonzero;"/>
        <path d="M308.664,704.424L273.85,757.709L260.206,739.192L251.493,750.326L274.407,766.514L323.027,725.802L308.664,704.424Z" style="fill:rgb(132,160,184);fill-rule:nonzero;"/>
        <rect x="378.18" y="775.48" width="12.497" height="4.353" style="fill:rgb(132,118,116);fill-rule:nonzero;"/>
        <rect x="403.174" y="775.48" width="12.495" height="4.353" style="fill:rgb(132,118,116);fill-rule:nonzero;"/>
        <rect x="503.146" y="775.48" width="12.496" height="4.353" style="fill:rgb(132,118,116);fill-rule:nonzero;"/>
        <rect x="353.185" y="775.48" width="12.498" height="4.353" style="fill:rgb(132,118,116);fill-rule:nonzero;"/>
        <rect x="478.154" y="775.48" width="12.496" height="4.353" style="fill:rgb(132,118,116);fill-rule:nonzero;"/>
        <rect x="453.161" y="775.48" width="12.496" height="4.353" style="fill:rgb(132,118,116);fill-rule:nonzero;"/>
        <rect x="428.167" y="775.48" width="12.496" height="4.353" style="fill:rgb(132,118,116);fill-rule:nonzero;"/>
        <path d="M305.653,845.867L305.653,877.182L250.18,877.182L250.18,821.71L295.074,821.71L297.521,817.358L245.83,817.358L245.83,881.532L310.004,881.532L310.004,842.757L305.653,845.867Z" style="fill:rgb(132,118,116);fill-rule:nonzero;"/>
        <path d="M308.664,806.123L273.85,859.41L260.206,840.891L251.493,852.023L274.407,868.213L323.027,827.501L308.664,806.123Z" style="fill:rgb(132,160,184);fill-rule:nonzero;"/>
        <rect x="378.18" y="877.182" width="12.497" height="4.35" style="fill:rgb(132,118,116);fill-rule:nonzero;"/>
        <rect x="403.174" y="877.182" width="12.495" height="4.35" style="fill:rgb(132,118,116);fill-rule:nonzero;"/>
        <rect x="503.146" y="877.182" width="12.496" height="4.35" style="fill:rgb(132,118,116);fill-rule:nonzero;"/>
        <rect x="353.185" y="877.182" width="12.498" height="4.35" style="fill:rgb(132,118,116);fill-rule:nonzero;"/>
        <rect x="478.154" y="877.182" width="12.496" height="4.35" style="fill:rgb(132,118,116);fill-rule:nonzero;"/>
        <rect x="453.161" y="877.182" width="12.496" height="4.35" style="fill:rgb(132,118,116);fill-rule:nonzero;"/>
        <rect x="428.167" y="877.182" width="12.496" height="4.35" style="fill:rgb(132,118,116);fill-rule:nonzero;"/>
        <path d="M305.653,947.566L305.653,978.88L250.18,978.88L250.18,923.409L295.074,923.409L297.521,919.058L245.83,919.058L245.83,983.232L310.004,983.232L310.004,944.454L305.653,947.566Z" style="fill:rgb(132,118,116);fill-rule:nonzero;"/>
        <path d="M308.664,907.821L273.85,961.109L260.206,942.593L251.493,953.723L274.407,969.911L323.027,929.199L308.664,907.821Z" style="fill:rgb(132,160,184);fill-rule:nonzero;"/>
        <rect x="378.18" y="978.88" width="12.497" height="4.352" style="fill:rgb(132,118,116);fill-rule:nonzero;"/>
        <rect x="403.174" y="978.88" width="12.495" height="4.352" style="fill:rgb(132,118,116);fill-rule:nonzero;"/>
        <rect x="503.146" y="978.88" width="12.496" height="4.352" style="fill:rgb(132,118,116);fill-rule:nonzero;"/>
        <rect x="353.185" y="978.88" width="12.498" height="4.352" style="fill:rgb(132,118,116);fill-rule:nonzero;"/>
        <rect x="478.154" y="978.88" width="12.496" height="4.352" style="fill:rgb(132,118,116);fill-rule:nonzero;"/>
        <rect x="453.161" y="978.88" width="12.496" height="4.352" style="fill:rgb(132,118,116);fill-rule:nonzero;"/>
        <rect x="428.167" y="978.88" width="12.496" height="4.352" style="fill:rgb(132,118,116);fill-rule:nonzero;"/>
        <path d="M509.231,561.562L552.03,551.068L563.122,518.122L476.837,530.025L509.231,561.562Z" style="fill:rgb(236,202,167);"/>
        <path d="M552.03,551.068L563.122,518.122L476.837,530.025L552.309,526.52L552.03,551.068Z" style="fill:rgb(255,223,187);"/>
        <path d="M761.294,239.259C771.879,193.343 825.728,166.557 881.573,179.43C937.416,192.304 974.104,239.962 963.518,285.879C952.934,331.797 899.082,358.583 843.241,345.709C787.397,332.835 750.709,285.176 761.294,239.259Z" style="fill:rgb(54,54,57);fill-rule:nonzero;"/>
        <path d="M942.938,321.963C952.903,312.234 960.097,300.202 963.386,286.438C960.097,300.204 952.906,312.234 942.938,321.963ZM963.387,286.436C963.412,286.33 963.439,286.218 963.464,286.112C963.438,286.219 963.413,286.328 963.387,286.436ZM963.469,286.09C963.475,286.062 963.482,286.033 963.488,286.005C963.482,286.034 963.475,286.062 963.469,286.09ZM963.494,285.983C963.501,285.949 963.51,285.913 963.518,285.879C964.748,280.543 965.34,275.184 965.337,269.858C965.34,275.184 964.748,280.543 963.518,285.879C963.51,285.914 963.501,285.949 963.494,285.983Z" style="fill:white;fill-rule:nonzero;"/>
        <path d="M942.938,321.963C942.115,320.016 941.255,318.082 940.359,316.166C946.664,307.845 951.261,298.314 953.682,287.811C964.479,240.976 927.932,192.566 872.054,179.684C862.88,177.569 853.759,176.549 844.869,176.52C847.725,176.312 850.615,176.207 853.53,176.207C862.686,176.207 872.1,177.246 881.573,179.43C930.926,190.808 965.319,229.355 965.337,269.858C965.34,275.184 964.748,280.543 963.518,285.879C963.51,285.913 963.501,285.949 963.494,285.983C963.492,285.99 963.49,285.998 963.488,286.005C963.482,286.033 963.475,286.062 963.469,286.09C963.467,286.098 963.465,286.104 963.464,286.112C963.439,286.218 963.412,286.33 963.387,286.436L963.386,286.438C960.097,300.202 952.903,312.234 942.938,321.963Z" style="fill:rgb(109,96,93);fill-rule:nonzero;"/>
        <path d="M915.566,437.373C941.064,423.055 982.625,495.921 945.164,519.948C939.53,523.562 927.961,519.956 930.517,509.894C932.162,501.504 946.53,494.087 944.675,503.445C945.277,496.142 933.796,502.593 933.166,509.057C931.597,516.005 942.643,517.148 945.554,513.282C965.277,487.077 931.325,449.626 919.821,455.467C919.288,450.795 922.338,448.639 921.806,443.97L915.566,437.373Z" style="fill:rgb(54,54,57);fill-rule:nonzero;"/>
        <path d="M611.84,429.592C611.84,429.592 595.552,420.045 586.046,424.915C587.369,440.097 552.418,483.437 524.875,458.963C520.809,455.351 522.75,443.755 530.281,446.358C537.34,447.893 543.711,460.966 535.726,459.344C545.89,462.569 538.637,446.3 529.526,443.431C518.638,439.367 513.961,451.182 517.578,457.652C541.633,500.697 625.978,458.619 611.84,429.592Z" style="fill:rgb(54,54,57);fill-rule:nonzero;"/>
        <path d="M938.606,392.254C935.386,385.293 929.772,381.656 923.684,381.629C908.988,297.847 862.259,234.667 746.465,235.831C625.297,237.047 584.089,305.506 578.674,401.108L578.673,401.104C568.586,392.223 556.141,394.751 550.881,406.758C545.616,418.76 549.53,435.699 559.615,444.583C565.799,450.028 572.864,451.165 578.625,448.475C581.881,518.111 621.619,604.434 655.259,673.054C696.345,684.166 730.546,690.287 761.429,691.195C799.027,692.3 832.489,687.796 866.693,673.054C904.963,606.369 932.224,511.917 928.863,431.725C929.457,431.268 930.052,430.78 930.634,430.248C940.535,421.165 944.108,404.153 938.606,392.254Z" style="fill:rgb(236,202,167);"/>
        <path d="M707.227,474.959C708.98,481.117 714.677,485.597 721.387,485.529C724.026,485.503 726.495,484.774 728.619,483.523C727.685,483.647 726.732,483.718 725.762,483.728C718.281,483.803 711.584,480.368 707.227,474.959Z" style="fill:rgb(54,54,57);"/>
        <path d="M707.227,474.959C707.227,474.959 712.259,479.53 718.046,481.571C723.823,483.608 728.619,483.523 728.619,483.523C727.685,483.647 726.732,483.718 725.762,483.728C718.281,483.803 711.584,480.368 707.227,474.959Z" style="fill:rgb(255,223,187);"/>
        <path d="M616.111,254.693C645.633,224.573 737.737,186.576 778.194,238.091C791.964,293.121 591.013,339.512 578.674,401.108C568.679,369.724 561.258,310.659 616.111,254.693Z" style="fill:rgb(54,54,57);"/>
        <path d="M616.111,254.693C616.127,254.677 616.142,254.661 616.157,254.646C616.143,254.661 616.126,254.678 616.111,254.693ZM616.188,254.615C616.191,254.611 616.194,254.609 616.197,254.605C616.193,254.609 616.191,254.611 616.188,254.615Z" style="fill:white;fill-rule:nonzero;"/>
        <path d="M578.674,401.108C574.994,389.554 571.663,374.247 571.66,356.724C571.655,326.653 581.453,290.054 616.111,254.693C616.126,254.678 616.143,254.661 616.157,254.646C616.167,254.636 616.178,254.625 616.188,254.615C616.191,254.611 616.193,254.609 616.197,254.605C630.092,240.482 657.709,224.648 687.29,217.132C660.834,226.64 637.021,241.768 624.635,254.405C569.784,310.37 568.679,369.724 578.674,401.108Z" style="fill:rgb(162,148,144);fill-rule:nonzero;"/>
        <path d="M884.031,241.313C853.91,211.79 746.591,189.816 707.177,242.132C750.398,370.165 940.05,331.651 928.416,465.559C985.347,368.138 939.999,296.167 884.031,241.313Z" style="fill:rgb(54,54,57);"/>
        <path d="M736.209,290.582C723.918,277.545 713.817,261.801 707.177,242.132C713.817,261.801 723.918,277.545 736.209,290.582ZM707.239,242.05C707.241,242.047 707.243,242.044 707.245,242.041C707.243,242.044 707.241,242.047 707.239,242.05Z" style="fill:rgb(162,148,144);fill-rule:nonzero;"/>
        <path d="M928.416,465.559C928.762,461.571 928.93,457.735 928.929,454.044C928.89,352.838 801.541,359.879 736.209,290.582C723.918,277.545 713.817,261.801 707.177,242.132C707.197,242.105 707.218,242.077 707.239,242.05C707.241,242.047 707.243,242.044 707.245,242.041C709.989,238.413 713.072,235.155 716.421,232.221C762.696,354.051 938.991,334.48 928.499,465.414L928.416,465.559Z" style="fill:rgb(162,148,144);fill-rule:nonzero;"/>
        <path d="M600.72,338.726C613.208,334.131 625.532,328.859 637.317,322.397C643.217,319.202 648.978,315.713 654.52,311.918C660.066,308.133 665.422,304.066 670.458,299.669C672.974,297.475 675.411,295.197 677.771,292.858C678.363,292.272 678.944,291.684 679.52,291.089L680.388,290.195C680.675,289.895 680.965,289.596 681.223,289.315C682.293,288.155 683.294,286.941 684.212,285.687C686.034,283.182 687.547,280.508 688.429,277.863C689.311,275.224 689.476,272.634 688.582,270.653C687.711,268.659 685.781,267.26 683.359,266.43C680.934,265.594 678.092,265.275 675.167,265.228C674.943,265.225 674.718,265.223 674.492,265.223C671.765,265.223 668.95,265.446 666.116,265.792C664.58,265.981 663.027,266.214 661.486,266.475C659.951,266.739 658.426,267.046 656.9,267.405C650.805,268.842 644.77,271.061 639.123,274.185C636.301,275.744 633.574,277.504 630.981,279.455C628.389,281.404 625.93,283.543 623.635,285.832C619.036,290.408 615.072,295.569 611.84,301.021C610.217,303.745 608.77,306.542 607.53,309.379C606.91,310.798 606.342,312.228 605.842,313.658C605.332,315.085 604.884,316.521 604.541,317.93C604.37,318.632 604.223,319.333 604.126,319.998C604.08,320.329 604.058,320.555 604.063,320.792C604.066,321.018 604.097,321.215 604.15,321.378C604.259,321.698 604.432,321.909 604.78,322.099C605.126,322.286 605.649,322.402 606.254,322.438C606.408,322.447 606.567,322.451 606.728,322.451C607.846,322.451 609.129,322.249 610.414,321.957C611.898,321.619 613.411,321.159 614.927,320.638C617.96,319.596 621.002,318.334 624.013,316.957C627.026,315.576 630.011,314.082 632.971,312.513C638.897,309.382 644.731,305.981 650.415,302.315C653.26,300.488 656.069,298.59 658.803,296.589C661.546,294.595 664.23,292.508 666.717,290.19C665.583,291.442 664.363,292.632 663.107,293.787C661.851,294.939 660.563,296.062 659.25,297.152C656.61,299.33 653.895,301.41 651.126,303.423C648.356,305.433 645.525,307.353 642.663,309.225C639.796,311.087 636.895,312.905 633.939,314.618C630.981,316.336 627.99,317.983 624.935,319.526C621.881,321.066 618.774,322.521 615.559,323.746C613.946,324.351 612.31,324.904 610.617,325.344C608.998,325.754 607.331,326.096 605.55,326.096C605.471,326.096 605.393,326.095 605.315,326.094C604.377,326.066 603.393,325.938 602.453,325.504C601.983,325.286 601.537,324.986 601.167,324.599C600.791,324.218 600.506,323.752 600.316,323.26C600.125,322.769 600.031,322.256 599.998,321.758C599.964,321.267 600,320.745 600.048,320.328C600.144,319.496 600.288,318.691 600.455,317.891C601.135,314.703 602.192,311.61 603.451,308.552C604.714,305.499 606.196,302.491 607.871,299.552C611.245,293.681 615.42,288.056 620.382,283.024C625.342,277.999 631.075,273.572 637.28,270.146C643.483,266.707 650.089,264.225 656.68,262.71C658.325,262.329 659.978,262 661.617,261.726C663.251,261.451 664.875,261.214 666.504,261.016C669.348,260.671 672.199,260.449 675.041,260.449C675.459,260.449 675.876,260.454 676.294,260.464C679.542,260.546 682.81,260.906 685.877,261.987C687.403,262.534 688.871,263.273 690.148,264.301C691.423,265.327 692.476,266.66 693.135,268.218C693.796,269.774 694.042,271.523 693.953,273.257C693.871,274.998 693.475,276.726 692.902,278.39C691.74,281.722 689.902,284.803 687.762,287.647C686.684,289.071 685.518,290.435 684.277,291.74C683.959,292.074 683.654,292.377 683.351,292.683L682.434,293.598C681.818,294.207 681.197,294.807 680.573,295.404C678.065,297.789 675.465,300.078 672.8,302.286C667.463,306.693 661.857,310.761 656.053,314.45C650.24,318.133 644.255,321.462 638.167,324.477C625.963,330.445 613.378,335.17 600.72,338.726Z" style="fill:rgb(162,148,144);fill-rule:nonzero;"/>
        <path d="M883.33,313.636C871.08,311.611 858.775,308.484 846.7,304.15C840.671,301.952 834.707,299.446 828.87,296.597C823.037,293.735 817.354,290.499 811.888,286.915C809.154,285.12 806.478,283.242 803.876,281.263C803.226,280.767 802.587,280.268 801.941,279.761L800.989,278.996C800.669,278.741 800.354,278.488 800.02,278.205C798.718,277.11 797.481,275.953 796.326,274.729C794.019,272.281 791.973,269.579 790.536,266.572C789.826,265.071 789.271,263.49 789.014,261.864C788.753,260.244 788.807,258.576 789.261,257.05C789.714,255.519 790.572,254.157 791.659,253.061C792.749,251.964 794.053,251.116 795.428,250.445C798.191,249.113 801.223,248.435 804.262,248.019C806.999,247.651 809.769,247.517 812.549,247.517C812.87,247.517 813.192,247.519 813.513,247.522C815.066,247.537 816.608,247.592 818.174,247.68C819.737,247.768 821.327,247.905 822.912,248.093C829.253,248.83 835.713,250.474 841.89,253.059C848.073,255.631 853.916,259.19 859.089,263.392C864.269,267.599 868.775,272.446 872.551,277.607C874.429,280.192 876.132,282.862 877.632,285.596C879.134,288.335 880.445,291.131 881.415,294.053C881.656,294.786 881.875,295.524 882.054,296.296C882.14,296.682 882.227,297.168 882.246,297.632C882.265,298.107 882.231,298.596 882.105,299.079C881.977,299.556 881.754,300.025 881.444,300.422C881.137,300.823 880.745,301.152 880.332,301.402C879.492,301.91 878.578,302.133 877.706,302.255C877.099,302.334 876.502,302.366 875.912,302.366C874.8,302.366 873.716,302.25 872.648,302.103C871.018,301.865 869.42,301.517 867.844,301.115C864.699,300.301 861.634,299.254 858.604,298.13C855.578,296.996 852.597,295.763 849.643,294.458C846.691,293.153 843.781,291.749 840.896,290.299C838.013,288.84 835.158,287.331 832.349,285.732C829.543,284.128 826.777,282.46 824.076,280.69C822.727,279.802 821.401,278.882 820.104,277.93C818.807,276.976 817.538,275.985 816.34,274.93C818.918,276.847 821.652,278.527 824.435,280.115C827.209,281.709 830.042,283.198 832.901,284.618C838.621,287.469 844.448,290.056 850.335,292.381C853.276,293.546 856.236,294.639 859.208,295.619C862.174,296.603 865.16,297.471 868.115,298.133C869.594,298.465 871.06,298.739 872.487,298.9C873.269,298.99 874.046,299.046 874.776,299.046C875.37,299.046 875.933,299.009 876.442,298.922C877.009,298.826 877.486,298.662 877.792,298.45C878.1,298.236 878.239,298.021 878.307,297.708C878.34,297.549 878.347,297.362 878.331,297.149C878.31,296.926 878.266,296.715 878.185,296.409C878.027,295.795 877.818,295.155 877.584,294.512C877.112,293.226 876.547,291.926 875.92,290.638C875.299,289.348 874.615,288.065 873.891,286.798C872.43,284.263 870.785,281.786 868.978,279.397C865.378,274.616 861.118,270.184 856.329,266.366C853.935,264.455 851.408,262.702 848.767,261.141C846.133,259.581 843.393,258.21 840.579,257.042C834.957,254.695 829.061,253.239 823.188,252.522C821.72,252.344 820.258,252.212 818.785,252.126C817.315,252.041 815.831,251.984 814.371,251.965C814.02,251.961 813.67,251.959 813.32,251.959C810.759,251.959 808.24,252.073 805.819,252.375C803.079,252.723 800.443,253.318 798.252,254.355C796.062,255.386 794.399,256.899 793.79,258.859C793.153,260.814 793.577,263.227 794.68,265.612C795.784,268.002 797.48,270.358 799.453,272.518C800.441,273.6 801.508,274.636 802.636,275.613C802.907,275.85 803.207,276.103 803.511,276.355L804.414,277.106C805.017,277.602 805.631,278.093 806.242,278.581C808.698,280.532 811.224,282.418 813.813,284.216C818.998,287.819 824.446,291.08 830.047,294.057C835.645,297.046 841.41,299.722 847.28,302.109C859.011,306.949 871.127,310.619 883.33,313.636Z" style="fill:rgb(162,148,144);fill-rule:nonzero;"/>
        <path d="M696.209,522.851C694.871,522.223 694.605,521.616 695.964,521.107C705.848,517.402 714.716,504.028 725.14,503.504C730.837,503.216 736.234,507.082 740.507,506.797C744.889,506.502 748.849,500.126 754.776,499.826C764.572,499.333 769.35,507.176 787.861,514.054C755.765,521.424 725.042,524.731 696.209,522.851Z" style="fill:rgb(221,169,147);"/>
        <path d="M792.179,609.988C791.923,610.314 791.672,610.647 791.406,610.965L791.405,610.949C772.942,633.182 735.951,632.639 709.814,607.965L709.814,607.977C708.203,606.455 706.645,604.816 705.125,603.111C732.775,611.128 763.729,613.283 792.179,609.988Z" style="fill:rgb(221,169,147);fill-rule:nonzero;"/>
        <path d="M862.984,493.462C887.414,529.093 886.821,556.915 871.623,576.741C891.738,555.824 895.089,525.381 867.629,485.929L867.599,485.721C853.585,492.957 839.991,499.115 826.796,504.262C838.696,501.011 850.757,497.331 862.961,493.263L862.984,493.462Z" style="fill:rgb(54,54,57);fill-rule:nonzero;"/>
        <path d="M670.041,516.086C651.601,510.551 634.027,502.394 617.155,491.9C611.459,528.287 625.695,556.048 650.204,575.527C628.228,556.843 615.322,531.138 619.332,498.28C635.18,506.64 652.135,512.472 670.041,516.086Z" style="fill:rgb(54,54,57);fill-rule:nonzero;"/>
        <path d="M619.332,498.28C624.097,500.792 628.952,503.067 633.912,505.131C642.642,508.771 651.67,511.72 660.973,514.038L660.959,514.036C669.301,518.96 678.339,523.064 687.801,526.346L691.834,519.345C692.057,519.367 692.276,519.384 692.5,519.407L690.209,527.154C719.476,536.814 752.422,538.764 780.714,533.146L780.892,525.657L782.424,532.779C796.612,529.787 809.568,524.876 820.221,518.057L815.618,509.048L822.221,516.765C828.883,512.228 834.553,506.898 838.965,500.796C846.901,498.457 854.897,495.95 862.961,493.263L862.984,493.462C889.623,532.313 886.5,561.874 867.143,581.908C859.321,579.405 851.362,577.451 843.358,576.051L838.131,586.444L840.677,575.603C790.777,567.614 739.604,580.202 710.085,605.373C696.225,601.586 683.021,596.424 671.178,589.871L671.168,589.883C637.033,570.989 614.169,540.564 619.332,498.28Z" style="fill:rgb(141,75,56);fill-rule:nonzero;"/>
        <path d="M726.364,573.994C727.887,579.789 730.039,585.337 732.689,590.565C762.26,575.633 801.855,569.386 840.677,575.603L838.131,586.444L843.358,576.051C844.235,576.204 845.109,576.369 845.984,576.536C845.665,571.911 844.891,567.157 843.617,562.327C839.182,545.461 829.516,530.638 817.211,519.887C807.165,525.761 795.307,530.062 782.424,532.779L780.892,525.657L780.714,533.146C763.871,536.492 745.385,537.128 727.001,535.082C723.146,546.464 722.652,559.905 726.364,573.994Z" style="fill:rgb(121,56,55);fill-rule:nonzero;"/>
        <path d="M725.945,548.765C731.924,546.886 738.361,545.438 744.93,544.407C734.636,549.897 725.932,556.399 720.35,563.422C732.6,554.205 749.248,545.281 766.045,542.503C788.783,538.743 820.01,565.207 823.381,573.369C828.804,586.505 790.394,584.157 757.682,594.432C724.973,604.705 698.685,599.256 693.264,586.121C687.841,572.98 693.235,559.038 725.945,548.765Z" style="fill:rgb(193,139,119);fill-rule:nonzero;"/>
        <path d="M840.677,575.603L838.131,586.444L843.358,576.051C851.362,577.451 859.321,579.405 867.143,581.908C862.568,586.65 857.088,590.856 850.873,594.528L850.867,594.508C816.27,614.943 759.067,618.754 710.085,605.373C739.604,580.202 790.777,567.614 840.677,575.603Z" style="fill:rgb(238,239,241);fill-rule:nonzero;"/>
        <path d="M834.146,502.206C835.748,501.748 837.359,501.268 838.966,500.794C834.553,506.898 828.883,512.228 822.221,516.765L815.618,509.048L820.221,518.057C809.568,524.876 796.612,529.787 782.424,532.779L780.892,525.657L780.714,533.146C752.422,538.764 719.476,536.814 690.209,527.154L692.5,519.407C735.613,523.668 783.468,516.72 834.146,502.206Z" style="fill:rgb(238,239,241);fill-rule:nonzero;"/>
        <path d="M691.834,519.345L687.801,526.346C678.339,523.064 669.301,518.96 660.959,514.036C670.942,516.526 681.247,518.27 691.834,519.345Z" style="fill:rgb(238,239,241);fill-rule:nonzero;"/>
        <path d="M638.455,563.801C639.878,565.483 641.364,567.118 642.914,568.711C641.365,567.118 639.878,565.483 638.455,563.801Z" style="fill:rgb(242,224,208);fill-rule:nonzero;"/>
        <path d="M648.464,574.108C625.027,554.707 611.595,527.417 617.155,491.9C621.897,494.848 626.703,497.591 631.56,500.167C630.988,496.442 627.414,472.723 626.92,463.495C625.381,434.799 628.501,363.103 630.691,348.607C603.511,365.154 582.416,382.431 578.674,401.108L578.673,401.104C568.586,392.223 556.141,394.751 550.881,406.758C545.616,418.76 549.53,435.699 559.615,444.583C565.799,450.028 572.864,451.165 578.625,448.475C581.881,518.111 621.619,604.434 655.259,673.054C670.577,677.199 684.926,680.63 698.516,683.375C678.075,651.688 660.996,614.762 648.464,574.108Z" style="fill:rgb(242,224,208);fill-rule:nonzero;"/>
        <path d="M634.232,558.425C632.97,556.681 631.775,554.892 630.649,553.062C631.774,554.895 632.971,556.682 634.232,558.425Z" style="fill:rgb(242,224,208);fill-rule:nonzero;"/>
        <path d="M625.883,544.148C626.76,546.071 627.71,547.95 628.731,549.789C627.71,547.95 626.76,546.069 625.883,544.148Z" style="fill:rgb(242,224,208);fill-rule:nonzero;"/>
        <path d="M584.316,427.896C581.406,416.149 567.246,409.946 560.489,423.232C560.636,422.762 560.801,422.299 560.982,421.839C564.037,414.286 572.389,410.361 578.98,416.333C572.122,407.214 558.71,403.718 551.986,415.65C564.363,391.241 586.382,414.023 584.316,427.896Z" style="fill:rgb(54,54,57);"/>
        <path d="M633.492,422.577L633.489,422.578C627.509,415.05 626.039,404.818 629.637,395.928C629.782,404.832 632.685,413.627 638.137,420.964C638.945,420.719 639.758,420.485 640.58,420.275C644.599,419.247 648.584,418.685 652.495,418.549L652.492,418.549C651.818,407.877 657.587,397.893 666.927,393.095C661.014,400.178 657.426,409.1 656.954,418.584L656.933,418.583C661.523,418.807 665.98,419.628 670.234,420.989C675.447,411.485 685.853,406.152 696.415,407.25C687.806,409.883 680.082,415.184 674.529,422.574C686.631,427.659 696.732,437.281 702.926,450.078C686.584,433.03 662.699,425.302 637.852,431.66C622.072,435.697 608.211,444.829 597.504,457.082C605.055,441.468 617.787,428.782 633.492,422.577Z" style="fill:rgb(54,54,57);fill-rule:nonzero;"/>
        <path d="M789.842,411.69C785.964,404.258 780.032,398.187 772.887,394.128C782.813,395.286 791.359,401.977 794.844,411.439C799.459,411.372 804.227,411.762 809.101,412.643C810.394,403.659 808.806,394.609 804.753,386.744C812.521,393.211 815.993,403.649 813.578,413.58C818.71,414.814 823.682,416.539 828.435,418.697C834.454,412.927 838.616,405.583 840.527,397.64C841.947,406.186 839.083,414.888 833.007,420.946C845.891,427.745 856.936,437.725 864.916,449.449C850.871,437.132 833.581,428.146 814.733,424.499C785.059,418.754 758.358,427.55 741.641,445.739C749.522,426.459 767.577,413.65 789.842,411.69Z" style="fill:rgb(54,54,57);fill-rule:nonzero;"/>
        <path d="M761.318,656.281C782.201,656.281 801.553,651.865 817.452,644.341C803.146,656.746 780.846,664.732 755.769,664.732C721.198,664.732 691.891,649.566 681.572,628.546C699.344,645.337 728.439,656.281 761.318,656.281Z" style="fill:rgb(54,54,57);"/>
        <path d="M681.572,628.546C699.344,645.337 738.633,650.449 758.998,651.716C773.294,652.604 801.553,651.865 817.452,644.341C801.553,651.865 782.201,656.281 761.318,656.281C728.439,656.281 699.344,645.337 681.572,628.546Z" style="fill:rgb(255,223,187);"/>
    </g>
    <defs>
        <radialGradient id="_Radial1" cx="0" cy="0" r="1" gradientUnits="userSpaceOnUse" gradientTransform="matrix(319.19,0,0,55.2969,771.341,1081.78)"><stop offset="0%" style="stop-color:rgb(199,190,188);stop-opacity:1"/><stop offset="80%" style="stop-color:white;stop-opacity:1"/><stop offset="80%" style="stop-color:white;stop-opacity:1"/><stop offset="100%" style="stop-color:white;stop-opacity:1"/></radialGradient>
    </defs>
</svg>
