<?xml version="1.0" encoding="UTF-8" standalone="no"?>
<!DOCTYPE svg PUBLIC "-//W3C//DTD SVG 1.1//EN" "http://www.w3.org/Graphics/SVG/1.1/DTD/svg11.dtd">
<svg width="100%" height="100%" viewBox="0 0 4963 4963" version="1.1" xmlns="http://www.w3.org/2000/svg" xmlns:xlink="http://www.w3.org/1999/xlink" xml:space="preserve" style="fill-rule:evenodd;clip-rule:evenodd;stroke-linejoin:round;stroke-miterlimit:1.41421;">
    <g transform="matrix(4.16667,0,0,4.16667,0,0)">
        <rect x="0" y="0" width="1191" height="1191" style="fill:white;fill-rule:nonzero;"/>
        <path d="M1000.55,811.73L962.358,630.843C977.259,626.889 990.086,616.03 995.919,600.5C1002.69,582.468 998.218,562.97 986.001,549.708L1083.56,435.043C1086.89,437.372 1090.56,439.325 1094.54,440.818C1095.58,441.209 1096.62,441.558 1097.67,441.874L1016.11,811.715C1010.87,810.879 1005.63,810.91 1000.55,811.73ZM966.521,834.32L665.742,665.691C666.12,664.834 666.479,663.961 666.813,663.072C669.759,655.229 670.574,647.105 669.553,639.341L903.62,600.603C908.467,613.405 918.586,624.139 932.408,629.33C940.54,632.384 948.97,633.148 956.992,631.95L995.194,812.906C983.519,816.152 973.163,823.652 966.521,834.32ZM718.567,848.349C716.981,830.008 705.144,813.301 686.76,806.396C678.438,803.271 669.807,802.543 661.619,803.861L636.05,692.582C647.259,688.887 657.065,681.217 663.251,670.578L963.891,839.129C963.276,840.412 962.71,841.732 962.199,843.094C960.553,847.476 959.571,851.947 959.204,856.396L718.567,848.349ZM623.249,835.227C619.681,844.728 619.236,854.633 621.398,863.82L477.311,915.853C473.98,907.533 468.403,900.139 461.022,894.637L596.364,688.668C598.557,689.904 600.871,690.99 603.302,691.902C612.409,695.324 621.892,695.875 630.757,694.008L656.265,805.035C641.599,809.107 629.011,819.887 623.249,835.227ZM448.861,888.002C425.822,879.349 400.389,889.053 388.631,909.813L134.848,773.916C136.398,771.352 137.738,768.609 138.83,765.703C140.565,761.08 141.56,756.361 141.876,751.674L336.804,743.432C338.842,761.238 350.546,777.295 368.477,784.029C393.976,793.607 422.411,780.697 431.988,755.199C436.023,744.455 436.066,733.189 432.857,723.033L575.659,665.949C579.149,673.715 584.64,680.582 591.749,685.711L456.452,891.613C454.067,890.219 451.533,889.006 448.861,888.002ZM141.942,746.187C141.271,731.141 133.691,716.984 121.213,708.139L249.812,529.759C252.806,531.722 256.058,533.388 259.551,534.699C285.05,544.276 313.485,531.369 323.063,505.868C325.878,498.371 326.749,490.618 325.927,483.166L498.154,460.404C500.9,473.573 508.981,485.383 520.919,492.587L408.359,693.99C406.689,693.137 404.956,692.363 403.157,691.689C377.658,682.111 349.223,695.019 339.647,720.518C337.488,726.267 336.476,732.164 336.488,737.961L141.942,746.187ZM276.087,439.203L261.086,263.114C277.522,260.066 292.004,248.737 298.309,231.948C298.696,230.918 299.042,229.883 299.355,228.845L479.56,292.614C476.117,305.749 478.347,319.286 484.94,330.346L314.203,456.264C308.988,450.222 302.229,445.362 294.231,442.359C288.251,440.113 282.109,439.102 276.087,439.203ZM444.207,145.351C449.687,155.254 458.581,163.334 470.008,167.625C476.644,170.117 483.477,171.082 490.126,170.705L510.171,258.808C497.325,263.568 486.525,273.625 481.243,287.396L300.659,223.494C302.332,214.419 301.371,205.279 298.208,197.009L444.207,145.351ZM533.519,138.794C534.578,135.976 535.36,133.121 535.883,130.261L765.087,153.103C763.959,162.92 765.845,172.682 770.212,181.203L569.554,279.652C564.024,270.442 555.462,262.964 544.625,258.894C534.915,255.247 524.78,254.863 515.422,257.191L495.604,170.083C512.325,167.228 527.125,155.819 533.519,138.794ZM497.336,454.984L325.023,477.758C323.643,471.619 321.101,465.791 317.547,460.607L488.006,334.894C493.44,342.064 500.899,347.837 509.945,351.234C516.141,353.561 522.508,354.557 528.739,354.371L536.477,402.078C520.466,405.398 506.453,416.602 500.278,433.042C497.558,440.285 496.654,447.766 497.336,454.984ZM777.489,191.756L578.241,412.664C574.055,409.136 569.207,406.246 563.789,404.211C556.562,401.497 549.1,400.59 541.897,401.263L534.215,353.902C551.475,351.436 566.893,339.878 573.456,322.404C578.269,309.588 577.4,296.033 572.111,284.502L772.989,185.945C774.337,187.984 775.84,189.928 777.489,191.756ZM796.756,204.864C797.771,205.246 798.791,205.588 799.815,205.899L787.097,322.919C770.215,325.661 755.23,337.117 748.786,354.275C744.619,365.37 744.711,377.018 748.241,387.429L593.107,434.398C590.821,427.737 587.123,421.589 582.229,416.425L781.386,195.618C785.776,199.509 790.937,202.679 796.756,204.864ZM853.37,188.542L1081.24,355.989C1074.45,361.365 1068.98,368.602 1065.71,377.307C1064.1,381.599 1063.13,385.973 1062.74,390.326L843.613,379.715C847.432,356.923 834.746,333.876 812.297,325.445C805.825,323.014 799.165,322.035 792.672,322.34L805.186,207.21C823.571,210.609 842.236,203.202 853.37,188.542ZM766.974,412.238C770.215,414.466 773.771,416.342 777.616,417.786C788.855,422.007 800.661,421.858 811.174,418.191L915.234,547.919C910.235,552.809 906.199,558.842 903.578,565.82C899.893,575.634 899.541,585.883 901.953,595.325L668.536,633.954C665.733,622.605 658.942,612.392 649.131,605.461L766.974,412.238ZM567.204,495.117C578.53,489.863 587.883,480.334 592.619,467.722C596.116,458.41 596.612,448.708 594.595,439.674L750.296,392.533C753.191,398.714 757.361,404.302 762.613,408.863L644.484,602.555C642.421,601.419 640.253,600.415 637.982,599.563C627.729,595.711 617.002,595.498 607.216,598.275L567.204,495.117ZM573.692,660.834L430.917,717.908C427.175,709.449 421.073,702.039 413.091,696.756L525.763,495.153C526.853,495.656 527.967,496.124 529.108,496.552C540.149,500.699 551.74,500.627 562.113,497.146L602.032,600.063C589.746,605.072 579.505,614.991 574.472,628.393C570.4,639.234 570.395,650.605 573.692,660.834ZM1079.26,431.649L982.059,545.883C977.757,542.153 972.731,539.108 967.088,536.989C950.4,530.722 932.456,534.085 919.362,544.306L816.446,416.006C827.444,410.685 836.494,401.295 841.128,388.956C841.603,387.692 842.02,386.419 842.386,385.142L1062.56,395.805C1062.89,409.51 1068.96,422.564 1079.26,431.649ZM1025.71,814.262C1024.3,813.734 1022.89,813.277 1021.47,812.887L1102.99,443.169C1126.04,447.416 1149.52,434.693 1158.05,411.987C1167.63,386.488 1154.72,358.054 1129.22,348.478C1114.37,342.9 1098.52,344.951 1085.98,352.672L856.439,183.998C857.925,181.505 859.211,178.847 860.267,176.034C869.844,150.535 856.935,122.1 831.435,112.523C805.936,102.947 777.503,115.855 767.926,141.354C767.139,143.45 766.506,145.565 766.019,147.688L536.563,124.821C538.02,103.64 525.584,83.131 504.688,75.284C479.19,65.707 450.755,78.615 441.179,104.114C436.59,116.33 437.166,129.218 441.811,140.385L295.965,191.99C290.558,181.503 281.392,172.912 269.478,168.438C243.979,158.86 215.545,171.769 205.968,197.268C196.392,222.767 209.299,251.201 234.798,260.777C241.676,263.36 248.768,264.305 255.646,263.811L270.621,439.604C253.095,441.865 237.367,453.494 230.721,471.188C223.13,491.401 229.668,513.456 245.404,526.503L116.562,705.219C114.481,704.068 112.292,703.051 109.999,702.191C84.499,692.613 56.065,705.523 46.488,731.022C36.912,756.519 49.819,784.955 75.318,794.531C96.113,802.342 118.858,795.197 131.738,778.467L386.198,914.728C385.902,915.42 385.618,916.121 385.351,916.832C375.774,942.33 388.681,970.767 414.181,980.344C439.68,989.92 468.115,977.012 477.691,951.512C481.502,941.363 481.749,930.752 479.062,921.047L622.952,869.088C627.655,882.295 637.927,893.424 652.079,898.738C677.578,908.315 706.013,895.406 715.59,869.908C717.579,864.611 718.595,859.191 718.733,853.838L959.063,861.873C959.637,881.289 971.722,899.351 991.029,906.603C1016.53,916.18 1044.96,903.273 1054.54,877.773C1064.12,852.273 1051.21,823.84 1025.71,814.262Z" style="fill:rgb(124,195,219);fill-rule:nonzero;"/>
        <path d="M1069.06,1138.38C1069.06,1160.04 967.733,1177.59 842.744,1177.59C717.751,1177.59 616.426,1160.04 616.426,1138.38C616.426,1116.73 717.751,1099.18 842.744,1099.18C967.733,1099.18 1069.06,1116.73 1069.06,1138.38Z" style="fill:url(#_Radial1);"/>
        <path d="M924.677,957.032L922.901,947.301L914.456,940.6L914.817,955.068L924.677,957.032Z" style="fill:rgb(234,195,159);"/>
        <path d="M748.999,957.329L751.726,947.82L760.792,941.987L759.004,956.349L748.999,957.329Z" style="fill:rgb(234,195,159);"/>
        <path d="M918.318,1117.05C912.76,1115.21 907.2,1113.36 901.639,1111.52C898.744,1116.77 896.008,1123.13 893.111,1128.38C907.524,1136.85 925.796,1143.72 941.482,1145.26C941.909,1133.41 936.289,1125.63 918.318,1117.05Z" style="fill:black;"/>
        <path d="M755.325,1117.05C737.354,1125.63 731.734,1133.41 732.161,1145.26C747.846,1143.72 766.119,1136.85 780.532,1128.38C777.637,1123.13 774.898,1116.77 772.004,1111.52C766.444,1113.36 760.883,1115.21 755.325,1117.05Z" style="fill:black;"/>
        <path d="M756.345,999.22L756.345,1115C756.345,1115 760.788,1118.78 766.085,1118.78C771.76,1118.78 775.135,1115 775.135,1115L775.135,1023.16C821.747,1042.72 857,1042.72 898.516,1023.65L898.516,1115C898.516,1115 902.659,1118.02 909.784,1118.02C916.09,1118.02 918.821,1115 918.821,1115C918.821,1115 918.821,1033.11 918.821,999.22C918.821,998.437 756.345,999.22 756.345,999.22Z" style="fill:rgb(12,51,63);"/>
        <path d="M756.345,841.928L756.345,999.22C810.504,1011.97 864.662,1012.79 918.821,999.22C918.821,978.852 918.821,915.359 918.821,915.359C918.821,890.883 918.821,866.406 918.821,841.928L756.345,841.928Z" style="fill:rgb(226,242,237);"/>
        <path d="M894.602,680.02L908.698,680.02L931.514,699.53L928.58,735.925L894.602,680.02Z" style="fill:black;"/>
        <path d="M843.297,930.08L852.615,913.943L828.066,913.943L839.6,933.92L835.634,987.515L854.735,1004.05L867.061,987.515L843.297,930.08Z" style="fill:rgb(116,177,203);"/>
        <path d="M938.688,751.416C936.934,747.521 933.824,745.461 930.432,745.412C922.714,698.648 897.03,663.185 832.505,663.185C764.986,663.185 741.643,701.098 738.091,754.336L738.088,754.332C732.519,749.327 725.57,750.668 722.572,757.327C719.572,763.986 721.658,773.447 727.228,778.451C730.643,781.521 734.574,782.192 737.797,780.727C739.223,819.545 747.901,863.711 756.345,906.286C812.36,921.614 866.201,918.986 918.821,906.286C924.817,868.048 934.464,818.055 933.039,773.353C933.373,773.102 933.706,772.834 934.033,772.54C939.603,767.535 941.686,758.076 938.688,751.416Z" style="fill:rgb(234,195,159);"/>
        <path d="M904.996,658.753C909.194,651.537 910.887,642.018 909.198,629.393C888.324,647.003 859.915,644.466 832.603,641.928C789.968,637.966 750.005,634.004 745.545,706.689L735.155,717.938L738.088,754.332L770.366,696.934C794.03,685.799 822.763,687.312 850.46,688.826C891.906,691.09 931.032,693.354 947.377,653.237C935.668,658.679 920.964,659.58 904.996,658.753Z" style="fill:black;"/>
        <path d="M745.555,706.519C746.172,696.611 747.448,688.135 749.304,680.888C747.45,688.133 746.172,696.616 745.555,706.519Z" style="fill:white;fill-rule:nonzero;"/>
        <path d="M738.088,754.332L735.155,717.938L745.545,706.689C745.548,706.632 745.552,706.575 745.555,706.519C746.172,696.616 747.45,688.133 749.304,680.888C757.94,647.161 779.084,640.127 804.326,640.127C805.153,640.127 805.99,640.135 806.826,640.149C781.639,643.962 760.125,659.016 752.877,705.901L739.413,718.709L738.088,754.332Z" style="fill:rgb(93,97,99);fill-rule:nonzero;"/>
        <path d="M806.692,688.286C793.881,689.233 781.557,691.669 770.366,696.935L738.091,754.327L738.091,754.336L738.088,754.332C732.52,749.327 725.57,750.668 722.572,757.327C719.572,763.986 721.658,773.447 727.229,778.451C730.644,781.521 734.574,782.192 737.797,780.728C739.223,819.545 747.901,863.711 756.345,906.286C764.883,908.623 773.372,910.54 781.815,912.066C765.281,819.543 757.797,730.332 806.692,688.286Z" style="fill:rgb(254,216,178);"/>
        <path d="M727.189,939.222L765.2,922.391L756.345,906.286L717.42,939.385L745.578,975.344L750.669,956.954L727.189,939.222Z" style="fill:rgb(226,242,237);"/>
        <path d="M725.22,939.222L742.843,951.043L727.189,939.222L750.772,928.779L725.22,939.222Z" style="fill:rgb(204,219,215);"/>
        <path d="M949.344,948.252L909.966,922.391L918.821,906.286L958.702,947.759L931.146,977.806L924.25,960.32L949.344,948.252Z" style="fill:rgb(226,242,237);"/>
        <path d="M951.313,948.252L930.511,935.885L949.344,948.252L932.614,956.297L951.313,948.252Z" style="fill:rgb(204,219,215);"/>
        <path d="M811.054,853.76L813.635,859.896L813.278,853.346C817.159,852.651 821.09,852.115 825.024,851.728C815.052,850.838 805.839,848.722 798.434,845.369L799.854,836.104L795.87,844.119C781.909,836.807 775.709,824.56 785.732,807.38C834.021,821.004 878.306,824.009 914.521,808.75C913.159,822.947 902.854,833.646 888.535,840.883L882.465,831.479L885.41,842.379C880.369,844.666 874.91,846.559 869.21,848.048L867.115,843.704L867.654,848.437C862.192,849.785 856.536,850.767 850.851,851.393C866.851,852.617 881.256,856.603 890.771,863.345C856.306,882.596 803.828,883.537 775.213,866.787C785.368,860.665 797.88,856.324 811.054,853.76Z" style="fill:rgb(234,241,243);"/>
        <path d="M782.788,813.415C783.541,811.476 784.517,809.464 785.732,807.38C834.021,821.004 878.306,824.009 914.521,808.75C878.874,823.77 826.911,833.252 782.788,813.415Z" style="fill:rgb(211,218,219);"/>
        <path d="M767.162,801.831C751.541,824.81 751.995,842.701 761.818,855.413C748.829,842.012 746.597,822.442 764.154,796.997L764.176,796.864C773.207,801.481 781.964,805.408 790.464,808.684C782.802,806.623 775.036,804.287 767.178,801.703L767.162,801.831Z" style="fill:black;fill-rule:nonzero;"/>
        <path d="M891.312,815.888C903.157,812.281 914.439,806.99 925.267,800.197C929.021,823.586 919.935,841.476 904.224,854.068C918.308,841.994 926.543,825.43 923.878,804.307C913.709,809.725 902.819,813.518 891.312,815.888Z" style="fill:black;fill-rule:nonzero;"/>
        <path d="M923.878,804.307C920.824,805.934 917.702,807.41 914.521,808.75C913.158,822.947 902.854,833.646 888.535,840.883L882.465,831.479L885.41,842.379C880.369,844.666 874.91,846.559 869.21,848.048L867.115,843.704L867.654,848.437C862.192,849.785 856.536,850.767 850.851,851.393C866.851,852.617 881.256,856.603 890.771,863.345L890.774,863.352C912.683,851.115 927.31,831.488 923.878,804.307ZM798.434,845.369L799.854,836.104L795.87,844.119C781.909,836.807 775.709,824.56 785.732,807.38C779.608,805.652 773.423,803.756 767.178,801.703L767.162,801.831C746.102,832.81 754.265,854.542 775.211,866.8L775.213,866.787C785.368,860.665 797.88,856.324 811.054,853.76L813.635,859.896L813.278,853.346C817.159,852.651 821.09,852.115 825.024,851.728C815.052,850.838 805.839,848.722 798.434,845.369Z" style="fill:rgb(108,38,16);"/>
        <path d="M932.206,979.83L927.475,953.639L908.023,945.724L911.99,998.186L932.206,979.83Z" style="fill:rgb(234,195,159);"/>
        <path d="M929.072,976.913L929.01,962.13L932.206,979.83L911.99,998.186L911.584,992.794L929.072,976.913Z" style="fill:rgb(254,216,178);"/>
        <path d="M931.716,977.112L931.727,977.174L958.702,947.759L918.821,906.286L955.747,947.759L931.716,977.112Z" style="fill:rgb(254,253,242);"/>
        <path d="M756.345,906.286L717.42,939.385L743.61,972.829L743.681,972.582L720.868,939.385L756.345,909.984L756.345,999.22C761.291,1000.38 766.24,1001.45 771.186,1002.41L781.815,912.067C773.372,910.537 764.884,908.624 756.345,906.286Z" style="fill:white;"/>
        <path d="M741.705,979.516L749,953.919L769.138,947.964L760.008,999.777L741.705,979.516Z" style="fill:rgb(234,195,159);"/>
        <path d="M745.11,976.922L746.635,962.217L741.705,979.516L760.008,999.777L760.946,994.452L745.11,976.922Z" style="fill:rgb(254,216,178);"/>
        <path d="M743.164,769.291C741.608,762.731 733.752,759.194 729.913,766.561C729.998,766.299 730.092,766.042 730.197,765.787C731.942,761.594 736.614,759.455 740.254,762.818C736.485,757.699 729.031,755.678 725.22,762.289C732.251,748.756 744.392,761.574 743.164,769.291Z" style="fill:black;"/>
        <path d="M841.896,891.055C829.546,891.055 818.101,888.442 808.698,883.994C817.158,891.329 830.348,896.054 845.179,896.054C865.623,896.054 882.956,887.083 889.058,874.652C878.549,884.582 861.341,891.055 841.896,891.055Z" style="fill:black;"/>
        <path d="M898.329,758.154C882.879,754.203 868.226,761.795 861.457,775.781C871.123,765.698 885.248,761.128 899.943,764.888C909.274,767.275 917.472,772.676 923.804,779.922C918.686,769.336 909.537,761.023 898.329,758.154Z" style="fill:black;"/>
        <path d="M795.334,760.653C784.187,762.81 773.962,768.124 765.655,775.408C772.995,764.627 784.71,756.332 798.096,753.74C816.547,750.168 832.552,758.516 838.562,773.215C828.675,762.458 812.883,757.256 795.334,760.653Z" style="fill:black;"/>
        <path d="M868.95,796.203C867.438,801.727 862.381,805.788 856.378,805.788C854.014,805.788 851.798,805.157 849.885,804.059C850.725,804.158 851.578,804.214 852.444,804.214C859.137,804.214 865.102,801.081 868.95,796.203Z" style="fill:black;"/>
        <path d="M868.95,796.203C868.95,796.203 864.491,800.338 859.328,802.216C854.179,804.089 849.885,804.059 849.885,804.059C850.725,804.158 851.578,804.214 852.444,804.214C859.137,804.214 865.102,801.081 868.95,796.203Z" style="fill:rgb(254,216,178);"/>
        <path d="M902.287,723.318C908.803,728.11 913.292,734.656 915.615,741.89C915.5,732.697 911.342,723.773 903.518,718.019C892.734,710.083 878.275,710.582 867.689,718.227C879.119,714.308 892.03,715.771 902.287,723.318Z" style="fill:black;"/>
        <path d="M790.573,721.952C782.396,726.438 776.073,732.886 771.986,740.202C774.059,730.697 780.522,721.764 790.342,716.378C803.88,708.951 819.671,710.521 829.69,719.202C817.954,714.314 803.448,714.89 790.573,721.952Z" style="fill:black;"/>
        <path d="M889.058,874.652C878.549,884.582 855.313,887.605 843.268,888.354C834.814,888.88 818.101,888.442 808.698,883.994C818.101,888.442 829.546,891.055 841.896,891.055C861.341,891.055 878.549,884.582 889.058,874.652Z" style="fill:rgb(254,216,178);"/>
    </g>
    <defs>
        <radialGradient id="_Radial1" cx="0" cy="0" r="1" gradientUnits="userSpaceOnUse" gradientTransform="matrix(226.32,0,0,39.208,842.745,1138.38)"><stop offset="0%" style="stop-color:rgb(188,190,191);stop-opacity:1"/><stop offset="70%" style="stop-color:rgb(254,254,253);stop-opacity:1"/><stop offset="70%" style="stop-color:rgb(254,254,253);stop-opacity:1"/><stop offset="100%" style="stop-color:white;stop-opacity:1"/></radialGradient>
    </defs>
</svg>
